<svg width="18" height="18" viewBox="0 0 18 18" fill="none" xmlns="http://www.w3.org/2000/svg">
<path d="M13.7461 16.8749C13.0598 16.8749 12.0958 16.6267 10.6523 15.8202C8.89696 14.8359 7.53922 13.9271 5.79336 12.1858C4.11008 10.5035 3.29094 9.41441 2.1445 7.32824C0.849341 4.97277 1.07012 3.73808 1.31692 3.21039C1.61082 2.57968 2.04465 2.20246 2.6054 1.82804C2.92389 1.61937 3.26094 1.44049 3.61227 1.29367C3.64743 1.27855 3.68012 1.26414 3.7093 1.25113C3.88333 1.17273 4.147 1.05425 4.48098 1.18082C4.70387 1.26449 4.90286 1.4357 5.21434 1.74332C5.85313 2.37332 6.72606 3.7764 7.04809 4.46546C7.2643 4.92988 7.40739 5.23644 7.40774 5.58027C7.40774 5.98281 7.20524 6.29324 6.9595 6.62828C6.91344 6.69121 6.86774 6.75132 6.82344 6.80968C6.5559 7.16125 6.49719 7.26285 6.53586 7.44425C6.61426 7.80882 7.19891 8.8941 8.15973 9.85281C9.12055 10.8115 10.1745 11.3593 10.5405 11.4373C10.7297 11.4777 10.8334 11.4166 11.1962 11.1395C11.2482 11.0998 11.3016 11.0587 11.3575 11.0175C11.7323 10.7387 12.0283 10.5415 12.4214 10.5415H12.4235C12.7656 10.5415 13.0584 10.6899 13.5436 10.9346C14.1764 11.2538 15.6216 12.1155 16.2555 12.755C16.5638 13.0657 16.7357 13.264 16.8198 13.4866C16.9463 13.8216 16.8272 14.0842 16.7495 14.26C16.7364 14.2892 16.722 14.3212 16.7069 14.3567C16.5589 14.7074 16.379 15.0437 16.1694 15.3614C15.7957 15.9204 15.417 16.3532 14.7849 16.6475C14.4603 16.801 14.1051 16.8788 13.7461 16.8749Z" fill="url(#paint0_linear_207_595)"/>
<defs>
<linearGradient id="paint0_linear_207_595" x1="9.00181" y1="1.12524" x2="9.00181" y2="16.8751" gradientUnits="userSpaceOnUse">
<stop stop-color="#D34B29"/>
<stop offset="1" stop-color="#F47A27"/>
</linearGradient>
</defs>
</svg>
