<svg width="32" height="28" viewBox="0 0 32 28" fill="none" xmlns="http://www.w3.org/2000/svg">
<path d="M30.248 17.5745C29.6954 17.5125 29.1428 17.3582 28.6141 17.1687C27.8471 16.894 27.11 16.5252 26.3439 16.2463C25.8386 16.0623 25.3069 15.9549 24.7834 15.8321C24.0667 15.6648 23.3366 15.6408 22.6095 15.6954C22.0665 15.7357 21.5282 15.8455 20.9869 15.9164C20.1757 16.0225 19.4034 16.2917 18.6573 16.6239C18.0387 16.8991 17.4566 17.2678 16.858 17.5945C16.8033 17.6241 16.746 17.6473 16.69 17.6737C16.6662 17.606 16.6167 17.5356 16.6223 17.4708C16.6809 16.837 16.7083 16.1958 16.8224 15.5726C17.0256 14.4645 17.2621 13.3618 17.5239 12.2675C17.7118 11.4813 17.948 10.7067 18.1902 9.9367C18.511 8.91699 18.8791 7.9172 19.3657 6.9707C19.6478 6.4217 19.9799 5.91671 20.4339 5.51133C20.8233 5.16386 21.1115 4.73114 21.3846 4.27665C21.5313 4.0325 21.7544 3.83235 21.9671 3.6424C22.9446 2.76956 23.9304 1.90691 24.9132 1.04102C25.2496 0.744511 25.5869 0.448467 25.9224 0.15057C25.9532 0.122772 25.9749 0.0829293 25.9801 0C25.9285 0.0157519 25.8712 0.0208482 25.826 0.0481824C24.4908 0.86543 23.1569 1.68453 21.823 2.50317C21.6867 2.58702 21.5482 2.66717 21.4154 2.75705C21.0981 2.97295 20.7821 3.05356 20.3832 3.00399C19.4842 2.89141 18.6803 3.39732 18.2488 4.31372C17.8989 5.05684 17.8429 5.86158 17.7401 6.66122C17.6624 7.26952 17.592 7.8806 17.4783 8.48149C17.2904 9.47433 17.105 10.4704 16.8545 11.4466C16.5663 12.5682 16.1635 13.6481 15.4859 14.5807C15.0887 15.1279 14.6373 15.6148 14.0113 15.9349C13.987 15.7065 13.9658 15.5022 13.9432 15.2979C13.8568 14.5154 13.6927 13.7561 13.4453 13.0097C13.0325 11.7635 12.3775 10.6872 11.5137 9.75555C10.8461 9.03559 10.0786 8.45138 9.24432 7.96261C8.1804 7.33948 7.02793 6.97209 5.88978 6.55234C5.141 6.27622 4.42173 5.90142 3.70421 5.53866C3.24669 5.30701 2.81608 5.0156 2.37289 4.75199C2.30474 4.71122 2.23442 4.67508 2.12677 4.61532C2.10333 4.8011 2.07859 4.95584 2.06513 5.11151C1.93057 6.66631 1.8928 8.22066 2.11635 9.77084C2.25699 10.7461 2.48402 11.6954 2.89335 12.5858C3.41728 13.7246 4.16042 14.6627 5.1614 15.3526C6.07253 15.9803 7.07828 16.3751 8.11876 16.6883C8.83325 16.9037 9.54253 17.1478 10.2379 17.4244C10.4866 17.5236 10.6881 17.7561 10.9637 17.9679C10.9255 17.6362 10.9064 17.335 10.8534 17.0404C10.6446 15.8784 10.1897 14.8212 9.62978 13.8098C8.94611 12.5751 8.13526 11.4438 7.18463 10.432C6.4862 9.68883 5.76259 8.97305 5.04941 8.24521C4.93959 8.1331 4.82629 8.02515 4.74252 7.87458C5.03682 8.06824 5.33807 8.25124 5.62456 8.45787C6.53308 9.11342 7.4199 9.80327 8.20297 10.6242C8.76076 11.2084 9.29077 11.8251 9.80298 12.4547C10.4532 13.2539 10.9637 14.1596 11.3704 15.12C11.7355 15.9822 12.0341 16.8777 12.1023 17.834C12.1448 18.4307 12.157 19.0297 12.1861 19.6274C12.1939 19.7942 12.124 19.8567 11.9764 19.9151C11.452 20.1222 10.9381 20.3585 10.4194 20.5808C9.93537 20.7889 9.45398 21.0057 8.96391 21.1966C8.16998 21.506 7.37302 21.8086 6.57128 22.093C5.88414 22.3372 5.18961 22.5591 4.49509 22.7778C3.7233 23.0215 2.94935 23.2568 2.17322 23.4838C1.73046 23.6131 1.28206 23.7201 0.834961 23.8308C0.834961 23.8308 1.86502 26.132 5.32982 28C5.72309 27.4922 6.10117 26.9692 6.51745 26.4832C7.20069 25.6854 7.95902 24.9719 8.77508 24.3293C9.71052 23.5918 10.7219 22.9937 11.8314 22.6314C12.4717 22.422 13.1506 22.3409 13.8169 22.2353C14.0213 22.2028 14.1429 22.1593 14.2006 21.9313C14.422 21.0585 14.8643 20.3195 15.4494 19.6746C15.9512 19.1219 16.5459 18.6989 17.2192 18.4455C17.9137 18.1838 18.6343 17.9971 19.3492 17.802C19.6118 17.7307 19.8922 17.6968 20.1635 17.7019C21.0794 17.7191 21.9988 17.7172 22.909 17.8085C23.5784 17.8757 24.2395 18.0582 24.8967 18.2245C25.4388 18.3617 25.9728 18.541 26.5049 18.7203C26.7484 18.8023 26.9789 18.9283 27.209 19.0798C27.0002 19.0436 26.7914 19.0033 26.5818 18.9732C25.9254 18.8787 25.2713 18.7587 24.6124 18.7036C23.6135 18.6197 22.6108 18.5326 21.6107 18.5414C20.8437 18.5484 20.0767 18.6878 19.3127 18.7935C18.3382 18.9283 17.4067 19.2303 16.532 19.7094C16.2117 19.8845 15.913 20.1046 15.62 20.3371C16.1288 20.2209 16.634 20.1889 17.1293 20.2936C17.5894 20.3913 18.0478 20.5285 18.4862 20.7078C19.4277 21.0928 20.3419 21.5584 21.2943 21.9086C21.9489 22.15 22.643 22.2862 23.3292 22.4085C23.9309 22.5151 24.5451 22.5647 25.155 22.5887C25.7891 22.6138 26.4125 22.4882 27.0323 22.339C27.884 22.1343 28.6627 21.765 29.3677 21.2216C30.1156 20.6452 30.7454 19.9443 31.206 19.0872C31.4621 18.61 31.6856 18.1129 31.9205 17.6232C31.9613 17.5379 31.9843 17.4434 31.9999 17.3318C31.4425 17.6996 30.8314 17.6399 30.248 17.5745Z" fill="#154D26"/>
</svg>
