<svg width="22" height="22" viewBox="0 0 22 22" fill="none" xmlns="http://www.w3.org/2000/svg">
<path d="M11.47 11.8799L21.34 1.99994C21.5038 1.80864 21.5894 1.56257 21.5797 1.31089C21.57 1.05921 21.4657 0.820476 21.2876 0.642381C21.1095 0.464287 20.8707 0.359954 20.619 0.350233C20.3674 0.340512 20.1213 0.426118 19.93 0.589944L10.87 9.64994L2.07 0.849944C1.88263 0.663693 1.62918 0.559152 1.365 0.559152C1.10081 0.559152 0.847358 0.663693 0.659995 0.849944C0.566267 0.942907 0.491873 1.05351 0.441104 1.17537C0.390335 1.29723 0.364197 1.42793 0.364197 1.55994C0.364197 1.69196 0.390335 1.82266 0.441104 1.94452C0.491873 2.06638 0.566267 2.17698 0.659995 2.26994L10.27 11.8799C10.4293 12.0387 10.6451 12.1279 10.87 12.1279C11.0949 12.1279 11.3107 12.0387 11.47 11.8799Z" fill="#D34B29"/>
<path d="M11.47 21.4599L21.34 11.5799C21.5038 11.3886 21.5894 11.1425 21.5797 10.8908C21.57 10.6392 21.4657 10.4004 21.2876 10.2223C21.1095 10.0442 20.8707 9.93991 20.619 9.93019C20.3674 9.92047 20.1213 10.0061 19.93 10.1699L10.87 19.2299L2.06999 10.4299C1.88263 10.2437 1.62918 10.1391 1.36499 10.1391C1.10081 10.1391 0.847357 10.2437 0.659994 10.4299C0.473743 10.6173 0.369202 10.8707 0.369202 11.1349C0.369202 11.3991 0.473743 11.6525 0.659994 11.8399L10.27 21.4599C10.4293 21.6187 10.6451 21.7078 10.87 21.7078C11.0949 21.7078 11.3107 21.6187 11.47 21.4599Z" fill="#D34B29"/>
</svg>
