<svg width="25" height="24" viewBox="0 0 25 24" fill="none" xmlns="http://www.w3.org/2000/svg">
<path d="M24.0591 18.7998L18.5827 13.8205C18.3238 13.5853 17.9836 13.4598 17.634 13.4706C17.2843 13.4814 16.9526 13.6276 16.7087 13.8785L13.4848 17.1939C12.7088 17.0457 11.1488 16.5594 9.54288 14.9576C7.937 13.3504 7.45066 11.7863 7.3065 11.0157L10.6193 7.79046C10.8704 7.54679 11.0169 7.21496 11.0277 6.86521C11.0385 6.51546 10.9128 6.17522 10.6772 5.9165L5.69928 0.441468C5.46357 0.181938 5.13598 0.0245142 4.78607 0.00262946C4.43617 -0.0192553 4.09151 0.0961234 3.8253 0.324261L0.90185 2.83141C0.668931 3.06517 0.52991 3.37628 0.511158 3.70574C0.490949 4.04254 0.105646 12.0207 6.29205 18.2097C11.689 23.6053 18.4493 24 20.3112 24C20.5833 24 20.7503 23.9919 20.7948 23.9892C21.1242 23.9708 21.4352 23.8311 21.6678 23.5972L24.1736 20.6724C24.4027 20.4071 24.5189 20.0627 24.4975 19.7128C24.4761 19.3629 24.3188 19.0353 24.0591 18.7998Z" fill="white"/>
</svg>
