<svg width="22" height="22" viewBox="0 0 22 22" fill="none" xmlns="http://www.w3.org/2000/svg">
<g clip-path="url(#clip0_207_1944)">
<path d="M1.40528 8.11725C1.30266 8.15137 1.21209 8.21442 1.14445 8.2988C1.07681 8.38318 1.03498 8.4853 1.02399 8.59288C1.01301 8.70047 1.03333 8.80894 1.08253 8.90524C1.13172 9.00155 1.20768 9.0816 1.30129 9.13576L6.95037 12.4065C7.04357 12.4604 7.15029 12.4863 7.25783 12.4812C7.36536 12.4762 7.46917 12.4403 7.55688 12.3779L13.9054 7.84257C14.1642 7.6584 14.4817 7.97594 14.2975 8.23474L9.76301 14.5824C9.70031 14.6701 9.66419 14.7741 9.65898 14.8817C9.65377 14.9894 9.67969 15.0964 9.73364 15.1897L13.0043 20.8388C13.0585 20.9324 13.1385 21.0084 13.2348 21.0576C13.3312 21.1068 13.4396 21.1271 13.5472 21.1161C13.6548 21.1051 13.7569 21.0633 13.8413 20.9956C13.9257 20.928 13.9887 20.8374 14.0228 20.7348L19.9768 2.87303C20.0096 2.77418 20.0143 2.66815 19.9903 2.56679C19.9664 2.46543 19.9146 2.37275 19.841 2.2991C19.7673 2.22545 19.6747 2.17374 19.5733 2.14976C19.4719 2.12578 19.3659 2.13048 19.2671 2.16332L1.40528 8.11725Z" fill="url(#paint0_linear_207_1944)"/>
</g>
<defs>
<linearGradient id="paint0_linear_207_1944" x1="7.13938" y1="2.29909" x2="19.841" y2="15.0007" gradientUnits="userSpaceOnUse">
<stop stop-color="#D34B29"/>
<stop offset="1" stop-color="#F47A27"/>
</linearGradient>
<clipPath id="clip0_207_1944">
<rect width="22" height="22" fill="white"/>
</clipPath>
</defs>
</svg>
