<svg width="25" height="24" viewBox="0 0 25 24" fill="none" xmlns="http://www.w3.org/2000/svg">
<g clip-path="url(#clip0_207_635)">
<path d="M4.45337 0.120368C5.2772 -0.0115432 6.11658 -0.0115432 6.94819 0.0117352L6.87824 0.0738109C5.79015 0.787681 4.8886 1.76537 4.23575 2.88273C2.93005 5.12522 2.44819 7.77895 2.55699 10.3551C2.6658 12.4501 3.17098 14.553 4.23575 16.3764C4.41451 16.7023 4.70984 16.9894 4.71762 17.3852C4.7487 18.2309 4.32902 19.0302 3.76166 19.6432C3.80052 19.682 3.83161 19.7208 3.87047 19.7596C4.39896 20.3415 4.97409 20.8847 5.51036 21.4589C6.27979 22.3279 7.15803 23.0961 7.91192 23.9807C6.66062 23.9962 5.39378 24.0583 4.15026 23.8255C2.59585 23.5229 1.21244 22.4443 0.551813 21.0011C0.15544 20.1708 0.0310881 19.2319 0 18.3241C0 14.1107 0 9.88952 0 5.67614C0.015544 4.26392 0.388601 2.78962 1.38342 1.74209C2.16839 0.857516 3.28756 0.283316 4.45337 0.120368Z" fill="white"/>
<path d="M15.8703 7.85645C16.2045 7.85645 16.5387 7.85645 16.8729 7.85645C16.8651 9.80407 16.8651 11.7595 16.8729 13.7071C16.5465 13.6605 16.0024 13.87 15.8781 13.4355C15.8548 11.581 15.8703 9.71871 15.8703 7.85645Z" fill="white"/>
<path d="M5.66573 7.92633C7.22014 7.92633 8.76677 7.91081 10.3134 7.92633C10.3056 8.22895 10.2823 8.56261 10.0802 8.80315C9.02325 10.1223 7.9818 11.4569 6.9248 12.776C8.05175 12.7838 9.17869 12.776 10.3056 12.776C10.2823 13.0398 10.3756 13.3424 10.2046 13.5752C10.0958 13.7226 9.90149 13.7071 9.74605 13.7149C8.33931 13.7071 6.9248 13.7226 5.51807 13.7071C5.52584 13.4123 5.52584 13.0786 5.73568 12.8458C6.78491 11.5345 7.8419 10.2309 8.88335 8.91178C7.81081 8.91178 6.73827 8.90402 5.66573 8.91954C5.66573 8.58588 5.66573 8.25999 5.66573 7.92633Z" fill="white"/>
<path d="M19.3523 9.2222C20.4715 8.9739 21.6761 9.70328 21.987 10.8051C22.3678 11.9458 21.6684 13.3037 20.5181 13.6528C19.5388 13.9943 18.3653 13.5442 17.8523 12.6441C17.4559 11.9768 17.4326 11.1 17.7901 10.4172C18.0932 9.80416 18.6839 9.36187 19.3523 9.2222ZM19.329 10.2076C18.645 10.4482 18.2798 11.2785 18.544 11.9458C18.7616 12.5743 19.5077 12.9623 20.145 12.7683C20.8834 12.5898 21.3264 11.7363 21.0621 11.0302C20.8523 10.3318 20.0129 9.92831 19.329 10.2076Z" fill="white"/>
<path d="M11.0831 10.0291C11.6194 9.36178 12.5598 9.03588 13.3914 9.27642C13.6634 9.34626 13.9121 9.48593 14.153 9.6256C14.153 9.55576 14.1453 9.40834 14.1453 9.33074C14.4562 9.33074 14.7748 9.33074 15.0857 9.33074C15.0857 10.7895 15.0857 12.2483 15.0857 13.7071C14.8525 13.6993 14.6194 13.7304 14.394 13.6838C14.2385 13.6217 14.1841 13.4433 14.122 13.3036C13.2593 13.9709 11.8992 13.8235 11.1841 13.0087C10.4147 12.2173 10.3758 10.8749 11.0831 10.0291ZM12.3499 10.2308C11.6271 10.4869 11.2774 11.4103 11.6427 12.0776C11.9536 12.7294 12.8318 13.001 13.4536 12.644C14.0365 12.3414 14.3007 11.581 14.052 10.9835C13.8111 10.3162 12.995 9.9515 12.3499 10.2308Z" fill="white"/>
<path d="M23.9301 17.804L23.9923 17.7341C24.0234 18.9446 23.8913 20.2094 23.2928 21.2957C22.6011 22.5605 21.3421 23.4994 19.9276 23.802C19.1348 23.965 18.3188 24.0038 17.5105 23.996C15.0234 23.996 12.5364 23.996 10.0493 23.996C9.3343 23.9883 8.61927 24.0193 7.90424 23.9805C7.15036 23.0959 6.27212 22.3277 5.50269 21.4587C4.95865 20.8845 4.39129 20.3413 3.86279 19.7593C4.91202 19.8447 5.96124 19.6352 6.9172 19.2162C8.79025 20.4344 11.0131 21.0086 13.2125 21.1948C15.4198 21.3656 17.6659 21.1328 19.7643 20.4189C21.3343 19.8757 22.8265 19.0377 23.9301 17.804Z" fill="white"/>
</g>
<defs>
<clipPath id="clip0_207_635">
<rect width="24" height="24" fill="white" transform="translate(0.5)"/>
</clipPath>
</defs>
</svg>
