<?xml version="1.0" standalone="no"?>
<!DOCTYPE svg PUBLIC "-//W3C//DTD SVG 1.1//EN" "http://www.w3.org/Graphics/SVG/1.1/DTD/svg11.dtd" >
<svg xmlns="http://www.w3.org/2000/svg" xmlns:xlink="http://www.w3.org/1999/xlink" version="1.1">
<metadata>
Created by FontForge 20170731 at Wed Nov 22 14:47:02 2023
 By Aleksey,,,
Copyright (c) 2014 by Nikola Giacintova. All rights reserved.
</metadata>
<defs>
<font id="iCielRukola" horiz-adv-x="792" >
  <font-face 
    font-family="iCiel Rukola"
    font-weight="400"
    font-style="italic"
    font-stretch="normal"
    units-per-em="2048"
    panose-1="2 0 5 6 5 0 0 2 0 3"
    ascent="1638"
    descent="-410"
    x-height="778"
    cap-height="1305"
    bbox="-1337 -2126 3109.36 2253"
    underline-thickness="102"
    underline-position="-307"
    slope="-15"
    unicode-range="U+0020-FB04"
  />
<missing-glyph horiz-adv-x="1228" 
d="M1126 0h-1024v1434h1024v-1434zM266 1331l348 -522l349 522h-697zM1024 1239l-348 -522l348 -522v1044zM614 625l-348 -523h697zM553 717l-348 522v-1044z" />
    <glyph glyph-name="uniFB00" unicode="ff" horiz-adv-x="819" 
d="M109 539q-12 48 -56 79l-18 11q-2 2 3 28t19.5 54t34.5 32q51 9 103 -6q123 337 274 582q18 18 74 -12q40 -24 57.5 -59.5t3.5 -59.5q-127 -197 -266 -500q7 -3 40.5 -16.5t61.5 -24.5q73 -33 123 -49q142 359 254 526q31 8 70 -20q38 -31 54.5 -66t2.5 -55
q-162 -226 -248 -440q83 -44 142 -47q66 -3 118 34q11 6 18 7t8 -3.5t-3 -13.5q-13 -27 -50 -58.5t-81 -47.5q-62 -18 -91 -17.5t-108 15.5q-30 -82 -39 -123q157 -194 203 -455q27 -169 0 -313q-30 -141 -86 -150q-50 -9 -125 33q-73 38 -125 94q-52 58 -67 223
q-22 304 59 601q-22 24 -30 60.5t5 47.5q43 -24 48 -29l22 62q-128 72 -238 92q78 -467 5 -924q-23 -137 -64.5 -229t-77.5 -92q-48 0 -121 33q-80 35 -118 73q-56 56 -56 191q0 137 45 307q50 193 88 297q43 111 132 328zM188 -240q59 362 11 590q-166 -449 -193 -731
q-4 -42 0.5 -79t14.5 -59t21.5 -35t20.5 -13q10 -6 30.5 25t48 112t46.5 190zM709 -141q-24 206 -119 336q-56 -288 -10 -535q24 -145 61 -145q6 -4 17 11t22.5 44.5t20.5 73.5t12 98t-4 117z" />
    <glyph glyph-name="uniFB01" unicode="fi" horiz-adv-x="804" 
d="M420 156q0 132 131 446q-63 -33 -90 -43q-66 -29 -187 -14q87 -408 5 -914q-23 -137 -64.5 -229t-77.5 -92q-48 0 -121 33q-79 35 -118 73q-56 56 -56 191q0 131 49 317t93 301q9 22 135 336q-11 17 -30 29.5t-35.5 19t-18.5 8.5t4 33.5t21.5 65t35.5 37.5q25 5 97 -17
q124 343 241 527q18 18 74 -13q40 -24 57.5 -59t3.5 -59q-106 -168 -235 -453q60 -28 149 -16q54 6 113 41l37 69q17 6 53.5 -2t58.5 -29q31 -26 36 -43.5t-7 -54.5q-5 -15 -21.5 -48.5t-46 -91t-51.5 -104.5q-98 -203 -98 -288q0 -37 14 -37q20 0 76.5 43.5t112.5 101.5
q83 89 108 131q4 4 8.5 2t2.5 -8q-25 -97 -88 -190q-124 -183 -193 -183q-44 0 -106 45q-72 47 -72 138zM186 -240q68 402 21 623q-176 -476 -203 -764q-4 -42 0.5 -79t14.5 -59t21.5 -35t20.5 -13q10 -6 30.5 25t48 112t46.5 190zM743 911q-4 1 -5 6.5t0 15t2.5 19t3 22
t1.5 21.5q0 135 15 156q22 29 74 23q47 -4 81.5 -28.5t36.5 -53.5q1 -36 -33 -86t-69 -72q-57 -39 -107 -23z" />
    <glyph glyph-name="uniFB02" unicode="fl" horiz-adv-x="903" 
d="M119 561q-11 17 -30 29.5t-35.5 19t-18.5 8.5t4 33.5t21.5 65t35.5 37.5q25 5 97 -17q124 343 241 527q18 18 74 -13q40 -24 57.5 -59t3.5 -59q-81 -126 -241 -474q104 -96 200 -116q50 148 129 348q60 150 126 275.5t106 179.5q34 46 47 51q35 14 100 -33
q92 -71 92 -131q0 -164 -153 -434q-158 -273 -318 -342q-76 -204 -79 -305q-6 -89 28 -89q53 0 193 134q150 144 166 170q4 4 10 1t4 -8q-73 -165 -174 -290t-172 -125q-39 0 -94 30q-58 36 -74 60q-29 43 -29 129q0 80 60 278q-125 9 -217 72q83 -378 0 -883
q-23 -137 -64.5 -229t-77.5 -92q-48 0 -121 33q-79 35 -118 73q-56 56 -56 191q0 131 49 317t93 301q9 22 135 336zM186 -240q68 402 21 623q-176 -476 -203 -764q-4 -42 0.5 -79t14.5 -59t21.5 -35t20.5 -13q10 -6 30.5 25t48 112t46.5 190zM997 1204q-166 -286 -301 -641
q72 42 124.5 119t103.5 209q43 114 65 211q21 94 8 102z" />
    <glyph glyph-name="uniFB03" unicode="ffi" horiz-adv-x="1181" 
d="M797 156q0 121 102 379q-86 -57 -229 -54q-24 -61 -58 -192q154 -194 201 -455q27 -169 0 -313q-30 -141 -86 -150q-50 -9 -125 33q-73 38 -125 94q-52 58 -67 223q-22 288 59 601q-22 24 -30 60.5t5 47.5l48 -27q15 53 30 93q-80 9 -246 59q78 -467 5 -924
q-23 -137 -64.5 -229t-77.5 -92q-48 0 -121 33q-80 35 -118 73q-56 56 -56 191q0 137 45 307q50 193 88 297q43 111 132 328q-12 48 -56 79l-18 11q-2 2 3 28t19.5 54t34.5 32q51 9 103 -6q123 337 274 582q18 18 74 -12q40 -24 57.5 -59.5t3.5 -59.5q-127 -197 -266 -500
q121 -48 233 -57q118 303 246 493q31 8 70 -20q38 -31 54.5 -66t2.5 -55q-6 -8 -33.5 -44.5t-52 -69.5t-33.5 -46q-50 -74 -108 -211q48 -7 113.5 3.5t109.5 37.5l12 6l58 115q17 6 53.5 -2t58.5 -29q31 -26 36 -43.5t-7 -54.5q-5 -15 -21.5 -48.5t-46 -91t-51.5 -104.5
q-98 -203 -98 -288q0 -37 14 -37q20 0 76.5 43.5t112.5 101.5q83 89 108 131q4 4 8 2t2 -8q-25 -97 -88 -190q-124 -183 -192 -183q-45 0 -107 45q-71 47 -71 138zM188 -240q59 362 11 590q-166 -449 -193 -731q-4 -42 0.5 -79t14.5 -59t21.5 -35t20.5 -13q10 -6 30.5 25
t48 112t46.5 190zM709 -141q-24 206 -119 336q-56 -288 -10 -535q24 -145 61 -145q6 -4 17 11t22.5 44.5t20.5 73.5t12 98t-4 117zM1120 911q-4 1 -5 6.5t0 15t2.5 19t3 22t1.5 21.5q0 135 15 156q22 29 73 23q47 -5 82.5 -29t36.5 -53q1 -36 -33 -86t-69 -72
q-57 -39 -107 -23z" />
    <glyph glyph-name="uniFB04" unicode="ffl" horiz-adv-x="1300" 
d="M111 539q-12 50 -58 79l-16 11q-2 2 3 28t19.5 54t34.5 32q51 9 103 -6q123 337 274 582q18 18 74 -12q40 -24 57.5 -59.5t3.5 -59.5q-127 -197 -266 -500q7 -3 40.5 -16.5t61.5 -24.5q73 -33 123 -49q142 359 254 526q31 8 70 -20q38 -31 54.5 -66t2.5 -55
q-162 -226 -248 -440q31 -14 93 -31q59 -19 94 -23h24q56 179 146 402q60 151 126 276.5t105 178.5q34 46 47 51q36 14 101 -33q92 -71 92 -131q0 -155 -148 -412q-149 -256 -321 -358q-79 -219 -82 -311q-6 -89 29 -89q25 0 82 36t120 98q160 149 172 170q4 4 10.5 1
t4.5 -8q-67 -155 -181 -288q-112 -127 -182 -127q-38 0 -94 30q-58 36 -74 60q-28 42 -28 129q0 77 49 239q-95 -27 -232 13q-22 -55 -39 -127q157 -194 203 -455q27 -169 0 -313q-30 -141 -86 -150q-50 -9 -125 33q-73 38 -125 94q-52 58 -67 223q-22 304 59 601
q-22 24 -30 60.5t5 47.5q43 -24 48 -29l22 62q-129 72 -237 92q77 -464 4 -924q-23 -137 -64.5 -229t-77.5 -92q-48 0 -121 33q-80 35 -118 73q-56 56 -56 191q0 137 45 307q48 183 89 297q60 155 131 328zM190 -240q59 362 11 590q-166 -449 -193 -731q-6 -55 4.5 -100
t25.5 -65.5t28 -20.5q6 -3 16 7t23.5 36t28 63t29.5 95t27 126zM711 -141q-24 206 -119 336q-56 -288 -10 -535q24 -145 61 -145q6 -4 17 11t22.5 44.5t20.5 73.5t12 98t-4 117zM1395 1204q-160 -276 -295 -624q148 121 231 342q95 263 64 282z" />
    <glyph glyph-name="a_a" unicode="aa" horiz-adv-x="1572" 
d="M225 659q99 132 207 132q35 0 83 -31t85 -74q44 98 51 127q2 7 28.5 3t55.5 -17q74 -35 74 -94q0 -32 -98 -224q-118 -230 -138 -303q-27 -105 -8 -110q5 -2 31 13.5t69 51t85 78.5q73 76 108 125q46 178 135 299q85 117 187 117q74 0 176 -99l30 97q2 7 28 2.5t56 -17.5
q64 -30 64 -82q0 -49 -76 -204q-92 -191 -110 -281q-15 -87 4 -92q6 -2 30.5 12t65.5 47t84 76q90 90 119 141q7 3 10 -6q0 -14 -27 -74.5t-61 -115.5q-42 -66 -92 -121q-59 -62 -101 -62q-58 0 -137 70q-48 42 -45 131q3 40 12 94q-163 -303 -198 -303q-41 0 -84 24t-68 60
q-43 61 -22 193q-44 -78 -47 -86q-40 -62 -99 -127q-65 -68 -106 -68q-70 0 -140 64q-41 35 -38 112q3 79 16 127q-169 -313 -203 -313q-42 0 -85 24t-68 60q-42 61 -5 258q39 199 162 366zM545 565l28 62q-42 22 -65 22q-88 0 -176 -129q-44 -63 -94 -182
q-46 -114 -58 -188q-15 -87 8 -87q9 0 78 84q82 101 152 207q87 130 127 211zM1298 512q24 46 35 80q-36 20 -61 20q-97 0 -180 -139q-93 -158 -119 -309q-15 -86 8 -86q11 0 74 75.5t133 176.5q74 109 110 182z" />
    <glyph glyph-name="f_j" unicode="fj" horiz-adv-x="854" 
d="M-201 -115q20 -17 -14 -26q-81 -19 -133 -52t-65.5 -56.5t-2.5 -26.5q110 -34 295 -7q2 102 43 269q21 79 47 147q10 27 27.5 72.5t23.5 60.5q14 40 62 152q25 59 59 143q-11 17 -30 29.5t-35.5 19t-18.5 8.5t4.5 33.5t22 65t35.5 37.5q24 5 96 -17q123 340 242 527
q17 17 73 -13q40 -24 58 -59t4 -59q-109 -174 -236 -453q73 -37 123 -37q52 0 82 10q24 9 27 0q0 -2 -4 -10q-12 -23 -46 -53t-61 -37q-76 -23 -180 -8q53 -328 41 -611q68 74 106 146q94 172 181 461q8 28 24 86.5t28 99.5t17 53q97 0 131 -43q27 -34 6 -110
q-75 -259 -176 -484q-119 -259 -290 -376l-48 -31l-12 -68q-23 -117 -61 -197.5t-70 -80.5q-50 0 -121 32q-82 37 -119 74q-42 45 -51 111q-198 -6 -268 28q-168 88 -168 175q0 34 135 61q140 28 217 14zM229 -158v4q17 269 17 287q-7 123 -17 250q-91 -249 -127 -371
q-40 -126 -55 -256q112 39 182 86zM801 909q-4 1 -5 6.5t0 15t2.5 19t3 22t1.5 21.5q0 136 14 156q22 28 74 22q47 -5 82.5 -28.5t36.5 -52.5q1 -36 -33.5 -86t-69.5 -72q-56 -39 -106 -23zM98 -487q5 0 20 16t37 55.5t38 89.5q-84 -32 -152 -45q4 -49 21.5 -82.5
t35.5 -33.5z" />
    <glyph glyph-name="g_g" unicode="gg" horiz-adv-x="1216" 
d="M1087 -57q151 15 222 -47q41 -35 0 -82q-23 -23 -31 -15q-68 86 -193 74q-21 -304 -200 -610q-94 -155 -211 -269q-116 -113 -185 -116q-61 -3 -163 80q-103 83 -103 135q0 72 74 217q70 138 213 293q80 86 170 159q-66 54 -156 72q-52 -121 -196 -291
q-98 -112 -226 -192q-124 -74 -188 -74q-53 0 -147 76q-93 78 -93 127q0 161 297 319q201 109 445 115q39 97 16 147q-9 19 -84 -2q-56 -15 -155 -49q-80 -30 -89 -30q-28 0 -47 32q-18 30 -18 76q0 15 45 71.5t98 102.5q-40 -9 -71 2q-25 11 -60 51q-39 42 -39 78
q0 64 44.5 137t115.5 123q106 75 219 90q115 12 162 -26q32 -19 47 -109q4 -20 -1.5 -27.5t-20.5 -2.5q-68 20 -134 14q-105 -9 -202 -84q-41 -31 -73 -82t-32 -78q6 -6 22 -7.5t48.5 4.5t73.5 20q62 20 118 57q5 3 44.5 30.5t54.5 36.5q24 -12 41 -40q41 -60 20 -101
q0 -6 -26.5 -23t-73.5 -45t-72 -44q-94 -62 -149 -117q87 43 147 43q33 0 104 -62q68 -65 68 -114q0 -44 -12 -90q102 -37 168 -109q127 95 268 135v15q3 34 -4 61q-11 27 -51 28t-82 -13t-82.5 -29t-46.5 -15q-27 0 -47 33q-19 32 -19 76q0 15 53 74q45 51 115 110
q-40 -9 -72 2q-24 10 -59 51q-39 42 -39 78q0 157 164 289q116 94 248 94q67 0 104 -16q22 -10 51 -51q31 -53 33 -72q1 -6 1.5 -10.5t-0.5 -8t-2 -5.5t-3.5 -2t-5.5 1q-52 16 -135 13q-109 -3 -223 -105q-47 -41 -77 -92.5t-30 -79.5q14 -18 135 35q70 31 115 63q5 3 44 31
t54 37q23 -12 41 -41q42 -60 21 -100q0 -7 -23.5 -24t-70.5 -47.5t-78 -53.5q-78 -58 -162 -139q92 12 135 -17q37 -28 70.5 -71t33.5 -78zM756 -348q-18 36 -19 39q-76 -70 -151 -176q-62 -84 -109 -189q-50 -113 -63 -166q-19 -62 -19 -78q0 -28 62 -4q128 55 276 265
q37 53 47 71q164 265 191 428q-107 -45 -203 -125q15 -29 18 -53q0 -14 -15 -19q-12 -5 -15 7zM131 -428q186 158 252 268q-78 -6 -148 -35t-182 -102q-77 -50 -134.5 -108t-79.5 -95.5t-17 -50.5q0 -40 121 10q111 48 188 113zM848 1024q13 -4 20.5 -13.5t10 -26t2.5 -30
t-1 -36.5t-1 -33q0 -9 -8.5 -12.5t-26 -6.5t-29.5 -8q-51 -22 -92.5 -51t-60 -47.5t-19.5 -18.5q-16 0 -16 23q0 97 78 190q35 44 76 61t67 9zM1370 979q57 -20 57 -143q0 -11 -11 -14t-40 -3q-55 -6 -112 -47q-38 -27 -50 -27q-18 0 -18 33q0 80 61 150q60 69 113 51z" />
    <glyph glyph-name="g_g_j" unicode="ggj" horiz-adv-x="1609" 
d="M868 -121q20 6 26 -1t1 -17t-14 -17q-63 -41 -125 -108q27 -41 30 -72q0 -14 -15 -19q-12 -5 -15 7q-10 24 -27 53q-49 -57 -143 -190q-28 -39 -29 -41q134 -15 250 28q96 174 135 316q35 138 16 180q-10 22 -47 22t-75.5 -12.5t-76.5 -25.5t-44 -13q-27 0 -47 33
q-19 32 -19 76q0 15 53 74q45 51 115 110q-40 -9 -72 2q-24 10 -59 51q-39 42 -39 78q0 157 164 289q116 94 248 94q67 0 104 -16q22 -10 51 -51q31 -53 33 -72q1 -6 1.5 -10.5t-0.5 -8t-2 -5.5t-3.5 -2t-5.5 1q-52 16 -135 13q-109 -3 -223 -105q-47 -41 -77 -92.5
t-30 -79.5q14 -18 135 35q70 31 115 63q5 3 44 31t54 37q23 -12 41 -41q42 -60 21 -100q0 -7 -23.5 -24t-70.5 -47.5t-78 -53.5q-78 -58 -162 -139q69 9 106 -17q30 -23 72 -74q41 -53 41 -92q0 -125 -49 -282q42 46 85.5 117.5t67.5 125.5q23 54 64 156q89 228 168 498
l13 46q14 46 22 79q24 95 28 104q97 0 131 -43q30 -41 13 -100q-55 -184 -160 -461q-51 -138 -80 -205q-29 -66 -94 -190q-61 -110 -123 -181q-100 -112 -221 -174q-56 -120 -115 -221q-185 -308 -328 -317q-61 -3 -163 80q-103 83 -103 135q0 121 137 325q-46 16 -104 54
q-92 -86 -189.5 -140.5t-152.5 -54.5q-53 0 -147 76q-93 78 -93 127q0 161 297 319q201 109 445 115q39 97 16 147q-9 19 -84 -2q-56 -15 -155 -49q-80 -30 -89 -30q-28 0 -47 32q-18 30 -18 76q0 15 45 71.5t98 102.5q-40 -9 -71 2q-25 11 -60 51q-39 42 -39 78
q0 64 44.5 137t115.5 123q106 75 219 90q115 12 162 -26q32 -19 47 -109q4 -20 -1.5 -27.5t-20.5 -2.5q-68 20 -134 14q-105 -9 -202 -84q-41 -31 -73 -82t-32 -78q6 -6 22 -7.5t48.5 4.5t73.5 20q62 20 118 57q5 3 44.5 30.5t54.5 36.5q24 -12 41 -40q41 -60 20 -101
q0 -6 -26.5 -23t-73.5 -45t-72 -44q-94 -62 -149 -117q87 43 147 43q33 0 104 -62q68 -65 68 -114q0 -44 -12 -90q95 -36 166 -107q83 61 157 90zM88 -346q4 2 16.5 1t32.5 -8.5t33 -19.5q0 -1 4 -4l8 -6q148 130 201 223q-78 -6 -148 -35t-182 -102q-77 -50 -134.5 -108
t-79.5 -95.5t-17 -50.5q0 -40 121 10q111 48 188 113l6 6q-49 58 -49 76zM670 -645q-88 0 -172 20q-32 -63 -58 -132.5t-36.5 -111.5t-8.5 -49q0 -31 60 0q120 66 262 275q-5 0 -23.5 -1t-23.5 -1zM328 -457l-6 -6q54 -25 98 -37q38 49 90 103q79 85 168 159q-63 57 -154 72
q-52 -121 -196 -291zM1561 887q-4 1 -5 6.5t0 15t2.5 19t3 22t1.5 21.5q0 135 14 155q22 29 74 23q47 -4 81.5 -28.5t36.5 -53.5q1 -36 -33 -86t-69 -72q-55 -38 -106 -22zM735 979q58 -21 58 -143q0 -11 -11 -14t-41 -3q-55 -6 -112 -47q-37 -27 -49 -27q-19 0 -19 33
q0 79 62 150q60 69 112 51zM1370 979q57 -20 57 -143q0 -11 -11 -14t-40 -3q-55 -6 -112 -47q-38 -27 -50 -27q-18 0 -18 33q0 80 61 150q60 69 113 51z" />
    <glyph glyph-name="g_j" unicode="gj" horiz-adv-x="960" 
d="M-102 -121q6 -2 9 -7t1 -9t-10 -4q-72 -12 -126 -38t-73.5 -47.5t-11.5 -29.5q38 -35 118 -61q72 61 158 106q136 72 262 100q6 1 9.5 -1t1.5 -7q-3 -18 -31 -37q-96 -58 -144 -98q-31 -23 -102 -94q72 -6 145 4q77 16 121 35q97 142 97 243q0 27 -9 54
q-10 27 -45.5 29.5t-71.5 -9.5t-72.5 -25.5t-43.5 -13.5q-27 0 -47 33q-19 32 -19 76q0 14 54 74q49 54 114 110q-40 -9 -71 2q-25 11 -60 51q-39 42 -39 78q0 157 164 289q116 94 248 94q67 0 104 -16q24 -10 52 -51q30 -51 32 -72q1 -6 1.5 -10.5t-0.5 -8t-2 -5.5t-3.5 -2
t-5.5 1q-52 16 -135 13q-109 -3 -223 -105q-47 -41 -77 -92.5t-30 -79.5q14 -18 135 35q70 31 115 63q5 3 44 31t54 37q23 -12 41 -41q42 -60 21 -100q0 -7 -23.5 -24t-70.5 -47.5t-78 -53.5q-78 -58 -162 -139q58 9 106 -27q34 -24 66 -73t39 -105q3 -44 -2 -80
q82 88 137 196q79 165 111 263q16 55 24 77q0 1 29 93q6 21 25 88q28 102 34 125q23 89 29 104q97 0 131 -43q30 -40 12 -100q-71 -251 -159 -461q-127 -303 -269 -442q-90 -90 -194 -136q-14 -25 -53 -86q-97 -143 -232 -245q-132 -99 -201 -99q-82 0 -172 78
q-88 79 -88 135q0 87 142 238l-11 4q-61 39 -114 98q-54 66 -54 119q0 31 136 49t213 0zM905 887q-4 1 -5 6.5t0 15t2.5 19t3 22t1.5 21.5q0 134 15 155q22 29 73 23q47 -5 82.5 -29t36.5 -53q1 -36 -33 -86t-69 -72q-56 -39 -107 -22zM-266 -659q0 -28 106 18
q135 66 250 172q-4 0 -17.5 -1t-17.5 -1q-105 -3 -188 22q-42 -51 -74.5 -99t-45.5 -75t-13 -36zM735 979q58 -21 58 -143q0 -11 -11 -14t-41 -3q-55 -6 -112 -47q-37 -27 -49 -27q-19 0 -19 33q0 79 62 150q60 69 112 51z" />
    <glyph glyph-name="l_l" unicode="ll" horiz-adv-x="913" 
d="M588 905q-163 -363 -389 -471q-61 -203 -64 -282q-6 -99 29 -99q25 0 93.5 35.5t139.5 89.5q17 13 36 27.5t22 17.5q41 245 215 668q60 151 126 276.5t105 178.5q34 46 47 51q36 14 101 -33q30 -24 58.5 -70t29.5 -77q3 -122 -97 -355q-76 -180 -239 -379
q-71 -94 -193 -219q-18 -82 -18 -112q-6 -89 28 -89q26 0 83 36t120 98q160 149 172 170q4 4 10.5 1t4.5 -8q-67 -155 -181 -288q-112 -127 -182 -127q-39 0 -94 30q-58 36 -74 60q-16 22 -26 78q-203 -179 -261 -179q-39 0 -94 37q-58 37 -73 64q-19 28 -19 110
q0 241 225 850q63 170 140 330q69 143 112 209q42 63 51 68q36 14 101 -33q83 -65 92 -131q10 -77 -29 -226q-41 -158 -108 -307zM233 537l-8 -23q159 140 267 408q44 112 69 221q30 136 35 184q3 67 -2 82q-78 -68 -361 -872zM684 496l-20 -58q202 213 305 496
q26 71 39 133t12.5 96.5t-10.5 40.5q-187 -328 -326 -708z" />
    <glyph glyph-name="n_n" unicode="nn" horiz-adv-x="1589" 
d="M913 524q51 140 78 199q2 5 22 5.5t49.5 -7.5t49.5 -25q37 -30 37 -59q3 -7 -9 -34t-37 -78t-40 -87l-111 -260q232 318 303 404q26 30 81 99t57 71q23 27 26 28q48 0 80 -16q55 -30 55 -76q0 -5 -1.5 -11t-5 -15t-7 -16.5t-10.5 -21t-13 -24t-17 -30.5t-19 -35
q-40 -71 -68 -138q-78 -176 -78 -276q0 -51 19 -51q7 0 31 13.5t67 47t86 76.5q31 34 59.5 67.5t44 53.5t19.5 24q4 6 8 3t2 -9q-22 -93 -108 -221q-109 -160 -191 -160q-37 0 -102 41q-80 53 -80 146q0 74 41 208q25 78 41 117q-33 -33 -160 -194q-201 -254 -219 -295
q-12 -27 -102 35q-26 18 -17 49q9 36 27 96l-27 -43q-120 -178 -201 -178q-37 0 -102 41q-80 53 -80 145q0 68 51 227q25 78 41 117q-29 -29 -159 -194q-203 -257 -220 -295q-12 -27 -102 35q-26 17 -16 49q71 248 139 452q55 155 65 178q2 5 22 5.5t49.5 -7t49.5 -24.5
q37 -30 37 -60q3 -7 -5 -27.5t-32.5 -72t-36.5 -78.5l-110 -260l307 418q154 212 168 221q48 0 80 -16q55 -30 55 -76q0 -22 -65 -151q-10 -20 -15 -31q-44 -87 -69 -146q-88 -192 -88 -295q0 -51 18 -51q6 0 33.5 18t73.5 56t88 82q49 49 96 110q46 149 67 207z" />
    <glyph glyph-name="o_o" unicode="oo" horiz-adv-x="1368" 
d="M1141 489q-9 21 57 66q64 43 78 23q4 -5 24 -29t31 -37q38 -41 78 -55q63 -15 123 24q6 4 9 2t1 -10q0 -13 -8 -24q-95 -108 -215 -84q-27 -101 -119 -228q-132 -178 -250 -178q-37 0 -96 39q-68 46 -88 80q-52 82 -6 258q0 2 20 67q-80 -54 -157 -38q-27 -101 -119 -228
q-132 -178 -250 -178q-37 0 -96 39q-68 46 -88 80q-53 84 -7 258q55 205 183 346q115 121 252 121q68 0 131 -72q49 -55 43 -78q-4 -7 -13 -4q-107 34 -213 -31q-120 -73 -194 -219q-74 -145 -74 -254q0 -60 17 -77q9 -6 21 -7t31 10t39.5 28.5t45.5 48.5t49 71
q83 139 92 227q3 31 -8 64q-7 13 29.5 37t78.5 37.5t50 -0.5q5 -5 20 -31.5t33 -46t39 -23.5q33 -10 81.5 29.5t88.5 99.5q23 39 51 70q59 75 118.5 116.5t98.5 41.5q43 0 96 -56q23 -26 34.5 -48.5t0.5 -26.5q-103 -38 -192 -121t-144 -189q-74 -145 -74 -254q0 -60 17 -77
q9 -6 21 -7t31 10t39.5 28.5t45.5 48.5t49 71q55 97 62 135q10 48 10 72q3 30 -8 63z" />
    <glyph glyph-name="p_p" unicode="pp" horiz-adv-x="1474" 
d="M846 494q58 179 61 206q1 3 23 4t51 -3.5t45 -14.5q40 -21 37 -63q0 -7 -19 -62q-2 -5 -23 -51.5t-32 -71.5l-110 -260l297 465q35 55 56.5 82.5t26 30t11.5 2.5q49 6 100 -27q26 -13 45 -40t19 -50q0 -31 -31 -129q-30 -98 -70 -180q-63 -131 -94 -166q89 22 178 67
q103 50 146 93q4 4 8.5 3.5t7 -4t0.5 -6.5q-29 -70 -145 -161q-67 -55 -156 -92q-120 -53 -125 -54q-60 -48 -76 -45q-31 6 -51 39q-21 41 -16 84q38 26 68.5 72t76.5 151q64 146 64 226q-28 -28 -166 -224q-149 -216 -217 -354q-43 -84 -103 -250q-62 -170 -69 -180
q-12 -17 -41 -15t-54 21q-37 27 -47 55q0 3 86 230q41 110 92 250l80 221q-59 -73 -139 -131q-99 -75 -145 -99q-42 -25 -101 -51q-66 -54 -86 -51q-32 6 -57 47q-12 21 -17.5 48.5t1.5 35.5q41 26 97.5 107t98.5 182q66 160 66 235q-7 -7 -131 -186q-17 -26 -45.5 -67.5
t-38.5 -57.5q-124 -178 -205 -344q-43 -84 -103 -250q-62 -170 -69 -180q-12 -17 -40.5 -15t-53.5 21q-38 28 -48 55q0 3 86 230q71 190 93 250q82 217 145 422q56 178 68 247q1 3 22.5 4t50.5 -3.5t45 -14.5q40 -21 37 -63q-3 -43 -80 -226l-110 -260l305 494
q92 147 109 147q51 7 100 -26q26 -13 44.5 -40t18.5 -51q0 -36 -34 -151q-36 -123 -74 -197q-69 -141 -109 -188q99 23 217 129q82 70 148 199z" />
    <glyph glyph-name="r_r" unicode="rr" horiz-adv-x="1259" 
d="M412 -141q-85 48 -119 149q-38 101 -10 256q22 121 96 271q-84 -5 -129 14q-185 -423 -219 -604q0 -17 -42 3q-54 24 -71 56q-8 15 -2 27q55 158 193 430l65 131q-27 27 -52.5 85t-25.5 105q0 62 52 113t120 59q36 4 70.5 -11.5t34.5 -33.5q0 -85 -82 -256q3 -26 57 -35
q52 -9 72 15q9 19 26 35t35 16q21 0 66 -25q42 -23 55 -43q9 -12 -12 -77q-23 -72 -53 -95q-28 -25 -68 -112q-38 -83 -51 -176q-8 -58 -3 -103t18 -78.5t32 -57t37.5 -39.5t34 -25t23 -14t3.5 -7q-18 -8 -74 2q-51 9 -77 25zM666 -55q0 -17 -42 3q-54 24 -71 56
q-8 15 -2 27q42 119 274 604q-2 2 -15 13.5t-29.5 26t-26.5 25.5q-52 52 -52 109q0 81 59 139t136 66q36 3 82 -21q45 -23 45 -41q0 -85 -82 -256q3 -25 57 -34q52 -9 72 14q9 19 26.5 35t35.5 16q20 0 65 -25q42 -23 55 -43q8 -11 -10 -69q-17 -56 -55 -103
q-31 -39 -68 -118q-38 -79 -61 -158q-37 -135 0 -135q19 0 71 39.5t107 95.5q58 58 117 137q9 9 14 2v-4q-29 -99 -88 -188q-114 -181 -186 -181q-39 0 -97 37q-57 34 -73 70q-25 52 -4 172q27 144 110 322q-84 -5 -129 14q-195 -442 -235 -647z" />
    <glyph glyph-name="s_s" unicode="ss" horiz-adv-x="1163" 
d="M647 477q-150 -44 -205 -63q0 -3 13 -107q10 -82 10 -108q0 -127 -70 -191q-42 -37 -104 -55t-113 -10q-63 9 -145 73q-84 63 -84 136q0 44 32 100t80 90q55 38 211 94q-2 23 -2 109q-15 -38 -61 -56q-88 -31 -84 -20q98 110 149 233q20 84 52 121q69 0 116 -30
q64 -43 11 -146q-15 -27 -15 -145v-4q33 8 115 39q5 2 13.5 5t22 8t23.5 9q58 21 119 51q127 64 160 142q3 10 19 35t22 36q70 0 117 -30q63 -43 10 -146q-15 -27 -15 -145q0 -60 15 -162q12 -102 12 -141q0 -127 -70 -191q-42 -37 -104 -55t-113 -10q-58 9 -135 69
q-80 59 -86 117q-9 80 33 160q43 82 92 82q27 0 60.5 -20.5t53 -43.5t15.5 -31q-1 -3 -11 -9.5t-25 -18.5t-25 -25q-51 -60 -51 -137q0 -39 16 -49q34 -21 113 10q75 29 75 103q0 32 -16 182q-17 156 -14 231q-38 -30 -232 -86zM303 150q0 15 -20 196q-101 -47 -140 -113
q-45 -68 -45 -147q0 -39 17 -49q34 -21 112 10q76 30 76 103z" />
    <glyph glyph-name="t_t.001" unicode="tt" horiz-adv-x="839" 
d="M86 911q24 17 152 17q95 256 96 260q74 0 127 -47q55 -49 6 -150l-33 -67q13 1 51.5 2t84.5 3t94 5q89 244 92 254q74 0 127 -47q55 -49 6 -150q-1 -2 -8 -16.5t-13 -28.5q232 18 701 117q10 2 -1 -35t-35.5 -80.5t-47.5 -56.5q-70 -43 -504 -70q-56 -4 -176 -10
q-178 -401 -225 -608q-10 -39 -14 -66.5t-2.5 -41t7.5 -13.5q54 0 174 111q15 13 35 32.5t38.5 39.5t34 37.5t25.5 29.5l11 12q6 6 13 2t3 -14q-50 -115 -143 -234q-106 -133 -176 -133q-18 0 -60.5 21.5t-70.5 42.5q-37 30 -37 96q0 37 14 108q-50 -82 -92 -135
q-106 -133 -176 -133q-18 0 -60.5 21.5t-70.5 42.5q-37 30 -37 96q0 87 65 297q40 129 132 377q-153 9 -156 12q-4 8 16 47q18 41 33 53zM483 422q69 205 131 381q-132 -6 -237 -6q-168 -385 -219 -594q-10 -39 -13.5 -67t-2 -41t7.5 -13q54 0 174 111q7 6 133 141
q21 74 26 88z" />
    <glyph glyph-name="v_v" unicode="vv" horiz-adv-x="1323" 
d="M1200 356q-55 -112 -115 -198q-145 -207 -231 -207q-33 0 -78 25t-74 61q-32 38 -32 86q0 95 57 295l-16 -21q-32 -37 -75.5 -52t-75 -12.5t-48.5 13.5q-33 -71 -115 -188q-132 -191 -225 -191q-33 0 -78 25t-74 61q-32 38 -32 86q0 97 55 289t86 256q39 9 94 -18
q58 -27 58 -78q0 -32 -21 -78q-79 -188 -92 -225q-36 -100 -47 -176q-3 -25 8 -25h2q39 0 101 47t122 125q39 50 95 141q-78 147 -78 226q0 88 65 141q35 28 83 40t61 1q32 -22 32 -80q0 -61 -18 -143q-16 -75 -41 -131q27 -18 66.5 -8.5t76.5 42.5q46 38 107 181
q10 33 24 61q40 9 95 -18q57 -26 57 -78q0 -42 -31 -115q-64 -150 -92 -231q-43 -118 -53 -193q-3 -24 8 -24h2q37 0 101.5 53t127.5 135q39 50 95 141q-59 107 -57.5 192.5t71.5 143.5q22 18 53 28t53.5 9.5t26.5 -8.5q27 -21 27 -76q0 -98 -70 -235q27 -18 73 -7.5
t83 43.5q35 30 71 91q6 12 15 -3q5 -8 2 -22q-30 -108 -115 -168q-81 -57 -170 -29z" />
    <glyph glyph-name=".notdef" horiz-adv-x="1228" 
d="M1126 0h-1024v1434h1024v-1434zM266 1331l348 -522l349 522h-697zM1024 1239l-348 -522l348 -522v1044zM614 625l-348 -523h697zM553 717l-348 522v-1044z" />
    <glyph glyph-name=".null" horiz-adv-x="0" 
 />
    <glyph glyph-name="nonmarkingreturn" horiz-adv-x="681" 
 />
    <glyph glyph-name="null" horiz-adv-x="0" 
 />
    <glyph glyph-name="null" horiz-adv-x="0" 
 />
    <glyph glyph-name="space" unicode=" " horiz-adv-x="409" 
 />
    <glyph glyph-name="exclam" unicode="!" horiz-adv-x="432" 
d="M94 -12q-10 23 -10 55q0 95 25 131q15 21 88 12q91 -9 94 -65q3 -79 -82 -127q-30 -18 -69.5 -18.5t-45.5 12.5zM393 1331q22 9 101 -37t79 -96q0 -8 -1.5 -16.5t-3 -16t-6 -19t-7.5 -20t-11 -25.5t-13.5 -28.5t-17 -36t-19.5 -41.5q-33 -67 -82 -198q-55 -152 -129 -383
q-25 -71 -29 -78q-11 -21 -32 -34t-34 -12.5t-18 3.5q0 126 61 455q50 284 125 501q26 75 37 82z" />
    <glyph glyph-name="quotedbl" unicode="&#x22;" horiz-adv-x="659" 
d="M170 811q-15 -24 -48 -45.5t-58 -25.5t-33 10q107 327 135 393q23 54 41 74t41 20q54 0 108 -57q-42 -68 -110 -213q-68 -146 -76 -156zM422 768q-10 -20 -62 -29q-54 -12 -61 11q110 331 133 393q28 78 84 78q29 0 68 -16.5t43 -35.5q-106 -179 -205 -401z" />
    <glyph glyph-name="numbersign" unicode="#" horiz-adv-x="1247" 
d="M561 -10q-33 0 -57.5 15t-24.5 40q0 45 150 338h-254q-180 -331 -203 -393q-33 0 -57.5 15t-24.5 40q0 45 150 338q-154 0 -154 6q0 23 20 64q18 43 33 49q16 4 164 4l33 61l151 289q-176 0 -176 6q0 28 10.5 68.5t22.5 46.5q15 6 191 6h22q123 226 188 330q52 82 86 82
q46 0 105 -62l-215 -352l221 -6q144 260 193 338q52 82 86 82q45 0 104 -62q-14 -28 -221 -362q180 -6 180 -15q0 -21 -12.5 -50.5t-28.5 -39.5q-17 -10 -209 -10l-153 -266q-14 -25 -50 -88q232 -3 232 -10q0 -80 -27 -95q-15 -9 -270 -12q-188 -344 -205 -395zM645 856
l-153 -266l-48 -84q180 0 248 -2l33 63l152 287q-81 0 -132 2h-100z" />
    <glyph glyph-name="dollar" unicode="$" horiz-adv-x="1185" 
d="M782 1495q5 -1 13.5 -2.5t30 -9t38 -17.5t30 -28.5t13.5 -40.5q0 -61 -20 -137q109 -57 166 -136q80 -122 22 -317q-59 -170 -203 -217q-40 -3 -92 18q-51 20 -51 51q99 34 156 152q58 116 43 250q-12 96 -64 123q-56 -184 -106 -326l-127 -364l18 -11q96 -65 131 -117.5
t35 -127.5q0 -101 -82 -189q-81 -90 -217 -90q-42 0 -80 14q-40 -103 -51 -114q-17 -10 -63 -4q-50 6 -50 22q0 6 56 160q-37 25 -64 57q-41 43 -68.5 95.5t-27.5 84.5q0 52 18 101.5t37.5 74.5t28.5 25q38 0 72 -43q32 -43 32 -72q0 -1 -5.5 -11.5t-14 -28t-16.5 -38.5
t-13.5 -46.5t-5.5 -47.5q0 -62 47 -92l139 400q-107 85 -155 176q-53 109 -35 252q15 143 86 235q116 155 307 158q24 0 51 -6q28 105 41 184zM563 1098q-129 -144 -108 -357q6 -81 63 -149l96 299l93 297q-89 -29 -144 -90zM664 354q-12 15 -62 58l-129 -344q94 6 148 75
q40 51 53 112t-10 99z" />
    <glyph glyph-name="percent" unicode="%" horiz-adv-x="1169" 
d="M225 1315q48 48 80 45q16 -2 62 -33q39 -26 39 -53q3 -8 -11 -23t-45 -46t-55 -66q-62 -82 -95 -176.5t-20 -151.5q8 -19 55.5 -9.5t86.5 44.5q135 117 135 280q0 42 -23 58q-18 18 -18 22q0 11 28 8q57 -6 107 -51q51 -45 51 -90q0 -123 -110 -260q-115 -139 -201 -139
q-70 0 -160 78q-92 77 -92 131q0 104 51 223q53 124 135 209zM766 575q49 49 80 46q18 -3 61 -31q39 -29 39 -55q3 -8 -11 -23t-44.5 -46.5t-54.5 -66.5q-62 -82 -95 -176t-20 -151q8 -19 55 -10t86 44q135 117 135 281q0 43 -22 59q-19 16 -19 21q0 11 29 8q56 -6 107 -49
q51 -45 51 -90q0 -124 -111 -262q-116 -140 -201 -140q-70 0 -159 80q-92 77 -92 129q0 104 51 226q53 124 135 206zM1049 1425q4 -1 10.5 -2.5t23.5 -10t30 -20t23.5 -33t10.5 -48.5q0 -41 -82 -156q-61 -84 -86 -117q-11 -14 -54.5 -69t-76.5 -97q-28 -36 -79.5 -100.5
t-72.5 -91.5q-13 -17 -46.5 -61t-66.5 -87.5t-67 -87.5q-39 -51 -99 -129t-81 -106q-28 -37 -141 -182q-143 -183 -166 -183q-19 0 -40.5 33t-21.5 55q0 15 90 134q49 68 111 147q15 19 73 95t101 132q97 125 227 303q422 570 480 682z" />
    <glyph glyph-name="ampersand" unicode="&#x26;" horiz-adv-x="1288" 
d="M926 610q15 12 75 -12q64 -28 78 -53q70 -108 -16 -285q-46 -88 -119 -149q8 -2 41 -2q50 0 112 28t103.5 55t44.5 27q13 -3 -14 -86q-32 -88 -45 -106q-13 -21 -62 -39.5t-104 -18.5q-77 0 -186 62q-145 -80 -287 -80q-123 0 -197 45q-72 42 -139 123q-69 81 -78 121
q-15 81 37 182q51 98 156 168l131 80q-2 16 -2 75q0 155 49 284.5t119 207.5q39 48 72.5 74t52.5 26q47 0 147 -69q102 -70 102 -119q0 -150 -133 -295q-73 -79 -256 -203q3 -192 82 -338q41 -78 90 -127q160 127 160 293q0 22 -3.5 42.5t-7.5 33.5t-7 24.5t-2.5 18.5
t6.5 12zM487 82q106 0 213 55q-174 177 -227 422q-3 -3 -19 -16t-20 -17q-51 -45 -85 -98t-47 -96t-17 -83t-1 -62.5t7 -30.5q47 -74 196 -74zM668 977q-44 -90 -56 -213q99 68 150 135q50 67 80 141.5t30 114.5q-3 37 -6 51q-5 12 -38 -11.5t-79.5 -83.5t-80.5 -134z" />
    <glyph glyph-name="quotesingle" unicode="'" horiz-adv-x="389" 
d="M170 811q-15 -24 -48 -45.5t-58 -25.5t-33 10q107 327 135 393q23 54 41 74t41 20q54 0 108 -57q-42 -68 -110 -213q-68 -146 -76 -156z" />
    <glyph glyph-name="parenleft" unicode="(" horiz-adv-x="524" 
d="M924 1362q-224 -181 -383 -401q-260 -359 -260 -816q0 -171 48 -339l5 -15q0 -14 -4.5 -23.5t-14.5 -11.5t-26 15q-52 67 -93.5 204t-41.5 306q0 445 241 780q164 222 291 289q106 57 168 57q35 0 66 -25q15 -12 4 -20z" />
    <glyph glyph-name="parenright" unicode=")" horiz-adv-x="524" 
d="M-305 -227q224 181 383 401q260 359 260 815q0 171 -48 339l-5 15q0 14 4.5 24t14.5 12t26 -15q52 -67 93.5 -204t41.5 -306q0 -444 -242 -780q-164 -222 -291 -289q-106 -57 -168 -57q-35 0 -65 24q-15 12 -4 21z" />
    <glyph glyph-name="asterisk" unicode="*" horiz-adv-x="903" 
d="M225 1141q9 12 64 18q57 6 78 -18q11 -18 71 -90q31 102 54 215q3 20 10 20q14 0 55 -47q37 -49 37 -92q0 -35 -27 -111q105 52 172 86l27 13q15 -6 6 -60q-12 -54 -47 -78q-45 -33 -162 -86q17 -22 51 -51q31 -28 65 -57t43 -38t5 -11q0 -8 -19.5 -15t-44.5 -7.5
t-49 7.5q-45 22 -122 90q-63 -153 -74 -170q-10 -17 -39.5 -20.5t-53.5 1t-24 9.5l48 141q7 17 13 35q-104 -39 -131 -39q-36 0 -67 26.5t-27 55.5q-2 2 4 5t19 7t31 8.5t41 10.5t46 12.5t49 15t48 17.5l-43 45q-120 129 -107 152z" />
    <glyph glyph-name="plus" unicode="+" horiz-adv-x="864" 
d="M496 961q46 0 84 -19.5t38 -48.5q0 -50 -67 -242l-2 -2v-2q309 0 309 -12q0 -18 -16.5 -51t-32.5 -43q-22 -16 -303 -19q-80 -218 -121 -284q-9 -16 -38 -22t-54 -2t-25 13q0 2 49 142q5 16 15.5 46.5t19 56.5t15.5 50h-15q-272 0 -272 15q0 28 9.5 64t21.5 42
q15 6 190 6h107q75 237 88 312z" />
    <glyph glyph-name="comma" unicode="," horiz-adv-x="434" 
d="M-63 -166q0 1 18.5 18t51 61.5t59.5 104.5q8 18 15.5 39.5t12 38t8.5 31t7 21.5t6 6q15 7 52 -2.5t56 -28.5q49 -49 2 -137q-36 -70 -110 -115q-71 -45 -144 -51q-34 -3 -34 14z" />
    <glyph glyph-name="hyphen" unicode="-" horiz-adv-x="636" 
d="M137 416q18 49 33 55t190 6h244q-4 -31 -34.5 -68t-61.5 -51q-40 -18 -154 -18q-237 0 -237 4q0 22 20 72z" />
    <glyph glyph-name="period" unicode="." horiz-adv-x="434" 
d="M57 -31q-16 3 -16 64q0 121 20 147q16 22 89 13q95 -9 98 -64q1 -37 -24.5 -76t-59.5 -61q-57 -39 -107 -23z" />
    <glyph glyph-name="slash" unicode="/" horiz-adv-x="583" 
d="M-82 -246q-33 0 -57.5 15.5t-24.5 40.5q0 40 211 444q144 278 416 778q207 381 213 387q52 82 86 82q46 0 104 -61q-53 -85 -491 -852q-413 -723 -457 -834z" />
    <glyph glyph-name="zero" unicode="0" horiz-adv-x="927" 
d="M217 852q79 136 143 203q55 196 189 211q128 9 254 -99q84 -72 84 -307q0 -251 -113 -504q-75 -173 -181 -276t-210 -103q-79 0 -164 48q-85 46 -121.5 108.5t-36.5 177.5q3 269 156 541zM473 729q0 -95 36 -188q4 -9 2 -10q-1 0 -3 1q-8 0 -25 8.5t-41 29.5t-46 50.5
t-39 78.5t-21 106q-2 -3 -14 -35q-111 -279 -111 -502q0 -144 43 -178q15 -22 71.5 -14t108.5 45q123 89 219 373q72 222 72 432q0 94 -17.5 158.5t-39.5 70.5q-45 20 -111 -70q-84 -116 -84 -356z" />
    <glyph glyph-name="one" unicode="1" horiz-adv-x="768" 
d="M674 106q21 -18 -15 -63q-39 -48 -55 -45q-6 3 -69 0q-43 -2 -111 -2q-95 0 -229 -14q-144 -15 -158 -15q-16 0 -18 18t8 40q25 57 75 96q10 8 91 14q86 4 143 4q-37 37 -37 64q0 90 74 329q107 351 172 484q-14 -20 -36.5 -43.5t-37.5 -32.5l-65 -49q-124 -92 -197 -92
q-33 0 -68 41q-37 40 -37 69q78 14 183 70q213 116 280 192q7 7 19 30.5t22.5 42t16.5 18.5q46 0 93.5 -22.5t49.5 -43.5q3 -52 -68 -102q-58 -119 -174 -566q-36 -129 -73 -391l57 -4q138 -9 164 -27z" />
    <glyph glyph-name="two" unicode="2" horiz-adv-x="878" 
d="M395 692q-27 -8 -77 8.5t-78 47.5q-69 81 -11 251q41 119 144 197q107 78 186 78q67 0 180 -64q115 -65 135 -104q49 -88 12.5 -225t-149.5 -291q-69 -97 -221 -262q-142 -154 -174 -170q158 14 301 2q163 -15 178 -39q9 -14 -47 -76q-57 -60 -94 -63q-30 0 -109 20
q-92 20 -143 25q-101 9 -197 -7q-10 -13 -53 -38q-42 -22 -57 -19q-56 15 -74 74q-19 61 2 88q7 17 42.5 27t74.5 12h35q306 335 442 581q133 239 90 388q-6 19 -39 27.5t-85 -2.5t-101 -44q-63 -42 -101 -125t-38 -162q0 -40 10 -74t15.5 -46.5t0.5 -14.5z" />
    <glyph glyph-name="three" unicode="3" horiz-adv-x="872" 
d="M360 827q-45 5 -88.5 30.5t-60.5 62.5q-13 40 15.5 113t90.5 132q60 63 142 93t147 22q53 -3 150 -59q100 -57 116 -107q31 -58 15 -147.5t-74 -159.5q-72 -90 -199 -148q147 -64 191 -192q22 -75 -10 -176q-35 -110 -107 -185q-71 -77 -166 -116q-96 -35 -147 -29
q-66 2 -148.5 37.5t-134.5 93.5q-42 50 -25.5 127.5t83.5 132.5q35 29 74 50t61 26l20 4q3 -6 -12.5 -36.5t-36 -70t-25.5 -59.5q-16 -49 -18 -93.5t5 -67.5t15 -27q7 -7 39 -11t88 6.5t105 41.5q77 55 128.5 151.5t51.5 194.5q0 74 -137 135q-70 -35 -119 -31q-30 0 -51 62
t2 82q38 25 143 6l41 -8q52 36 121 131q51 68 70 143q31 151 -17 180q-15 4 -45 3.5t-87 -21.5t-105 -58q-93 -67 -107 -192q0 -17 4.5 -38t1.5 -28z" />
    <glyph glyph-name="four" unicode="4" horiz-adv-x="823" 
d="M633 791q45 3 84 -19q45 -20 45 -63q0 -25 -74 -189q-41 -92 -57 -133q47 10 87.5 21t57.5 16t19 4q5 -2 6.5 -16t-3.5 -34.5t-13.5 -41t-25 -38.5t-36.5 -24q-44 -15 -145 -30q-59 -157 -80 -269q-4 -4 -27 -1t-56.5 15t-47.5 25q-32 25 -17 92q7 25 41 123
q-106 -4 -244 -4q-26 0 -69 58q-43 55 -43 90q0 11 20.5 45.5t91.5 148.5q63 102 119 199q60 106 131 252q75 160 92 201q26 69 31 69q28 0 68 -49q39 -48 39 -92q0 -56 -47 -156q-71 -145 -199 -352q-127 -208 -188 -291q57 -3 237 12h12q22 61 60 146q120 285 131 285z
" />
    <glyph glyph-name="five" unicode="5" horiz-adv-x="839" 
d="M264 1233q0 2 4 2t15.5 -1t24 -3t38 -5.5t49.5 -6.5q86 -11 144 -11q314 0 430 35q3 1 4.5 -1t1.5 -7q3 -47 -43 -117q-20 -33 -43 -43q-89 -27 -305 -6l-76 10q-10 -55 -43 -145q-56 -143 -96 -221q144 41 221 6q49 -24 117 -98q67 -73 67 -127q0 -190 -141 -377
q-57 -75 -137.5 -115.5t-151.5 -40.5q-64 0 -147 36.5t-136 94.5q-42 50 -25.5 127.5t83.5 132.5q35 30 74 50.5t63 25.5l18 4q3 -6 -12 -36.5t-35.5 -70t-25.5 -59.5q-17 -49 -17.5 -94.5t6.5 -66.5t13 -27q13 -10 39.5 -16t76.5 4t97 45q84 64 143 184q55 119 55 225
q0 81 -20 98q-37 32 -277 -75h-2q-13 3 -57 59q-45 54 -35 80q86 227 125 416q-31 0 -49 24q-35 47 -35 111z" />
    <glyph glyph-name="six" unicode="6" horiz-adv-x="823" 
d="M795 1128q0 -24 -23 -24q-2 0 -26.5 12t-40.5 12q-129 0 -267 -182q-98 -130 -159 -323q-65 -195 -68 -351q176 414 272 414q60 0 176 -72q113 -73 113 -163q0 -175 -139 -332q-141 -156 -254 -156q-104 0 -207 92q-100 87 -100 221q0 270 92 523q91 248 239 375
q93 81 201 81q80 0 139 -53q52 -46 52 -74zM584 563q-48 0 -176 -143q-134 -147 -191 -254q21 -98 80 -98q116 0 217 149q100 144 100 270q0 76 -30 76z" />
    <glyph glyph-name="seven" unicode="7" horiz-adv-x="735" 
d="M182 635q6 0 31 -3.5t73.5 -9t102.5 -8.5q74 172 98 224q46 99 82 170l29 59q-106 -29 -236 -29q-122 0 -190 39q-22 13 -43 52t-25.5 68.5t5.5 35.5q174 -39 297 -39q176 0 221 10l22 4q13 36 45 56q21 15 74 18q50 3 59 -6q12 -9 21 -57q9 -53 0 -62q-8 -8 -78 -45
q-36 -50 -123 -244q-60 -138 -106 -258h90l49 2q20 0 -21 -59q-25 -38 -47 -45q-31 -10 -118 -19q-121 -325 -121 -507q0 -8 -14.5 -10t-36 2t-39.5 14q-60 35 -60 82q0 105 105 387q0 1 0.5 2t1.5 3.5l2 5t2.5 7t3.5 8.5q-163 0 -188 25q-12 9 -3 67q9 57 35 60z" />
    <glyph glyph-name="eight" unicode="8" horiz-adv-x="864" 
d="M563 1200q2 -6 -29.5 -47.5t-71 -92.5t-71.5 -116.5t-29 -112.5q0 -74 84 -137q151 99 212 168.5t61 157.5q0 70 -23 70q-31 0 -116 -58q-89 -59 -97 -59q-17 -6 21 68q57 108 110 162q24 25 37 22q40 0 127 -90q84 -93 84 -138q0 -196 -287 -397q75 -54 119 -96
q68 -65 68 -139q0 -167 -111 -287q-112 -121 -256 -121q-96 0 -215 94q-122 91 -125 158q3 232 324 440q-34 27 -53 49q-63 63 -84.5 130t-12 124.5t42.5 128.5q48 104 86 150q64 76 80 76q14 0 70 -35q55 -37 55 -72zM211 172q0 -55 18 -82q7 -9 39 -21t56 -12
q104 0 186 101q83 103 86 229q-2 58 -16.5 91t-57.5 67l-14 10q-297 -201 -297 -383z" />
    <glyph glyph-name="nine" unicode="9" horiz-adv-x="847" 
d="M791 1055q0 -10 -12.5 -14.5t-20.5 1.5l-7 8q-7 8 -12.5 13.5t-18.5 14t-27 14t-35.5 10t-45.5 4.5q-73 0 -163 -84q-88 -82 -144 -191q-57 -105 -57 -176q0 -41 18 -41q89 0 234 127q142 127 157 291q2 1 6 2.5t16.5 3.5t25.5 -4q35 -10 64.5 -41t31.5 -53
q0 -136 -62 -393q-62 -258 -143 -387q-58 -93 -130.5 -144t-135.5 -51q-95 0 -207 68q-111 67 -111 131q0 48 58 127q56 80 96 80q2 0 2.5 -7.5t-0.5 -23.5t-4 -39q-9 -71 -12 -137q-6 -70 16 -98q11 -9 31 -12.5t51.5 4t66 27.5t76 65.5t78.5 111.5q87 151 137 395
q-61 -73 -126.5 -117t-112.5 -44q-56 0 -156 65q-100 63 -100 133q0 200 133 383t315 183q46 0 104 -23.5t85 -50.5q10 -10 26 -60q15 -50 15 -71z" />
    <glyph glyph-name="colon" unicode=":" horiz-adv-x="434" 
d="M57 -31q-16 3 -16 64q0 121 20 147q16 22 89 13q95 -9 98 -64q1 -37 -24.5 -76t-59.5 -61q-57 -39 -107 -23zM233 530q-16 3 -16 64q0 120 21 147q16 22 88 13q95 -9 98 -64q1 -37 -24.5 -76t-59.5 -61q-57 -39 -107 -23z" />
    <glyph glyph-name="semicolon" unicode=";" horiz-adv-x="434" 
d="M-63 -166q0 1 18.5 18t51 61.5t59.5 104.5q8 18 15.5 39.5t12 38t8.5 31t7 21.5t6 6q15 7 52 -2.5t56 -28.5q49 -49 2 -137q-36 -70 -110 -115q-71 -45 -144 -51q-34 -3 -34 14zM233 530q-16 3 -16 64q0 120 21 147q16 22 88 13q95 -9 98 -64q1 -37 -24.5 -76t-59.5 -61
q-57 -39 -107 -23z" />
    <glyph glyph-name="less" unicode="&#x3c;" horiz-adv-x="1177" 
d="M707 131q-72 0 -215 143q-297 291 -297 314q0 18 30 71t64 62q170 47 377 153q39 19 83 44t93 54.5t53 31.5q32 16 43 16q30 0 96.5 -22t63.5 -35q-9 -33 -211 -132q-202 -97 -494 -213q48 -56 230 -229q78 -72 159 -127l39 -29q0 -22 -39 -61q-41 -41 -75 -41z" />
    <glyph glyph-name="equal" unicode="=" horiz-adv-x="1071" 
d="M207 766q9 42 22 47q15 6 191 6q137 0 330 -8q215 -9 215 -18q0 -21 -12.5 -51t-28.5 -40q-20 -10 -453 -10q-274 0 -274 6q0 20 10 68zM133 461q12 4 184 4q535 0 535 -14q0 -80 -27 -95q-22 -14 -483 -14q-262 0 -262 6q0 23 20 64q18 43 33 49z" />
    <glyph glyph-name="greater" unicode="&#x3e;" horiz-adv-x="1093" 
d="M387 1020q72 0 215 -143q297 -291 297 -314q0 -15 -31 -69q-32 -56 -63 -64q-166 -46 -377 -154q-39 -19 -84 -44t-90.5 -51.5t-52.5 -30.5q-36 -19 -45 -19q-30 0 -96.5 22t-63.5 35q8 32 211 131q207 99 493 213q-57 66 -229 230q-75 69 -160 127l-39 29q0 22 41 63
q39 39 74 39z" />
    <glyph glyph-name="question" unicode="?" horiz-adv-x="763" 
d="M317 930q-20 -11 -54 -12t-66 12q-60 31 -60 90q0 37 24.5 92.5t61.5 95.5q68 72 136.5 102.5t164.5 30.5q107 0 226 -116q116 -116 116 -185q0 -190 -145 -335q-146 -146 -330 -170q-9 -50 -43 -119q-38 -78 -57 -97q-76 -79 -101 -51q23 96 35 174q2 11 10.5 66.5
t12.5 71.5q3 20 10 20q178 9 311 160q129 150 129 332q0 78 -28 111.5t-86 33.5q-123 0 -195 -90t-72 -217zM113 -12q-11 26 -11 55q0 95 25 131q15 21 88 12q91 -9 94 -65q3 -79 -82 -127q-30 -18 -69 -18.5t-45 12.5z" />
    <glyph glyph-name="at" unicode="@" horiz-adv-x="1585" 
d="M604 647q98 131 209 131q70 0 164 -98l24 65q2 7 28.5 3t55.5 -17q64 -30 64 -82q0 -11 -27 -78q-3 -8 -12 -26t-21 -41.5t-18 -36.5q-107 -219 -123 -299q-15 -76 4 -92q34 -24 109 28q74 53 133 136q199 272 199 565q0 119 -40.5 206.5t-88.5 108.5q-158 71 -365 19
q-203 -51 -377 -211q-158 -149 -246 -359q-92 -213 -92 -428q0 -196 79 -318.5t210 -162.5q168 -55 391 -2q219 53 398 188q12 9 12 -10q3 -59 -45 -164q-22 -43 -35 -53q-148 -115 -485 -115q-139 0 -287.5 90.5t-255.5 253.5q-111 170 -111 369q0 197 75.5 398t205.5 354
q290 338 649 338q68 0 162.5 -42t183.5 -110q92 -72 151.5 -175.5t59.5 -205.5q0 -246 -174 -526q-81 -129 -186 -206t-181 -77q-73 0 -157 78q-48 42 -45 131q3 40 12 94q-163 -303 -201 -303q-41 0 -83.5 24t-67.5 60q-44 65 -10 244q42 206 155 354zM913 541l37 77
q-40 19 -61 19q-81 0 -184 -145q-104 -147 -134 -328q-15 -86 9 -86q7 0 37.5 33t78.5 95t97 134q79 118 120 201z" />
    <glyph glyph-name="A" unicode="A" horiz-adv-x="1206" 
d="M33 -119q41 81 360 533q-9 -3 -35.5 -11t-49 -14.5t-32.5 -9.5q-14 -5 -43 -12q-50 -11 -71 -9q-58 3 -105 62q-47 56 -47 88q0 30 55.5 50t145.5 20q130 0 262 -33l16 4l29 37q165 227 356 461q187 233 234 270q65 0 123 -49q57 -48 57 -97q0 -19 -16 -65
q-3 -8 -23 -64.5t-37 -105.5q-43 -127 -90 -311v-2q10 2 43 2q13 0 54 -23q36 -20 36 -37q0 -6 -6 -9.5t-21 -6.5t-30.5 -5t-45.5 -5.5t-54 -6.5q-75 -314 -88 -485q-6 -60 -9 -63q-10 -8 -36.5 -7t-64 18t-58.5 42q-1 1 -9 35.5t-26.5 89t-44.5 98.5q-83 141 -203 191
q-70 -113 -303 -521q-52 -94 -119 -94q-47 0 -104 45zM682 635l-45 -66q40 4 135 19q104 13 182 22q63 315 111 490q-63 -56 -162 -174q-108 -129 -221 -291zM895 223q17 156 41 289q-32 -3 -221 -29l-60 -10q78 -49 146.5 -122.5t93.5 -127.5z" />
    <glyph glyph-name="B" unicode="B" horiz-adv-x="1161" 
d="M711 1032q68 -35 65 -90q0 -34 -47 -137q-42 -91 -65 -148l-52 -118q23 -4 127 -35l23 -8q163 87 276 215q176 203 146 381q-28 42 -111 69q-111 35 -274 10q-103 -15 -193 -55q-136 -58 -225 -152.5t-119 -183.5q-36 -101 -20 -170q-32 -4 -83.5 17.5t-72.5 46.5
q-15 17 -20 45.5t4.5 77t38.5 104.5q133 250 442 367q99 36 206.5 49.5t176.5 5.5q57 -8 110 -25q81 -28 193 -129q113 -101 119 -149q10 -85 -35.5 -187.5t-134.5 -195.5q-75 -79 -153.5 -130t-133.5 -73l-22 -10q58 -35 100.5 -82t48.5 -78q13 -54 -9.5 -121.5
t-84.5 -126.5q-141 -135 -381 -135q-153 0 -283 103q-35 27 -57.5 69.5t-22.5 69.5q0 78 17 78q1 0 6.5 -17.5t24 -49t47.5 -58.5q37 -34 102 -56.5t129 -21.5q171 3 279 108q81 78 81 166q0 27 -22.5 61.5t-45.5 56.5t-28 20q-114 -39 -225 -21q-31 -87 -45 -139l-45 -199
q-42 -6 -98 72q-37 51 -9 168q35 139 129 403q90 261 136 359q5 5 35.5 -2t54.5 -19z" />
    <glyph glyph-name="C" unicode="C" horiz-adv-x="913" 
d="M508 1468q39 0 100 -20q66 -21 66 -37q-112 -54 -209 -127q-115 -90 -178.5 -201.5t-63.5 -212.5q0 -54 21 -94q68 140 158 251t180 169q171 113 290 113q32 0 102.5 -33.5t133.5 -87.5q70 -61 70 -125q0 -102 -101 -215q-98 -110 -260 -189q-160 -77 -313 -77
q-79 0 -150 26q-69 -172 -69 -340q0 -132 30 -172q27 -41 129 -41q84 0 183 45q110 50 174 95q154 108 207 147q13 10 24 10q10 0 10 -8q0 -3 -10 -20q-140 -177 -274 -291q-136 -115 -219 -115q-63 0 -166 59q-94 54 -172 132q-70 70 -70 180q0 209 82 413
q-104 98 -104 205q0 277 235 484q89 77 164 77zM455 791q-28 -40 -72 -119q30 -6 63 -6q114 -5 253 62t235.5 174.5t91.5 205.5q0 33 -10 46t-39 13q-108 0 -252 -100q-149 -103 -270 -276z" />
    <glyph glyph-name="D" unicode="D" horiz-adv-x="1200" 
d="M354 336q85 324 248 719q45 -3 94 -33q49 -34 49 -92q0 -22 -38 -113q-27 -66 -72 -170q-115 -275 -166 -452q-11 -38 -22.5 -82t-17 -64t-7.5 -22q-28 4 -60 32t-40 52q-14 44 32 225zM74 893q100 189 311 309t438 123q157 3 258 -61q95 -74 176 -174q80 -103 86 -144
q34 -227 -149 -540q-153 -261 -363 -400q-207 -137 -391 -137q-152 0 -254 111q-38 42 -57 88.5t-18 74t12 27.5q2 0 12 -18.5t28.5 -45t45.5 -53t72 -45t100 -18.5q240 0 467 239q222 236 307 523q26 87 31.5 177t-4.5 111q-10 33 -17 45q-13 21 -60 49t-104 40
q-47 18 -182 6q-135 -15 -233 -64q-144 -70 -220.5 -144t-123.5 -192q-34 -91 -19 -170q-20 -8 -76 13q-58 18 -81 51q-64 85 8 219z" />
    <glyph glyph-name="E" unicode="E" 
d="M635 811q132 72 213 205q71 118 53 188q-29 16 -131 -10q-117 -28 -262 -133q-254 -181 -254 -371q0 -44 29.5 -92t64.5 -76l33 -24q89 28 143 28q36 0 70 -49q33 -50 33 -84q0 -22 -21 -50t-35 -28q-47 0 -90 19l-14 6q-93 -15 -197 -82q-58 -36 -98.5 -88t-34.5 -74
q48 -48 162 -45q76 3 182 43q101 38 189 94q102 65 221 170q17 17 20 0q0 -7 -6 -22q-20 -50 -123 -162q-107 -117 -219 -188q-71 -47 -166 -68q-91 -17 -151 -2q-80 25 -144 107q-67 85 -75 143q-5 31 25 84t83 102q39 35 86.5 66t77.5 45l25 10q-94 48 -158 127
q-66 78 -66 139q0 81 54 193.5t153 208.5q113 107 246 172q131 61 223 61q58 0 162 -78q102 -77 111 -122q22 -91 -80 -222q-109 -140 -256 -188q-42 -14 -84 -20t-65 -5.5t-27 4.5q-19 13 -13 29q0 1 11.5 2t39.5 10t60 27z" />
    <glyph glyph-name="F" unicode="F" horiz-adv-x="935" 
d="M598 -53q-48 0 -104 33q-62 38 -62 81q0 60 68 252q22 69 63 166q-99 -2 -209 -16q-7 -2 -30 2q-9 9 18 67t57 70q67 23 232 23q72 148 106 211q128 238 178 305q-139 33 -411 8q-91 -8 -166 -34t-98 -60q-8 -11 0.5 -19t31.5 -12q29 -5 248 -2q60 0 60 -6
q0 -22 -113 -74q-113 -55 -172 -55q-60 -6 -145 104q-90 110 -87 164q3 53 125 105q117 51 293 51q254 0 510 -54q105 97 170 97q20 0 60 -58q39 -56 39 -88t-55.5 -56t-139.5 -24q-30 -44 -145 -270q-55 -104 -113 -237q73 -9 76 -11q6 -3 22 -36.5t23.5 -62t-4.5 -32.5
q-125 0 -174 2q-37 -93 -72 -200q-74 -233 -80 -334z" />
    <glyph glyph-name="G" unicode="G" horiz-adv-x="1021" 
d="M522 1468q39 0 103 -20q66 -22 63 -37q-112 -54 -209 -127q-114 -90 -177.5 -201.5t-63.5 -212.5q0 -55 20 -94q80 170 209 305q217 228 420 228q47 0 135 -52q89 -53 145 -120q76 -94 -63 -267q-111 -136 -261.5 -212t-324.5 -76q-78 0 -149 26q-73 -180 -70 -352
q3 -128 49 -174q9 -9 35.5 -19.5t76 -15.5t105.5 16q70 24 125 73t127 145q-58 -7 -94 -7q-150 -3 -186 25q-12 10 -32 38t-33.5 53.5t-8.5 27.5q-1 0 2.5 -1t11.5 -2.5t20.5 -3.5t31 -3t40.5 -1.5t51.5 1t62 4t74 7.5t85.5 13q45 7 88 19t66.5 20t29.5 8q5 0 14 -35
q9 -38 9 -53q0 -41 -22.5 -59t-82.5 -31q-11 -3 -55 -10q18 -121 4 -144q-51 -92 -160 -157q-109 -62 -196 -62q-64 0 -158 54q-90 53 -164 127q-70 70 -70 180q0 209 82 413q-104 98 -104 205q0 277 235 484q89 77 164 77zM469 791q-28 -40 -72 -119q30 -6 64 -6
q247 0 442 186q85 82 118.5 170t6.5 139q-54 25 -178 -33q-212 -95 -381 -337z" />
    <glyph glyph-name="H" unicode="H" horiz-adv-x="1271" 
d="M401 535q5 0 29 -2.5t66 -5.5t86 -5l12 37q179 506 192 576q18 94 2 104q-5 3 -17.5 2.5t-42.5 -17.5t-64.5 -41t-83 -68t-99.5 -99q-129 -141 -186 -307q-62 -171 -62 -281q0 -34 7.5 -65.5t12.5 -44.5t3 -13q-28 -5 -76.5 9.5t-73.5 39.5q-47 47 -47 131q0 176 113 377
q56 102 142.5 203t170.5 166q168 127 254 127q32 0 129 -72q94 -73 97 -117q3 -55 -13 -110q-14 -51 -86 -240l-118 -303h16q176 -4 272 -4l129 373q90 270 97 317q37 -3 92 -39q53 -38 53 -76q0 -46 -64 -213q-57 -138 -122 -313q-8 -15 -15 -41q11 1 84 15q4 1 6 -1.5
t4 -9.5q-3 -13 -12 -32q-12 -24 -38 -53.5t-36 -30.5q-22 -4 -57 -13q-179 -470 -188 -524q-40 8 -77.5 40.5t-37.5 63.5q0 14 84 261l49 143q-136 -4 -184 -4q-31 -2 -113 -2l-59 -158q-67 -188 -72 -238q-37 6 -70 30.5t-43 55.5q-15 40 84 318q-27 4 -41 10q-32 8 -77 94
q-24 50 -11 50z" />
    <glyph glyph-name="I" unicode="I" horiz-adv-x="622" 
d="M6 39q-23 50 -20 90q1 3 8 10q44 -12 223 -22q86 -4 105 -2q-5 0 -5 4q-79 40 -79 119q0 54 88 311q100 291 225 530q-94 -10 -182 2q-105 9 -136 60q-12 18 -21.5 51t-10 53.5t3.5 24.5q2 0 22.5 -5t53 -13t55.5 -13q159 -30 297 -27q58 64 123 93q50 21 106 -23
q50 -39 47 -80q-2 -22 -56 -51.5t-124 -42.5h-2q-129 -233 -235 -602q-27 -99 -51.5 -193t-36 -142t-13.5 -54q116 5 207 22q15 0 6 -55q-6 -40 -31 -59q-47 -31 -157 -45q-195 -25 -301 -11q-78 9 -109 70z" />
    <glyph glyph-name="J" unicode="J" horiz-adv-x="878" 
d="M221 401q3 -5 3.5 -9t0.5 -11.5t-0.5 -22t0.5 -41.5q3 -54 15 -116q27 -126 61 -144q6 -10 42.5 8.5t90 71.5t92.5 123q77 138 248 551l139 330q-136 28 -350 8q-183 -15 -233 -92q-15 -24 32 -33q23 -5 224 -2q53 0 53 -6q0 -22 -98 -74q-103 -53 -156 -53
q-60 -6 -145 104q-89 109 -86 164q3 56 110 105t277 49q195 0 424 -49q51 75 77 75q62 0 97 -65t32 -98q-1 -17 -36.5 -30.5t-77.5 -15.5q-50 -117 -94 -235l-191 -500q-92 -248 -180 -336q-98 -98 -244 -98q-59 0 -168 90q-112 87 -112 162q0 43 59 117q58 73 94 73z" />
    <glyph glyph-name="K" unicode="K" horiz-adv-x="1271" 
d="M1262 -72q3 -13 -39 -67q-40 -49 -82 -49q-50 0 -117.5 42.5t-114.5 112.5q-90 136 -125 414l-53 -16q-2 -5 -21.5 -55.5t-35.5 -94.5q-67 -188 -72 -238q-37 6 -70 30.5t-43 55.5q-15 37 74 289q-74 47 -74 92q0 22 52 68q48 45 75 45h19q2 0 2 2q179 506 192 576
q18 94 2 104q-5 3 -17.5 2.5t-42.5 -17.5t-64.5 -41t-83 -68t-99.5 -99q-129 -141 -186 -307q-62 -171 -62 -281q0 -34 7.5 -65.5t12.5 -44.5t3 -13q-28 -5 -76 9.5t-73 39.5q-48 48 -48 131q0 176 113 377q56 102 142.5 203t170.5 166q168 127 254 127q32 0 129 -72
q94 -73 97 -117q3 -55 -13 -110q-14 -51 -86 -240l-125 -319q33 15 90 45q31 16 103 69q66 49 158 138q202 196 284 397q9 23 20.5 53t17 44t9.5 18q20 8 58 -27q46 -43 49 -147q3 -48 -80 -175q-79 -121 -238 -258q-198 -167 -383 -249q40 -243 191 -369q51 -44 179 -100
q20 -9 20 -11z" />
    <glyph glyph-name="L" unicode="L" horiz-adv-x="864" 
d="M600 1294q21 27 102 -45q50 -44 50 -108q0 -52 -56 -226q-64 -200 -213 -528q-72 -158 -108 -221q112 14 198 14q128 0 183 -22q44 -20 71 -76q26 -56 23 -100q-1 -5 -2 -7.5t-3 -3.5t-5 0q-39 18 -158 37q-114 15 -219 15q-115 0 -180 -15q-8 -8 -27 -35
q-33 -36 -86 -12q-20 10 -59 55q-42 45 -39 62q3 31 127 57q24 38 65 127q119 265 236 641q77 253 100 391z" />
    <glyph glyph-name="M" unicode="M" horiz-adv-x="1576" 
d="M1448 -477q-118 89 -164 252q-63 199 27 532q37 143 100 291q3 8 16.5 38t22.5 52q11 26 24.5 56.5t14.5 31.5q-1 -1 -28.5 -27t-56 -53t-68.5 -70t-72 -81q-99 -124 -158.5 -245.5t-93.5 -285.5l4 45q-6 -43 -6 -82q-40 -27 -90 11q-49 40 -46 90q8 119 70 342
q64 235 203 516q-128 -128 -264 -307q-115 -151 -175 -273t-94 -293v17l-10 -105q-55 2 -90 24.5t-41 63.5q-6 39 37 213q50 200 88 324q155 512 160 535q21 93 2 104q-5 3 -17.5 2.5t-42.5 -17.5t-64.5 -41t-83 -68t-99.5 -99q-130 -143 -187 -307q-61 -168 -61 -281
q0 -34 7 -65.5t12 -44.5t3 -13q-28 -5 -76 9.5t-73 39.5q-47 47 -47 131q0 178 112 377q56 102 143 203t171 166q168 127 254 127q31 0 135 -72q97 -72 100 -117q1 -34 -19.5 -102.5t-76.5 -218.5q-31 -80 -88 -244l-29 -84q91 160 256 361q18 25 101 125q24 30 61 75t51 62
q32 40 66 69q47 -3 88 -53q39 -48 39 -80q0 -17 -13 -43q-26 -39 -39 -69q-155 -288 -219 -463q-33 -89 -43 -121q70 131 148 229q18 21 43.5 53.5t54.5 65.5q34 41 43 49q149 176 240 254q46 -3 88 -45q39 -39 39 -69q0 -17 -13 -43q-22 -33 -38 -70q-95 -174 -181 -404
q-43 -111 -67.5 -227.5t-28.5 -185.5q-4 -78 -4 -146q0 -78 22 -174q21 -88 56 -129q11 -13 -4 -22t-31 4z" />
    <glyph glyph-name="N" unicode="N" horiz-adv-x="1183" 
d="M1071 -436q-118 89 -164 252q-63 199 27 532q60 220 196 529q-1 -1 -31.5 -30t-47.5 -46q-68 -68 -146 -172q-115 -150 -174.5 -272.5t-93.5 -293.5v17l-10 -105q-55 2 -90 24.5t-41 63.5q-7 41 36 213q46 184 89 324q152 502 159 535q21 93 2 104q-5 3 -17.5 2.5
t-42.5 -17.5t-64.5 -41t-83 -68t-99.5 -99q-129 -141 -186 -307q-62 -171 -62 -281q0 -34 7.5 -65.5t12.5 -44.5t3 -13q-28 -5 -76.5 9.5t-73.5 39.5q-47 47 -47 131q0 176 113 377q56 102 142.5 203t170.5 166q168 127 254 127q31 0 135 -72q98 -73 101 -117
q1 -34 -19.5 -101t-77.5 -220q-31 -80 -88 -244l-28 -84q102 181 256 361q152 179 239 254q46 -3 88 -45q39 -39 39 -70q0 -19 -12 -43q-25 -37 -39 -70q-93 -171 -180 -403q-119 -314 -119 -619q0 -74 23 -174q21 -89 55 -129q11 -13 -4 -22t-31 4z" />
    <glyph glyph-name="O" unicode="O" horiz-adv-x="1024" 
d="M774 1389q85 0 144 -103q10 -19 15 -32.5t4.5 -20.5t-5.5 -8q-118 26 -241 -37t-220 -197q-219 -301 -231 -678q-9 -245 69 -280q2 -1 13.5 -3.5t15.5 -3.5t16 -2.5t20 -1t21.5 2.5t25 5.5t27.5 10.5t33 16q66 37 135 115q116 131 191 309q74 173 96 330q21 175 -4 207
q-63 3 -158 -74q-117 -95 -182 -233q-77 -165 -65 -303q3 -38 -11 -35q-4 0 -8 4q-57 57 -57 198q0 210 121 390q114 169 229 178q55 3 147 -51q95 -58 138 -129q50 -80 -2 -299q-24 -110 -95 -263q-108 -224 -249 -348q-142 -127 -246 -127q-89 0 -193 64q-110 68 -131 110
q-45 83 -45 246q0 307 144 586q109 214 253 334q144 123 285 123z" />
    <glyph glyph-name="P" unicode="P" horiz-adv-x="1128" 
d="M698 1032q69 -35 66 -90q0 -34 -47 -137q-51 -113 -66 -148q-7 -17 -86 -213q280 59 461 267q175 202 145 381q-28 42 -110 69q-111 35 -275 10q-101 -15 -192 -55q-136 -58 -225 -152.5t-119 -183.5q-37 -103 -21 -170q-32 -4 -83 17.5t-72 46.5q-15 17 -20.5 45.5t4 77
t38.5 104.5q133 250 443 367q99 36 206.5 49.5t176.5 5.5q57 -8 110 -25q81 -28 193 -129q112 -100 118 -149q21 -175 -169 -383q-132 -141 -312 -223q-183 -86 -342 -95q-35 -98 -43 -126q-37 -119 -57 -224l-4 -30q-26 -3 -70 22q-47 27 -53 62q-9 54 43 247q10 40 18 68
q-23 10 -32 22q-12 15 -23 46t-6 34q3 0 16.5 -1.5t36.5 -4t37 -4.5q142 443 225 623q5 5 35.5 -2t54.5 -19z" />
    <glyph glyph-name="Q" unicode="Q" horiz-adv-x="976" 
d="M745 1389q85 0 144 -103q10 -19 15 -32.5t4.5 -20.5t-5.5 -8q-118 26 -241 -37t-220 -197q-225 -308 -237 -678q-4 -118 17.5 -190t58.5 -90q29 -11 65 -8q-24 114 -24 221q-3 208 51 401q52 187 129 301q117 173 256 185q45 3 116 -56q68 -56 117 -137q50 -86 13 -258
q-19 -103 -82 -244q-84 -190 -209 -321q-122 -128 -228 -166q21 -98 62.5 -172.5t124.5 -157.5q31 -31 66.5 -50t54 -25t18.5 -11q0 -19 -74 -10q-9 1 -41 17t-83 50t-89 72q-101 101 -157 279q-85 16 -158 69q-80 55 -96 88q-44 83 -47 215q-3 127 28 281q35 173 113 336
q104 216 248.5 336.5t289.5 120.5zM528 627q-93 -276 -63 -553q64 42 121 108q108 119 188 322q77 195 92 350q8 91 4.5 122t-22.5 38q-50 9 -135 -70q-54 -54 -105 -143q-54 -94 -80 -174z" />
    <glyph glyph-name="R" unicode="R" horiz-adv-x="1150" 
d="M711 512q214 63 354 225q160 186 145 355q-28 42 -110 69q-111 35 -275 10q-101 -15 -192 -55q-136 -58 -225 -152.5t-119 -183.5q-37 -103 -21 -170q-32 -4 -83 17.5t-72 46.5q-15 17 -20.5 45.5t4 77t38.5 104.5q133 250 443 367q99 36 206.5 49.5t176.5 5.5
q57 -8 110 -25q81 -28 193 -129q112 -100 118 -149q18 -152 -157 -348q-74 -83 -186.5 -150t-219.5 -94l-121 -29q47 -165 166 -266q16 -14 36 -27t38.5 -23t37.5 -19t34 -15.5t26.5 -11.5t17 -8t3.5 -4q2 -6 -22.5 -31.5t-64 -50.5t-69.5 -25q-33 0 -86 38.5t-92 96.5
q-97 142 -119 322l-29 -8q-33 -85 -59 -174q-42 -138 -55 -224l-6 -30q-26 -3 -70 22q-47 27 -53 62q-9 54 43 247q4 14 26 90q-4 0 -6 2q-84 44 -84 82q0 23 51 68q48 45 76 45q19 0 25 -2q130 387 184 498q5 5 35.5 -2t54.5 -19q69 -35 66 -90q0 -34 -47 -137
q-52 -113 -66 -148q-22 -49 -67 -163q48 6 88 18z" />
    <glyph glyph-name="S" unicode="S" horiz-adv-x="784" 
d="M494 1022q-185 -170 -185 -320q0 -41 44.5 -83.5t148.5 -110.5q108 -69 153 -112.5t45 -78.5q0 -119 -147 -254q-150 -135 -242 -135q-102 0 -213 111q-43 43 -43 86t66 127q65 80 135 129q5 3 11.5 3t11 -6.5t0.5 -17.5q-66 -192 -66 -237q0 -61 29 -90q5 -10 36.5 1.5
t86 54.5t106.5 108q88 114 14 194q-22 25 -151 127q-133 105 -158 160q-38 77 14 213q52 137 172 260q109 112 250 172q139 59 205 59q48 0 154 -71t127 -133q18 -49 -23 -136q-43 -88 -117 -159q-82 -78 -185.5 -117.5t-184.5 -22.5q-15 3 -15 25q0 6 11 7.5t40.5 9.5
t61.5 26q120 64 213 205q17 27 30 55t19 50.5t8 41t1 29t-5 12.5q-22 9 -93.5 -3.5t-170.5 -53.5q-108 -45 -194 -125z" />
    <glyph glyph-name="T" unicode="T" horiz-adv-x="784" 
d="M215 1167q-31 30 -56 85.5t-24 93.5q123 -40 246 -60q243 -43 512 -49q153 117 237 117q18 0 78 -60q56 -59 56 -86q0 -44 -105 -71q-108 -28 -203 -25q-45 -58 -137 -244q-142 -280 -225 -577q-66 -238 -72 -344q-48 0 -104 33q-62 38 -62 81q0 89 66 287
q83 243 221 508q109 201 150 254q-106 -14 -361 -2q-161 9 -217 59z" />
    <glyph glyph-name="U" unicode="U" horiz-adv-x="1224" 
d="M180 305q-28 -5 -76 9.5t-73 39.5q-47 47 -47 131q0 178 112 377q56 102 143 203t171 166q168 127 254 127q31 0 135 -72q97 -72 100 -117q5 -45 -72 -264q-6 -18 -47 -135t-57 -166q-88 -262 -118 -380.5t-3 -119.5q28 -1 76 51.5t117 159.5q163 255 319 641
q52 124 66 185q32 -5 75 -34.5t50 -53.5q15 -44 -15 -133l-28 -70q-27 -71 -66.5 -178.5t-73.5 -210.5q-110 -337 -110 -567q0 -35 3 -69t8 -61.5t12 -53.5t14.5 -46t15 -37.5t14 -29.5t11 -20.5t6.5 -12.5t0 -4q-15 -26 -64 26q-164 182 -164 385q0 187 101 512
q-101 -235 -189 -383q-22 -38 -30.5 -51t-23.5 -30.5t-36 -34.5q-33 -26 -61 -23q-40 6 -101 64q-64 55 -82 96q-15 35 19 184q31 154 76 295q90 293 147 457q5 16 13 43t10 35q21 93 2 104q-5 3 -17.5 2.5t-42.5 -17.5t-64.5 -41t-83 -68t-99.5 -99q-130 -143 -187 -307
q-61 -168 -61 -281q0 -34 7 -65.5t12 -44.5t3 -13z" />
    <glyph glyph-name="V" unicode="V" horiz-adv-x="1124" 
d="M201 305q-28 -5 -76.5 9.5t-73.5 39.5q-47 47 -47 131q0 176 113 377q56 102 142.5 203t170.5 166q168 127 254 127q32 0 129 -72q93 -72 96 -117q6 -117 -127 -522q-164 -492 -188 -586q8 -8 47 28t109 124t143 203q73 119 130.5 246t82.5 223q23 91 39 172
q7 42 13.5 83t9 56.5t3.5 15.5q30 0 93 -75q64 -76 61 -129q-4 -67 -92 -260q-63 -137 -146 -271q-110 -179 -223 -315q-129 -152 -186 -201q-71 -59 -88 -59q-30 0 -76 37q-48 38 -62 58.5t-14 59.5q0 67 117 445q149 487 176 633q18 94 2 104q-5 3 -17.5 2.5t-42.5 -17.5
t-64.5 -41t-83 -68t-99.5 -99q-129 -141 -186 -307q-62 -171 -62 -281q0 -34 7.5 -65.5t12.5 -44.5t3 -13z" />
    <glyph glyph-name="W" unicode="W" horiz-adv-x="1503" 
d="M162 305q-28 -5 -76.5 9.5t-73.5 39.5q-47 47 -47 131q0 176 113 377q56 102 142.5 203t170.5 166q168 127 254 127q32 0 129 -72q93 -72 96 -117q3 -49 -22 -151q-11 -44 -103 -359q-6 -18 -32.5 -104.5t-44.5 -140.5q-20 -60 -72 -224q-30 -97 -35 -127q13 -2 69 61.5
t132 168.5q80 112 143 223q55 95 103 242q43 127 67 229q21 88 25 88q35 0 88 -41q50 -38 53 -76q3 -68 -84 -358q-110 -368 -133 -528q56 5 178 194q81 127 148 291q46 110 68 227t19.5 197.5t-12.5 148.5q-6 37 -12.5 72.5t-9.5 50t-2 15.5q29 13 104 -45q78 -60 90 -111
q13 -67 15 -111q3 -58 -29 -213q-35 -150 -111 -303q-90 -178 -200 -319q-110 -137 -174 -189q-63 -51 -84 -51q-32 0 -76 35q-46 36 -62 61.5t-16 65.5q0 98 53 293q-113 -203 -217 -336q-106 -139 -147 -139q-30 0 -76 37q-61 46 -61 96q0 26 139 528q102 367 143 568
q18 94 2 104q-5 3 -17.5 2.5t-42.5 -17.5t-64.5 -41t-83 -68t-99.5 -99q-129 -141 -186 -307q-62 -171 -62 -281q0 -34 7.5 -65.5t12.5 -44.5t3 -13z" />
    <glyph glyph-name="X" unicode="X" horiz-adv-x="1064" 
d="M1341 1257q63 0 117 -51q53 -53 53 -76q2 -3 -4 -5t-20 -5.5t-33.5 -8.5t-46.5 -15t-55 -22.5t-62.5 -34t-66.5 -48.5q-100 -81 -158 -139q-60 -60 -197 -225q0 -5 1 -20t1 -19q15 -470 115 -668q12 -25 30 -53t30 -45t12 -19q0 -21 -66 -49q-67 -27 -104 -18
q-140 38 -158 717q-107 -137 -143 -179q-17 -19 -57.5 -66.5t-65.5 -76.5q-142 -161 -201 -164q-69 -3 -96 82q-21 69 0 84q2 2 8 2q137 -6 428 285q50 50 125 135q0 14 4 158q3 104 6 174q0 92 -2 143q-3 157 -37 172q-42 21 -157 -55q-72 -45 -148 -131
q-107 -125 -151 -273q-45 -142 -45 -262q0 -34 5 -68.5t8.5 -50.5t2.5 -16q-28 -5 -76.5 9.5t-73.5 39.5q-47 47 -47 131q0 172 99 365q108 214 262 332q150 114 274 114q35 0 121 -63q86 -65 98 -105q9 -65 9 -92q0 -8 -1 -27.5t-2 -53.5l-2 -68q-6 -120 -6 -199
q85 108 154 207q97 135 108 149q132 172 211 172z" />
    <glyph glyph-name="Y" unicode="Y" horiz-adv-x="1216" 
d="M229 305q-28 -5 -76 9.5t-73 39.5q-47 47 -47 131q0 178 112 377q56 102 143 203t171 166q168 127 254 127q31 0 135 -72q97 -72 100 -117q0 -39 -12 -86q-8 -34 -37 -125q-10 -32 -27 -79t-26 -72q-6 -18 -16 -46t-13 -36q-36 -101 -57 -166t-35 -117.5t-13 -76.5
t15 -25q61 -3 201 192q149 209 235 424q52 124 66 185q32 -5 72 -32.5t47 -51.5q18 -46 -13 -137q-14 -45 -116 -328q-183 -506 -367 -744q-135 -166 -252 -198q-61 -15 -115 -15q-51 -3 -127 48q-75 53 -114 110q-6 10 4 16.5t18 0.5q58 -27 115 -27q217 0 367 205
q163 220 315 616q-76 -154 -164 -272q-99 -135 -145 -135q-31 0 -99 59q-69 60 -84 100q-13 36 -4 103q8 54 54 211q6 22 57 186q20 64 55 180q20 66 27 99q21 93 2 104q-5 3 -17.5 2.5t-42.5 -17.5t-64.5 -41t-83 -68t-99.5 -99q-130 -143 -187 -307q-61 -168 -61 -281
q0 -34 7 -65.5t12 -44.5t3 -13z" />
    <glyph glyph-name="Z" unicode="Z" horiz-adv-x="872" 
d="M223 309q288 342 469 529q124 129 226 223q10 10 30 35q-138 32 -397 10q-91 -8 -166 -34t-98 -60q-8 -11 0.5 -19t31.5 -12q29 -5 248 -2q60 0 60 -6q0 -22 -113 -74q-113 -55 -172 -55q-60 -6 -145 104q-89 109 -86 164q3 53 125 105q117 51 292 51q254 0 510 -54
q83 68 168 68q18 0 39 -43q21 -47 21 -76q0 -40 -39.5 -66t-116.5 -26q-68 -55 -289 -297q-419 -457 -583 -702q145 59 278 80q164 24 209 -2q54 -34 90 -125q16 -41 4 -41h-2q-93 22 -174 22q-139 0 -250 -24q-32 -8 -102.5 -29t-87.5 -25q-28 -6 -43 -2q-91 101 -94 164
q0 32 88 137q54 67 69 82z" />
    <glyph glyph-name="bracketleft" unicode="[" horiz-adv-x="575" 
d="M469 1397q24 0 115 -8q121 -11 157 -11q51 0 102 2.5t88.5 6t66.5 7.5t46.5 6.5t18.5 2.5q26 -3 -27 -74l-35 -39q-31 -24 -153 -33q-4 0 -182 -6q-136 -386 -291 -768q-61 -154 -135 -321q-62 -136 -105 -225l-35 -70q112 14 211 14q72 0 164 -10q82 -9 82 -21
q0 -18 -31 -69q-35 -47 -63 -47q-4 0 -83.5 8t-129.5 8q-136 0 -176 -6q-17 -3 -46.5 -14t-33.5 -11q-24 0 -51 43q-25 48 -25 64q0 11 45 59q55 62 256 607q101 270 184 530q83 257 86 311l-4 6q-47 56 -16 58z" />
    <glyph glyph-name="backslash" unicode="\" horiz-adv-x="583" 
d="M377 -238q-4 92 -115 746q-24 154 -72 418q-13 71 -35.5 192t-31.5 170q-34 177 -35 185q77 38 119 22q31 -8 53 -106q40 -188 141 -955q86 -609 72 -647q-10 -24 -41 -31t-55 6z" />
    <glyph glyph-name="bracketright" unicode="]" horiz-adv-x="575" 
d="M252 -272q-25 0 -113 8q-113 10 -159 10q-51 0 -102 -2.5t-88.5 -6t-66.5 -7.5t-46.5 -6.5t-18.5 -2.5q-26 3 27 74q24 31 34 39q31 24 154 33q3 0 182 6q136 386 291 768q70 175 137 324q56 127 103 223l35 69q-112 -14 -211 -14q-70 0 -162 10q-84 9 -84 21q0 22 33 69
q31 48 61 48q4 0 83.5 -8.5t129.5 -8.5q135 0 176 6q17 3 46.5 14t33.5 11q24 0 51 -43q25 -48 25 -64q0 -11 -45 -59q-56 -62 -256 -606q-88 -237 -183 -529q-86 -268 -88 -313l4 -6q48 -55 17 -57z" />
    <glyph glyph-name="asciicircum" unicode="^" horiz-adv-x="948" 
d="M135 782q0 64 121 224q140 182 240 297q119 137 153 137q39 0 79.5 -22t59.5 -48q2 -3 4 -16.5t4 -43.5t4 -60.5t5 -87.5t6 -105q9 -149 27 -273q3 -23 -25 -71q-26 -45 -45 -45q-20 0 -66 272q-24 151 -32 299q-13 0 -78 -74q-83 -95 -121 -145q-90 -115 -217 -311
q-17 -29 -29 -41q-10 -3 -49 41q-41 47 -41 73z" />
    <glyph glyph-name="underscore" unicode="_" horiz-adv-x="1466" 
d="M137 -287q22 5 113 8q12 1 31 2t32.5 1.5t24.5 1.5q105 3 539 0t434 -15q0 -18 -35 -65q-37 -46 -74 -58q-24 -8 -205 -8q-111 0 -393 4q-62 1 -116 2t-78 2h-25q-26 0 -254 -8q-43 -3 -43 0q0 22 18 74q15 53 31 59z" />
    <glyph glyph-name="grave" unicode="`" horiz-adv-x="798" 
d="M279 1178q19 22 56 38t66.5 21t34.5 0q4 -13 2.5 -19t-6 -42t-4.5 -78q3 -95 57 -203q3 -6 -8 -13.5t-22 -4.5q-64 12 -138 98q-44 51 -55 105.5t17 97.5z" />
    <glyph glyph-name="a" unicode="a" horiz-adv-x="774" 
d="M211 647q98 131 209 131q70 0 164 -98l24 65q2 7 28.5 3t55.5 -17q64 -30 64 -82q0 -11 -27 -78q-3 -8 -12 -26t-21 -41.5t-18 -36.5q-107 -219 -123 -299q-15 -87 4 -92q6 -2 30.5 12t65.5 47t84 76q90 90 119 141q7 3 10 -6q0 -14 -27 -74.5t-61 -115.5
q-42 -66 -92 -121q-59 -62 -100 -62q-58 0 -137 70q-48 42 -45 131q3 40 12 94q-163 -303 -201 -303q-41 0 -83.5 24t-67.5 60q-45 66 -11 244q41 204 156 354zM520 541l37 77q-40 19 -61 19q-82 0 -185 -145t-133 -328q-15 -86 8 -86q7 0 37.5 33t78.5 95t97 134
q83 124 121 201z" />
    <glyph glyph-name="b" unicode="b" horiz-adv-x="614" 
d="M504 1233q53 -27 53 -82q0 -26 -25 -96q-24 -56 -30 -68q-1 -2 -19 -40.5t-24 -53.5q-123 -268 -191 -490q-63 -204 -63 -297q0 -61 18 -61q42 0 92.5 56t85.5 145q36 90 56 186q18 102 10 154q-29 50 -29 53q0 46 54 88q29 22 66.5 32.5t45.5 2.5q30 -30 33 -90
q22 -36 55.5 -54.5t64 -19.5t52.5 3t29 9q11 6 19.5 -3t-1.5 -21q-84 -96 -215 -62q-27 -178 -129 -360q-45 -86 -117 -158q-69 -69 -125 -69q-27 0 -96 34q-70 37 -94 72q-56 80 39 406q55 183 198 563q57 142 101 243q44 0 86 -22z" />
    <glyph glyph-name="c" unicode="c" horiz-adv-x="632" 
d="M573 481q-29 -48 -102 -90q-71 -41 -125 -41q-39 0 -49 23q-3 10 6 16q81 52 141 148q45 75 33 110q-3 8 -12 8q-39 0 -119 -80q-85 -85 -136.5 -191.5t-51.5 -197.5q0 -56 15.5 -77t53.5 -21q111 0 271 115q46 33 86.5 68t67.5 62t34 32q10 7 14 -5q0 -19 -42.5 -87.5
t-98.5 -131.5q-69 -81 -148 -123.5t-141 -42.5q-52 0 -108 29.5t-96 81.5q-49 64 -43 174q6 219 157 408q103 127 211 127q55 0 119 -52q63 -51 84 -92q40 -72 -21 -170z" />
    <glyph glyph-name="d" unicode="d" horiz-adv-x="776" 
d="M209 647q98 131 209 131q66 0 162 -96q136 325 186 528q2 7 25 3t53 -17q66 -31 57 -117q-2 -33 -33 -127q-23 -72 -67 -174q-17 -38 -38.5 -89.5t-43.5 -100.5q-13 -30 -41 -94q-111 -254 -125 -326q-15 -87 4 -92q6 -2 30.5 12t65.5 47t84 76q90 90 119 141q7 3 10 -6
q0 -14 -27 -74.5t-61 -115.5q-42 -66 -92 -121q-59 -62 -100 -62q-58 0 -137 70q-49 43 -46 131q2 30 13 94q-156 -295 -197 -295t-83.5 24t-67.5 60q-45 66 -11 244q41 200 152 346zM518 541q23 46 35 77q-36 19 -59 19q-82 0 -185 -145q-99 -141 -129 -320q-15 -86 8 -86
q7 0 37 31.5t78 93t96 131.5q74 107 119 199z" />
    <glyph glyph-name="e" unicode="e" horiz-adv-x="618" 
d="M547 406q-123 -114 -346 -160q-15 -58 -15 -99q-3 -62 23 -75q37 -17 127 19.5t194 111.5q122 89 189 162q1 3 4.5 3t6.5 -2.5t3 -5.5q-7 -30 -49 -98t-92 -121q-93 -100 -180.5 -147t-147.5 -39q-45 6 -102 43t-82 82q-52 88 -14 268q41 198 172 350q88 104 178 101
q50 -3 121 -56q70 -52 92 -94q26 -40 3 -111.5t-85 -131.5zM342 541q-67 -85 -119 -219q45 21 86 49q128 90 168 174q55 110 21 110q-26 0 -71 -32.5t-85 -81.5z" />
    <glyph glyph-name="f" unicode="f" horiz-adv-x="454" 
d="M119 561q-11 17 -30 29.5t-35.5 19t-18.5 8.5t4 33.5t21.5 65t35.5 37.5q25 5 97 -17q124 343 241 527q18 18 74 -13q40 -24 57.5 -59t3.5 -59q-106 -168 -235 -453q73 -37 123 -37q52 0 82 10q23 9 26 0q0 -2 -4 -10q-12 -23 -45.5 -53t-60.5 -37q-76 -23 -181 -8
q87 -408 5 -914q-23 -137 -64.5 -229t-77.5 -92q-48 0 -121 33q-79 35 -118 73q-56 56 -56 191q0 131 49 317t93 301q9 22 135 336zM186 -240q68 402 21 623q-176 -476 -203 -764q-4 -42 0.5 -79t14.5 -59t21.5 -35t20.5 -13q10 -6 30.5 25t48 112t46.5 190z" />
    <glyph glyph-name="g" unicode="g" horiz-adv-x="581" 
d="M485 514q23 -12 41 -41q42 -60 21 -100q0 -7 -23.5 -24t-70.5 -47.5t-78 -53.5q-78 -58 -162 -139q92 12 135 -17q26 -19 56 -60t40 -77v-4q78 10 162 10q15 0 6 -24q-6 -21 -18 -21q-53 0 -141 -16q15 -176 -131 -396q-94 -140 -222 -215q-127 -71 -204 -71
q-83 0 -172 77q-89 80 -89 136q0 74 91.5 179.5t244.5 188.5q169 91 375 135q3 37 -4 64q-11 27 -51 28t-82 -13t-82.5 -29t-46.5 -15q-27 0 -47 33q-19 32 -19 76q0 14 54 74q49 54 114 110q-40 -9 -71 2q-25 11 -60 51q-39 42 -39 78q0 157 164 289q116 94 248 94
q67 0 104 -16q24 -10 52 -51q30 -51 32 -72q1 -6 1.5 -10.5t-0.5 -8t-2 -5.5t-3.5 -2t-5.5 1q-52 16 -135 13q-109 -3 -223 -105q-47 -41 -77 -92.5t-30 -79.5q14 -18 135 35q70 31 115 63q5 3 44 31t54 37zM227 -352q78 116 107 221q-147 -48 -248 -121
q-107 -78 -184.5 -160t-100.5 -129q-18 -41 -18 -59q0 -27 90 -6q166 41 297 184q38 44 57 70zM735 979q58 -21 58 -143q0 -11 -11 -14t-41 -3q-55 -6 -112 -47q-37 -27 -49 -27q-19 0 -19 33q0 79 62 150q60 69 112 51z" />
    <glyph glyph-name="h" unicode="h" horiz-adv-x="749" 
d="M350 1251q60 0 94 -30q50 -44 50 -80q0 -39 -43 -146q-264 -645 -299 -739q33 48 178 229q65 79 188 238q24 35 36.5 46t37.5 11q33 0 72 -26q41 -27 41 -56t-66 -155q-160 -300 -160 -426q0 -62 23 -62q20 0 74.5 45t111.5 107q88 95 123 147q4 11 8 2q4 -8 2 -12
q-3 -28 -37 -94q-36 -70 -71 -125q-120 -176 -193 -176q-44 0 -127 59q-83 62 -45 244q17 87 78 229q-23 -19 -160 -184q-91 -107 -176 -246q-7 -13 -17.5 -34t-16 -31.5t-9.5 -10.5q-34 0 -71 23.5t-37 52.5q0 28 98 301l231 670q61 186 64 192q11 35 18 37z" />
    <glyph glyph-name="i" unicode="i" horiz-adv-x="391" 
d="M6 156q0 130 141 471l72 147q17 6 54 -2t59 -29q30 -26 35 -43.5t-7 -54.5q-5 -15 -21 -48t-45.5 -91.5t-51.5 -104.5q-99 -205 -99 -288q0 -37 15 -37q20 0 75.5 43.5t112.5 101.5q85 92 109 131q4 4 8 2t2 -8q-25 -97 -88 -190q-124 -183 -193 -183q-44 0 -106 45
q-72 47 -72 138zM330 911q-4 1 -5 6.5t0 15t2.5 19t3 22t1.5 21.5q0 136 14 156q22 29 74 23q47 -5 82.5 -29t36.5 -53q1 -36 -33.5 -86t-69.5 -72q-56 -39 -106 -23z" />
    <glyph glyph-name="j" unicode="j" horiz-adv-x="350" 
d="M178 -90q22 -22 19 -53q-1 -10 -7.5 -14t-13.5 1q-72 35 -147 35q-84 -216 -170 -387q-69 -134 -154 -229q-83 -92 -141 -92q-66 0 -158 69q-92 71 -92 119q0 58 53 146t150 182q175 166 370 225q0 1 47 125q192 552 207 586q43 112 74 151q69 0 111 -31q23 -19 29.5 -53
t-7.5 -63q-130 -251 -246 -555l-51 -135q100 0 127 -27zM-496 -684q74 29 168 174q107 166 181 340q-132 -72 -265 -260q-93 -133 -96 -229q0 -28 12 -25zM317 909q-4 1 -5 6.5t0 15t2.5 19t3 22t1.5 21.5q0 135 15 156q22 28 74 22q47 -5 82 -28.5t36 -52.5q1 -36 -33 -86
t-69 -72q-57 -39 -107 -23z" />
    <glyph glyph-name="k" unicode="k" horiz-adv-x="696" 
d="M395 1319q41 0 88 -35t47 -76q0 -26 -26 -88q-29 -68 -103 -239q-68 -159 -153 -367q69 101 172 207q105 108 137 108t84 -61q49 -58 59 -102q8 -46 -15 -107t-77 -115q-52 -52 -121.5 -92t-121.5 -53q3 -85 26 -158q21 -78 41 -78q23 0 83 44t116 102q98 104 129 158
q2 4 6 4t8.5 -3.5t3.5 -7.5q-35 -105 -119 -225q-119 -174 -184 -174q-34 0 -87 18t-83 39q-44 35 -75 116t-37 173q-31 -68 -99 -268q-6 -12 -11 -30t-10.5 -23.5t-19.5 -5.5q-77 0 -106 51q28 150 207 663q48 143 106 297.5t95.5 244t39.5 83.5zM313 487
q-58 -58 -100 -137q47 15 84 33q123 63 199 168q70 102 55 117q-3 9 -43 -18t-95.5 -73t-99.5 -90z" />
    <glyph glyph-name="l" unicode="l" horiz-adv-x="473" 
d="M698 1233q0 -109 -75 -287q-74 -175 -193 -338q-116 -155 -211 -176q-69 -192 -72 -280q-6 -89 29 -89q26 0 83 36t120 98q160 149 172 170q4 4 10 1t4 -8q-68 -157 -180 -288q-112 -127 -182 -127q-39 0 -94 30q-58 36 -74 60q-29 43 -29 129q0 76 62 280
q68 223 159 447q60 150 126 275.5t106 179.5q34 46 47 51q35 14 100 -33q92 -71 92 -131zM567 1204q-182 -318 -321 -696q145 109 258 414q95 262 63 282z" />
    <glyph glyph-name="m" unicode="m" horiz-adv-x="1105" 
d="M631 250q-80 -109 -125 -250q0 -6 -4 -10q-10 -10 -49 -4q-57 10 -82 32q-18 15 -9 97q12 103 58 245l41 119q-48 -48 -162 -196q-141 -180 -203 -306q-12 -27 -102 35q-26 16 -17 49q66 277 134 463q61 166 110 254q0 3 19 -0.5t47 -14t47 -26.5q44 -36 35 -67
q-6 -17 -37 -78q-38 -78 -45 -94q-44 -95 -86 -207q-45 -109 -47 -113l288 404q136 194 160 211q51 -6 86 -21q63 -26 51 -70q0 -1 -8.5 -17t-22 -44t-30.5 -63.5t-38 -84t-40 -96.5q-36 -94 -55 -161q90 146 229 296q110 123 135 138q35 3 70 -15q70 -40 70 -77
q3 -3 -10 -29t-41.5 -80.5t-49.5 -99.5q-68 -149 -82 -252q-9 -60 6 -60q7 0 32 14t69.5 49t85.5 79q49 54 125 151q8 8 10 -2v-10q-24 -90 -107 -213q-113 -168 -194 -168q-35 0 -105 37q-59 35 -59 135q0 96 39 217l27 76q-79 -56 -164 -172z" />
    <glyph glyph-name="n" unicode="n" horiz-adv-x="800" 
d="M125 524q50 143 80 213q2 5 22 5.5t49.5 -7t49.5 -24.5q36 -29 36 -60q0 -23 -45 -121q-32 -62 -43 -92l-110 -260q232 318 303 404q25 30 78 96.5t59 73.5q23 26 27 28q48 0 80 -16q55 -30 55 -76q0 -7 -2.5 -15.5t-10 -24t-14 -27t-21.5 -39.5t-26 -47
q-35 -64 -67 -138q-78 -176 -78 -276q0 -51 18 -51q7 0 31.5 13.5t67.5 47t86 76.5q31 34 59 67.5t43.5 53.5t19.5 24q4 6 8.5 3t2.5 -9q-21 -90 -109 -221q-109 -160 -190 -160q-38 0 -103 41q-80 53 -80 146q0 74 41 208q25 78 41 117q-29 -29 -159 -194
q-203 -257 -220 -295q-12 -27 -102 35q-26 17 -16 49q71 248 139 452z" />
    <glyph glyph-name="o" unicode="o" horiz-adv-x="671" 
d="M465 510q-7 13 29.5 37t78.5 37.5t50 -0.5q4 -4 30 -60q27 -58 60 -67q63 -15 123 24q6 4 9 2t1 -10q0 -13 -8 -24q-95 -108 -215 -84q-27 -101 -119 -228q-132 -178 -250 -178q-37 0 -96 39q-68 46 -88 80q-53 84 -7 258q55 205 183 346q115 121 252 121q68 0 131 -72
q49 -55 43 -78q-4 -7 -13 -4q-107 34 -213 -31q-120 -73 -194 -219q-74 -145 -74 -254q0 -60 17 -77q9 -6 21 -7t31 10t39.5 28.5t45.5 48.5t49 71q83 139 92 227q3 31 -8 64z" />
    <glyph glyph-name="p" unicode="p" horiz-adv-x="716" 
d="M88 494q56 178 68 247q1 3 22.5 4t50.5 -3.5t45 -14.5q40 -21 37 -63q-3 -43 -80 -226l-110 -260l297 465q92 148 108 148q50 6 101 -27q26 -13 44.5 -40t18.5 -50q0 -34 -37 -146t-78 -196q-63 -131 -94 -166q89 22 178 67q103 50 146 93q4 4 8.5 3.5t7 -4t0.5 -6.5
q-29 -70 -145 -161q-67 -55 -156 -92q-120 -53 -125 -54q-60 -48 -76 -45q-31 6 -51 39q-21 41 -16 84q38 26 68.5 72t76.5 151q40 93 58 160q20 73 20 98q-9 -9 -180 -256q-149 -216 -217 -354q-43 -84 -103 -250q-62 -170 -69 -180q-12 -17 -40.5 -15t-53.5 21
q-38 28 -48 55q0 3 86 230q71 190 93 250q82 217 145 422z" />
    <glyph glyph-name="q" unicode="q" horiz-adv-x="679" 
d="M238 -504q-21 10 -32 18.5t-21.5 29.5t-10.5 53q0 78 125 395q44 111 47 117q15 34 57 137l25 61q-52 -101 -133 -227q-77 -115 -98 -115q-41 0 -84 24t-68 60q-44 65 -10 244q42 206 155 354q98 131 209 131q70 0 164 -98l25 65q2 3 13.5 4.5t31.5 -1.5t41 -11
q34 -13 44.5 -23t10.5 -32q0 -5 -78 -205q-14 -35 -37.5 -96.5t-33.5 -87.5q-3 -6 -8.5 -21t-17 -45.5t-22.5 -58.5q-34 -89 -49 -133q-3 -9 -17 -47t-24 -68q-38 -109 -43 -125q-45 -143 -61 -219q-14 -53 -19 -94q-42 -3 -81 14zM500 541l37 77q-40 19 -62 19
q-81 0 -184 -145t-133 -328q-15 -86 8 -86q7 0 37.5 33t78.5 95t97 134q83 124 121 201z" />
    <glyph glyph-name="r" unicode="r" horiz-adv-x="616" 
d="M526 274q-88 12 -116 48q-21 24 0 104q12 51 43 109q-71 -59 -240 -252q-48 -55 -107 -215q-26 -70 -32 -80q-12 -28 -103 35q-26 17 -16 49q71 248 139 452q66 192 82 228q2 5 22 5.5t49.5 -7.5t49.5 -25q37 -30 37 -59q0 -10 -37 -107q-22 -53 -53 -121l-39 -90
q83 115 198 252q88 108 166 158q18 11 51 12.5t58 -8.5q47 -27 47 -60q3 -10 -17.5 -45.5t-58.5 -97t-61 -110.5q-53 -119 -62 -175z" />
    <glyph glyph-name="s" unicode="s" horiz-adv-x="559" 
d="M219 489q-88 -31 -84 -20q100 112 150 233q20 86 51 121q70 0 117 -30q63 -43 10 -146q-14 -25 -14 -145q0 -67 14 -162q12 -102 12 -141q0 -128 -69 -191q-42 -37 -104.5 -55t-113.5 -10q-58 9 -135 69q-80 59 -86 117q-9 80 33 160q43 82 92 82q27 0 60.5 -20.5
t53 -43.5t15.5 -31q-1 -3 -11 -9.5t-25 -18.5t-25 -25q-51 -60 -51 -137q0 -39 16 -49q34 -21 113 10q75 29 75 103q0 33 -16 174q-19 138 -16 221q-15 -38 -62 -56z" />
    <glyph glyph-name="t" unicode="t" horiz-adv-x="417" 
d="M86 895q14 14 145 14l103 279q74 0 127 -47q55 -49 6 -150l-41 -86q130 0 188 4q10 -7 0.5 -30.5t-28.5 -44.5q-26 -34 -74 -46q-24 -8 -141 -8q-163 -370 -213 -577q-10 -39 -13.5 -67t-2 -41t7.5 -13q54 0 174 111q15 13 35 32.5t38 39.5t33.5 37.5t25.5 29.5l11 12
q6 6 13 2t3 -14q-50 -115 -143 -234q-106 -133 -176 -133q-18 0 -60.5 21.5t-70.5 42.5q-37 30 -37 96q0 87 65 297q58 180 125 362q-145 3 -149 11t16 47q18 41 33 53z" />
    <glyph glyph-name="u" unicode="u" horiz-adv-x="778" 
d="M209 754q35 0 98 -29q56 -27 53 -55q-1 -8 -12.5 -32t-39.5 -79t-50 -102q-29 -56 -78 -183q-43 -116 -43 -163q42 9 197 239q158 239 213 371l26 59q91 12 132 -32q39 -41 14 -95q-71 -138 -144 -321q-57 -146 -57 -211q0 -18 1.5 -28.5t6 -16t11 -6t18 5t25 14.5
t34.5 25q62 46 105 92q100 108 123 145q10 13 10 0v-6q-3 -26 -37 -96q-33 -67 -72 -125q-35 -52 -90 -107q-53 -53 -98 -53q-55 0 -102 41q-80 68 -80 150q0 84 35 184q-99 -182 -175 -289q-64 -88 -104 -88q-18 0 -54.5 20.5t-56.5 43.5q-29 32 -20 114q12 156 86 357
q95 256 125 256z" />
    <glyph glyph-name="v" unicode="v" horiz-adv-x="634" 
d="M512 356q-55 -112 -115 -198q-132 -191 -225 -191q-33 0 -78 25t-74 61q-32 38 -32 86q0 97 55 289q61 208 96 285q38 8 94 -19q58 -27 58 -78q0 -31 -21 -77q-87 -209 -102 -254q-36 -100 -47 -176q-3 -25 8 -25h2q39 0 101 47t122 125q39 50 95 141q-58 107 -58 193
q0 106 66 160q34 27 79 40t58 5q29 -23 29 -88q0 -119 -70 -256q27 -18 73 -7.5t83 43.5q35 30 71 91q6 12 15 -3q5 -8 2 -22q-30 -108 -115 -168q-81 -57 -170 -29z" />
    <glyph glyph-name="w" unicode="w" horiz-adv-x="1015" 
d="M901 356q-55 -112 -115 -198q-132 -191 -225 -191q-33 0 -77.5 25t-73.5 61q-33 39 -33 86q0 30 4 70q-55 -105 -113 -173.5t-94 -68.5h-2q-29 0 -88 41q-63 42 -72 68q-10 23 -10 67q0 114 57 314q48 172 97 280q30 8 86 -8q75 -24 75 -78q0 -21 -38 -104
q-50 -113 -91 -234q-43 -133 -43 -190q0 -25 9 -25h2q34 0 94 60q62 63 100 125q82 142 109 241q3 12 45 150q38 8 94 -19q50 -23 59 -61q9 -39 -18 -102q-23 -56 -42 -105t-29 -75l-11 -27q-36 -100 -47 -176q-3 -25 8 -25h2q39 0 101 47t122 125q39 50 95 141
q-58 107 -58 193q0 106 66 160q34 27 79 40t58 5q29 -23 29 -88q0 -119 -70 -256q27 -18 73 -7.5t83 43.5q35 30 71 91q6 12 15 -3q5 -8 2 -22q-30 -108 -115 -168q-81 -57 -170 -29z" />
    <glyph glyph-name="x" unicode="x" horiz-adv-x="610" 
d="M571 780q57 6 91 -28q44 -43 -3 -84q-132 -110 -276 -267q-73 -84 -78 -90q6 -91 21.5 -157t29.5 -68t71.5 36t113.5 89q20 18 54 54t56 59t21 20q8 0 8 -8q0 -14 -37 -78q-56 -90 -88 -131q-49 -64 -103 -109t-85 -45q-35 0 -95 31q-58 30 -73 70q-14 31 -25 69
q-102 -146 -131 -202q-7 -11 -30.5 6t-42.5 42.5t-13 35.5q62 99 193 254q0 3 -4 36t-5 56q-9 125 4 299q9 123 31 123q27 0 88 -25q38 -18 59 -42t17 -48q-27 -154 -33 -211q201 243 264 313z" />
    <glyph glyph-name="y" unicode="y" horiz-adv-x="694" 
d="M676 -92q0 -17 -47 -35q-49 -15 -70 -6q-88 49 -164 31q-125 -261 -200 -377q-71 -114 -172 -199q-104 -88 -181 -88q-60 0 -139 76q-79 79 -82 119q-5 40 33.5 103.5t109.5 129.5q81 76 232 162q150 86 260 115q119 234 199 477q-75 -124 -191 -264q-62 -75 -117 -127
q-62 -56 -79 -56q-21 0 -54.5 19t-56.5 45q-18 21 -18 65q0 3 9 25.5t32 81t45 117.5q41 108 75 219q33 123 39 178q51 10 104.5 -16t59.5 -64q10 -69 -90 -285q-68 -142 -107 -221q42 11 142 121q95 104 178 235q34 53 64 126t42 122l13 43q75 3 121 -37q35 -35 26 -90
q-10 -53 -55 -182q-121 -328 -211 -506q70 6 162 -16q88 -21 88 -41zM-219 -604q78 0 199 121q119 117 233 336q-100 -39 -212 -137.5t-200 -237.5q-12 -22 -20 -50.5t0 -31.5z" />
    <glyph glyph-name="z" unicode="z" horiz-adv-x="612" 
d="M137 772q3 0 21 -5t50.5 -13t63.5 -13q132 -21 273 0q3 0 24.5 18.5t30.5 18.5q15 0 55 -49q38 -53 35 -76q-3 -54 -194 -272l-193 -213q114 -38 170 -86q33 -27 60.5 -64.5t39 -61t11.5 -28.5q0 -8 -6 -10.5t-15.5 1t-19.5 13.5q-21 21 -36.5 34t-51 33.5t-84.5 39.5
q-79 31 -158 31q-48 -52 -104.5 -79t-75.5 -14q-16 13 -47 89q-28 75 -13 96q13 20 75.5 32.5t119.5 6.5q160 181 289 401q-126 -37 -205 -22q-58 9 -84 38q-15 16 -25.5 55t-10.5 66t5 33z" />
    <glyph glyph-name="braceleft" unicode="{" horiz-adv-x="630" 
d="M956 1296q-153 25 -196 25q-91 0 -148 -66t-59 -172q-3 -74 10 -165q12 -89 12 -117q0 -88 -69 -142q-71 -56 -113 -53q84 -66 84 -153q0 -90 -71 -211q-59 -97 -146 -213q-74 -100 -74 -131q0 -23 9 -31t34 -8q73 0 153.5 17t115.5 36q0 -47 -25 -97.5t-51 -64.5
q-32 -20 -103 -29q-67 -9 -98 13q-40 31 -102 96q-68 71 -68 107q0 51 30.5 106.5t76.5 101.5q121 121 168 220q40 83 6 165q-11 26 -39 38t-53 13l-25 1q-8 13 -8 63q-3 49 22 55q55 0 148 41q89 41 92 113q0 10 -6 111.5t-6 173.5q0 132 73 239q74 105 203 105
q63 0 122.5 -22.5t76.5 -53.5q28 -58 31 -100q0 -6 -2 -9t-5 -2z" />
    <glyph glyph-name="bar" unicode="|" horiz-adv-x="698" 
d="M152 -231q-33 0 -68 22t-35 47q0 42 236 678q228 618 290 770q25 65 39 82.5t43 17.5q55 0 113 -61q-150 -348 -346 -842q-219 -554 -272 -714z" />
    <glyph glyph-name="braceright" unicode="}" horiz-adv-x="630" 
d="M-205 -109q147 -24 197 -24q91 0 148.5 65.5t58.5 171.5q3 68 -11 168q-12 86 -12 115q0 84 72 141t110 54q-84 66 -84 153q0 90 74 211q66 112 146 215q71 95 71 129q0 23 -9 31t-34 8q-73 0 -152.5 -17t-115.5 -36q0 47 25 97.5t51 64.5q30 18 102 28q68 9 98 -12
q44 -35 103 -96q67 -70 67 -107q0 -51 -29.5 -106.5t-74.5 -100.5q-124 -124 -170 -221q-41 -83 -6 -166q11 -26 39 -37.5t53 -12.5l25 -1q7 -11 10 -63q0 -50 -25 -56q-55 0 -145 -41q-91 -40 -94 -112q0 -10 6 -111.5t6 -173.5q0 -130 -74 -239q-73 -105 -203 -105
q-63 0 -122 22.5t-76 53.5q-28 58 -31 100q0 13 6 10z" />
    <glyph glyph-name="asciitilde" unicode="~" horiz-adv-x="1058" 
d="M193 637q21 53 100 111q77 59 135 59q69 0 203 -57q55 -26 74 -33q61 -22 122 -2q32 12 59.5 26.5t39.5 22.5t14 8q7 -7 -27 -63q-39 -65 -112 -103q-47 -24 -94 -24q-49 0 -168 45q-125 43 -150 43q-85 0 -194 -74q-17 0 -2 41z" />
    <glyph glyph-name="uni00A0" unicode="&#xa0;" horiz-adv-x="409" 
 />
    <glyph glyph-name="exclamdown" unicode="&#xa1;" horiz-adv-x="432" 
d="M406 913q10 -23 10 -55q0 -95 -25 -131q-15 -21 -88 -12q-91 9 -94 65q-3 79 82 127q30 18 69.5 18.5t45.5 -12.5zM106 -430q-21 -9 -100 37q-80 47 -80 96q0 9 1 18t5 20.5t7.5 21t11.5 27t14 30.5t19 39.5t22 46.5q33 67 82 198q30 84 79 230t52 155q18 57 27 76
q11 21 32 34t34 12.5t18 -3.5q0 -120 -62 -454q-51 -286 -125 -502q-26 -75 -37 -82z" />
    <glyph glyph-name="cent" unicode="&#xa2;" horiz-adv-x="831" 
d="M623 1421q28 0 59 -28.5t31 -63.5q0 -21 -27 -98q76 -55 92 -78q47 -65 47 -154q0 -39 -53 -86q-54 -45 -119 -45q-53 0 -24 37q23 25 43 80t20 96q0 50 -28 86l-111 -293l-119 -313q116 9 195 172q4 11 37.5 -0.5t61.5 -34t20 -36.5q-114 -199 -295 -199q-24 0 -54 10
q-36 -90 -53 -121q-16 -22 -72 -10q-32 6 -32 23q0 4 2 6q14 34 57 149q-72 49 -96 86q-60 78 -60 189q0 115 38 225t100 178q100 109 237 109q11 0 55 -13q44 127 48 127zM285 713q0 -82 41 -123l161 448q25 73 52 146q-44 -15 -84 -58q-170 -179 -170 -413z" />
    <glyph glyph-name="sterling" unicode="&#xa3;" horiz-adv-x="960" 
d="M195 446q6 3 77 3v8q0 48 -6 153t-6 135q0 121 23 201.5t84 163.5q123 166 325 166q86 0 172.5 -51t141.5 -131q80 -122 22 -318q-59 -170 -203 -217q-38 -3 -92 19q-51 20 -51 51q99 35 156 151q58 116 43 250q-8 58 -27.5 94.5t-44.5 36.5q-133 0 -252 -104
q-74 -63 -117 -156q-41 -93 -47 -147q-6 -59 -6 -136q0 -82 -10 -174q31 -2 135 -2q41 0 94.5 4t74.5 3.5t21 -9.5q0 -18 -40 -61q-43 -43 -89 -49q-42 -7 -223 -4q-35 -112 -110 -205q62 16 202 16q120 0 254 -16q99 -12 99 -25q0 -26 -37 -78q-39 -53 -78 -53
q-12 0 -141 21q-115 21 -238 18q-73 -3 -176 -31q-46 -13 -72 33q-31 45 -28 80q66 30 108 70q76 73 115 174q-82 6 -92 16q-12 15 6 55q14 37 33 45z" />
    <glyph glyph-name="currency" unicode="&#xa4;" horiz-adv-x="1705" 
d="M219 1145q3 23 45 49q44 29 76 29q35 0 88 -47q54 -51 72 -103q112 74 233 74q59 0 105 -17q31 -8 75 -49q43 -40 43 -53q-2 -2 -3.5 -2.5t-3 -1.5t-3.5 -1h-4t-6 0.5t-7.5 1t-11 1.5t-14.5 2q-46 4 -63 4q-201 0 -324 -153q-126 -156 -129 -355q-1 -121 51.5 -186.5
t149.5 -65.5q131 0 233 99q-9 37 13 37h20q117 141 117 319q0 140 -68 205q-8 8 -29 22q-11 7 -4 7q8 8 62 2q50 -6 88 -33q96 -72 96 -221q0 -196 -123 -340q12 -8 23 -27q13 -29 33 -56.5t39 -46t36.5 -33t28 -22t10.5 -8.5q0 -5 -15.5 -12t-43 -11.5t-53.5 -0.5
q-38 4 -91 37.5t-88 74.5q-103 -59 -219 -59q-157 0 -270 125q8 -24 8 -45q0 -39 -90 -80q-93 -41 -135 -41q-28 0 -70 22q-41 21 -41 33q-2 3 5 6t24 9.5t38.5 16.5t52.5 30t61 45q20 17 35 36t21 31.5t12 20.5t11 8q2 0 4 -2q-46 91 -43 188q6 229 130 377q-45 61 -78 86
q-21 15 -52.5 30t-46 24.5t-10.5 19.5zM1153 1229q34 0 82 -39q47 -41 47 -82q0 -45 -59 -98q-62 -53 -129 -56q-27 -1 -66.5 7.5t-46.5 15.5q-1 1 2.5 4t12 8t18.5 11t24 16t27 20q78 72 78 142q0 4 -1 11.5t-1.5 13.5t0 12.5t3.5 10t9 3.5z" />
    <glyph glyph-name="yen" unicode="&#xa5;" horiz-adv-x="1181" 
d="M115 301q0 2 22.5 2t67 -1t71.5 -1h72q53 123 66 162h-4q-252 0 -252 10q0 21 16 60t29 45q16 8 170 8q56 0 76 -2v2q0 181 -60 379q-14 45 -41 103t-43.5 94t-13.5 46q0 53 57 90q56 35 92 35q19 0 43.5 -53t42.5 -127q71 -302 54 -532q181 202 272 397q56 122 92 268
q10 29 23 29q29 0 65.5 -22t36.5 -50q0 -70 -70 -201q-97 -184 -354 -464q227 -9 227 -19q0 -21 -12.5 -50.5t-28.5 -39.5q-19 -11 -264 -8l-61 -154l-4 -8q278 -9 278 -16q0 -81 -26 -95q-21 -12 -303 -12q-99 -225 -117 -225q-24 0 -66 22q-41 21 -41 62q-2 3 7.5 21.5
t28.5 55t32 66.5q-97 0 -152 -2q-78 -3 -82 8q-5 24 17 70q21 41 37 47z" />
    <glyph glyph-name="brokenbar" unicode="&#xa6;" horiz-adv-x="698" 
d="M510 727q-24 -35 -70 -8q-43 22 -53 55q13 33 42 113t46 123q14 38 37 100t31 86l32 90q25 65 39 82.5t43 17.5q55 0 113 -61q-62 -117 -156 -348q-95 -235 -104 -250zM262 440q41 4 79 -21.5t38 -51.5q0 -23 -29 -99q-56 -141 -143 -354q-41 -95 -55 -145q-33 0 -68 22
t-35 47q0 26 96 285q54 146 117 317z" />
    <glyph glyph-name="section" unicode="&#xa7;" horiz-adv-x="1130" 
d="M276 2q0 -7 -26 -78q-27 -70 -27 -106q0 -75 39 -84q114 -34 234 18q120 56 120 185q0 35 -18 69t-39 51l-86 62q-15 12 -24 18q-118 84 -167 151t-49 142q0 80 50 140t116 79q67 16 117 10q-137 131 -137 254q0 158 98 252q100 95 236 95q57 0 176 -64q116 -62 153 -106
q48 -57 48 -150q0 -74 -60 -162q-58 -88 -117 -88q-26 0 -63 23.5t-37 40.5l11 12q11 13 26.5 34.5t31.5 49t27 65.5t11 76q0 41 -16 78t-36 41q-102 21 -215 -61q-116 -82 -116 -215q0 -65 31 -109.5t120 -108.5q133 -93 182.5 -151t49.5 -125q0 -93 -50 -152
q-54 -60 -88 -71q-68 -22 -157 -11q77 -72 105 -115t28 -95q0 -146 -88 -240t-219 -100q-65 -3 -172 61q-108 63 -166 127q-62 65 -62 117q0 65 88 159q89 95 119 95q6 0 12 -45q6 -47 6 -68zM582 600l-35 29q-22 -12 -36 -22t-36.5 -36.5t-42.5 -64.5q-33 -62 -33 -137
q0 -25 35 -68t137 -141l25 -23q25 23 38 35t37 42.5t46 68.5q35 62 35 116q0 57 -170 201z" />
    <glyph glyph-name="dieresis" unicode="&#xa8;" horiz-adv-x="854" 
d="M182 891q-8 31 -8 47q0 91 14 123q21 43 76 37q87 -9 90 -68q2 -38 -19.5 -77t-55.5 -56q-25 -17 -58.5 -18t-38.5 12zM457 891q-8 31 -8 47q0 121 8 129q12 19 75 10q42 -5 71 -21.5t30 -39.5q1 -35 -21 -68.5t-59 -50.5q-25 -17 -58 -18t-38 12z" />
    <glyph glyph-name="copyright" unicode="&#xa9;" horiz-adv-x="1359" 
d="M950 764q0 -77 -18.5 -115t-61.5 -39q-38 0 -81.5 24.5t-43.5 39.5q0 16 19 16q51 0 51 105q0 43 -16 43q-73 0 -140 -82q-57 -62 -92 -149t-35 -171q0 -104 74 -104q61 0 150 65q21 18 40.5 37.5l28 28t11.5 8.5q19 0 34 -53q15 -52 -2 -76q-66 -63 -136 -84.5t-141 3
t-134 95.5q-46 46 -49 154q-2 77 29 171t83 159q98 125 211 125q51 0 105 -35.5t88 -79.5q26 -26 26 -86zM1059 1151q-10 -3 -11 -3t-21 5.5t-42 9.5q-41 8 -90 8q-295 0 -475 -204q-182 -206 -182 -490q0 -189 106 -301q104 -113 256 -113q163 0 289 99q123 92 186 237
q62 142 62 295q0 190 -117 289q-49 43 -49 47l8 2q78 21 174 -45q133 -106 133 -307q4 -130 -41.5 -257t-126 -226t-199.5 -159t-253 -58q-217 0 -387 167q-173 170 -170 394q6 313 204 542q86 98 204.5 152.5t236.5 54.5q77 0 145 -22q48 -15 105 -56q55 -40 55 -61z" />
    <glyph glyph-name="ordfeminine" unicode="&#xaa;" horiz-adv-x="600" 
d="M209 1104q-10 37 24 88q59 92 160 92q57 0 133 -61q78 -63 78 -115q0 -56 -24 -188q-18 -96 -35 -175q-11 -44 -58 -65q-58 -27 -81 -14q0 2 16 84q-82 -99 -158 -99q-31 0 -82 54q-49 52 -49 90q0 47 49 102.5t121 79.5q76 24 164 24q0 3 4 31q13 94 10 134t-26 40
q-61 0 -107 -88q-8 -15 -13 -28.5t-7.5 -22t-3 -16t0 -11t0.5 -6t-0.5 -3.5t-2.5 -1q-12 0 -60 23q-44 20 -53 51zM449 887l4 33q-48 -12 -91 -31q-47 -24 -77.5 -58.5t-38.5 -56.5t-4 -24q46 -22 116 22q30 21 58 53.5t33 61.5z" />
    <glyph glyph-name="guillemotleft" unicode="&#xab;" horiz-adv-x="1204" 
d="M477 217q-49 0 -166 123q-147 169 -147 188q0 12 18 44t37 44q38 28 199 107q178 90 211 90q32 0 47.5 -5.5t13.5 -16.5q-4 -12 -155 -99q-137 -79 -228 -143q20 -53 119 -152q34 -34 123 -110q0 -20 -24 -45t-48 -25zM836 217q-49 0 -166 123q-148 168 -148 188
q0 12 18.5 44t37.5 44q40 29 198 107q178 90 211 90q65 0 62 -22q-3 -9 -156 -99q-132 -76 -227 -143q19 -47 116 -152q59 -64 125 -110q0 -20 -23.5 -45t-47.5 -25z" />
    <glyph glyph-name="logicalnot" unicode="&#xac;" horiz-adv-x="1144" 
d="M152 635q22 5 112 8q16 1 45.5 2t42.5 2q114 4 393 -2q297 -9 297 -18q0 -23 -59 -168q-20 -52 -36 -92.5t-26 -63.5t-16.5 -37t-9 -18t-2.5 -2q0 -1 -1 -5t-1 -5q-33 0 -68 22t-35 47q0 31 60 199q-41 -1 -336 4q-63 2 -113 2q-26 0 -254 -8q-43 -3 -43 0q0 21 19 76
q14 50 31 57z" />
    <glyph glyph-name="uni00AD" unicode="&#xad;" horiz-adv-x="636" 
d="M137 416q18 49 33 55t190 6h244q-4 -31 -34.5 -68t-61.5 -51q-40 -18 -154 -18q-237 0 -237 4q0 22 20 72z" />
    <glyph glyph-name="registered" unicode="&#xae;" horiz-adv-x="720" 
d="M553 1477q0 -4 -84 -4q-135 0 -227 -103t-92 -248q0 -98 47 -151q43 -29 122 -29q117 0 199 94t82 211q0 94 -55 152q-10 10 -24 20t-20.5 14.5t-4.5 6.5q15 9 61 -15q52 -25 88.5 -77t36.5 -105q0 -143 -96 -250q-97 -106 -234 -106q-98 0 -184 80q-88 79 -88 180
q0 187 125 303q104 96 233 96q36 0 58 -14q16 -9 36.5 -27t20.5 -28zM285 1343q20 20 73 23q83 3 117 -37q47 -56 47 -74q0 -30 -30 -57q-18 -18 -91 -41q3 -24 35 -49q14 -14 47 -21q0 -9 -25.5 -35t-37.5 -26q-43 0 -70 64q-18 49 -18 67v8q-5 -11 -10 -32l-19 -99
q-16 -1 -36 7t-27 16q-9 9 6 71q16 61 45 136l12 30q-12 -2 -45 -14q-2 0 2 14t11.5 29.5t13.5 19.5zM395 1305h-10l-10 -21q-10 -22 -20.5 -48t-16.5 -48q4 0 22 6q51 15 74 49q22 28 19 47q-15 15 -58 15z" />
    <glyph glyph-name="overscore" unicode="&#xaf;" horiz-adv-x="1028" 
d="M285 1010q41 0 98 -2q30 -1 84 -3.5t76 -3.5h213h43q24 0 -47 -65q-29 -26 -47 -37q-49 -22 -261 -22q-167 0 -194 30q-15 15 4 60q15 43 31 43z" />
    <glyph glyph-name="degree" unicode="&#xb0;" horiz-adv-x="757" 
d="M305 1235q40 40 66 37q20 -2 52 -27.5t32 -44.5q0 -7 -11.5 -18.5t-36 -37t-45.5 -57.5q-51 -67 -78.5 -146t-17.5 -126q5 -15 45.5 -7.5t73.5 36.5q113 98 113 233q0 33 -19 49q-16 13 -16 19q0 9 24 6q45 -5 88 -43t43 -74q0 -102 -92 -217q-94 -117 -168 -117
q-55 0 -133 66q-75 63 -75 108q0 87 42.5 189t112.5 172z" />
    <glyph glyph-name="plusminus" unicode="&#xb1;" horiz-adv-x="903" 
d="M496 961q46 0 84 -19.5t38 -48.5q0 -50 -67 -242l-2 -2v-2q309 0 309 -12q0 -18 -16.5 -51t-32.5 -43q-22 -16 -303 -19q-80 -218 -121 -284q-9 -16 -38 -22t-54 -2t-25 13q0 2 49 142q5 16 15.5 46.5t19 56.5t15.5 50h-15q-272 0 -272 15q0 28 9.5 64t21.5 42
q15 6 190 6h107q75 237 88 312zM6 109q16 8 168 8q535 0 535 -15q0 -79 -27 -94q-22 -14 -483 -14q-262 0 -262 6q0 19 26 61q28 42 43 48z" />
    <glyph glyph-name="uni00B2" unicode="&#xb2;" horiz-adv-x="559" 
d="M125 1106q-15 44 25 111q26 53 85.5 94t122.5 41t156 -72q92 -74 92 -139q0 -110 -112 -219q-109 -109 -267 -199q142 39 281 39q16 0 25.5 -3t10 -7.5t-0.5 -8.5v-2q0 -15 -27 -73q-27 -62 -43 -62q-2 0 -12.5 0.5t-32 1.5t-45.5 2q-55 2 -154 2q-26 0 -51.5 -0.5
t-37.5 -1t-23 -0.5t-16 2t-9 6q-26 26 -35 74t6 51q31 11 154 107q108 84 170 168q39 55 57.5 113t14 93.5t-26.5 35.5q-74 0 -129 -107q-20 -36 -30 -68.5t-11.5 -45.5t-5.5 -13q-18 0 -72 23q-50 21 -59 57z" />
    <glyph glyph-name="uni00B3" unicode="&#xb3;" horiz-adv-x="583" 
d="M131 1149q0 64 59 129q67 76 185 76q75 0 155 -68t80 -123q0 -94 -61 -149q-66 -57 -125 -74q115 -27 115 -127q0 -98 -84 -164q-86 -65 -174 -65q-49 0 -152 63q-104 64 -104 92q0 24 47 92t61 68q8 0 29 -111q17 -110 35 -114q70 -12 127 51q57 60 57 117q0 31 -14 39
q-5 4 -43 3.5t-43 2.5q-13 8 -24 49.5t-1 64.5q56 0 108 33t80 92q27 53 30.5 91.5t-21.5 44.5q-76 0 -129 -62q-54 -63 -54 -119q0 -32 -82 17q-57 34 -57 51z" />
    <glyph glyph-name="acute" unicode="&#xb4;" horiz-adv-x="948" 
d="M676 1120q0 -70 -117 -159q-119 -86 -190 -89q-24 -3 -33 15q-10 14 10 28q85 82 131 170q17 32 30.5 63t19.5 47t8 19q5 7 39.5 -4t68 -36t33.5 -54z" />
    <glyph glyph-name="mu" unicode="&#xb5;" horiz-adv-x="815" 
d="M178 625l64 133q47 0 91 -28t44 -68q0 -32 -31 -89q-63 -115 -110 -225q-28 -63 -54 -149q-21 -73 -6 -82q86 68 211 260q124 192 188 344l27 59q90 12 131 -32q39 -42 15 -95q-71 -138 -144 -321q-57 -146 -57 -211q0 -18 1.5 -28.5t6 -16t11 -6t18 5t25 14.5t34.5 25
q62 46 105 92q97 105 122 145q4 6 7.5 6t3.5 -6v-6q-3 -26 -37 -96q-33 -67 -72 -125q-35 -52 -90 -107q-53 -53 -98 -53q-56 0 -103 41q-80 68 -80 150q0 84 35 184q-124 -227 -188 -297q-66 -72 -103 -72q-15 0 -53 23q-80 -241 -123 -512q-49 -3 -88 14q-59 27 -59 105
q0 105 112 422q87 255 244 602z" />
    <glyph glyph-name="paragraph" unicode="&#xb6;" horiz-adv-x="1357" 
d="M786 -408q-19 0 -77 25q-60 28 -60 88q0 74 53 275q52 196 123 395q29 84 138 370q123 331 135 361q-185 7 -262 8q-17 -29 -19 -35q-144 -290 -262 -635q-124 -358 -158 -589q-8 -60 -10 -97q-3 -30 -12 -30q-26 0 -82 36q-57 39 -57 84q0 95 126 476q54 148 119 311
q-267 49 -270 194q-1 119 61.5 217t165.5 156q73 44 228 66h4q150 12 391 12q387 0 387 -29q0 -35 -33 -82q-35 -51 -65 -61q-18 -6 -99 -6q-155 -370 -250 -658q-49 -147 -120 -411q-71 -266 -80 -330q-6 -34 -7.5 -63.5t-2 -38.5t-5.5 -9z" />
    <glyph glyph-name="middot" unicode="&#xb7;" horiz-adv-x="573" 
d="M211 440q-16 3 -16 64q0 121 20 147q16 22 88 13q95 -9 98 -64q1 -37 -24.5 -76t-59.5 -61q-56 -39 -106 -23z" />
    <glyph glyph-name="cedilla" unicode="&#xb8;" horiz-adv-x="608" 
d="M330 20q8 1 3 -10q-2 -4 -7 -15q-23 -45 -23 -71q0 -11 64 -51q63 -40 75 -80q35 -96 -73 -172q-62 -44 -144 -53q-84 -9 -106 10q-74 27 -74 72q0 30 59 86q50 47 50 12q0 -127 34 -127q45 0 85 41.5t40 81.5q0 31 -73 68q-76 40 -76 49q0 39 63 96q66 63 103 63z" />
    <glyph glyph-name="uni00B9" unicode="&#xb9;" horiz-adv-x="407" 
d="M352 1364q13 0 66 -41q49 -43 49 -57q0 -8 -61 -179q-38 -111 -58 -180q-38 -144 -72 -297q-8 -11 -40.5 -6.5t-59.5 17.5q-45 20 -45 67q0 63 62 240q63 180 104 252q-24 -30 -107 -95t-124 -65q-34 0 -74 43q-29 34 -17 43q254 130 340 219q8 5 19 22t18 17z" />
    <glyph glyph-name="ordmasculine" unicode="&#xba;" horiz-adv-x="729" 
d="M274 1231q58 55 113 55q38 0 100 -41q35 -25 19 -31q-102 -48 -158 -127q-50 -65 -84 -169t-28 -154q38 -18 110 57q45 47 82 112t37 105q0 8 -18.5 33.5t-18.5 28.5q0 9 15 25t36 26q41 16 60 8q13 -5 63 -86q19 -29 46 -36t51 -2.5t28 1.5q15 -9 -22 -34q-4 -2 -9 -5
q-76 -44 -137 -16q-41 -139 -117 -227q-80 -92 -133 -92q-59 0 -127 59q-69 57 -69 110q0 87 47 211q49 127 114 189z" />
    <glyph glyph-name="guillemotright" unicode="&#xbb;" horiz-adv-x="1280" 
d="M733 813q47 0 162 -121q145 -165 145 -184q0 -12 -18 -44t-37 -44q-55 -34 -194 -105q-175 -88 -207 -88q-65 0 -62 23q0 7 154 96q142 81 223 141q-23 56 -117 150q-37 37 -120 108q0 19 24 43.5t47 24.5zM381 813q47 0 162 -121q46 -49 98 -114q47 -62 47 -70
q0 -12 -18 -44t-37 -44q-50 -31 -195 -105q-175 -88 -207 -88t-47.5 6t-13.5 17q4 7 154 96q142 81 223 141q-21 53 -115 150q-64 65 -123 108q0 19 24.5 43.5t47.5 24.5z" />
    <glyph glyph-name="onequarter" unicode="&#xbc;" horiz-adv-x="1183" 
d="M1049 1425q4 -1 10.5 -2.5t23.5 -10t30 -20t23.5 -33t10.5 -48.5q0 -41 -82 -156q-61 -84 -86 -117q-11 -14 -54.5 -69t-76.5 -97q-28 -36 -79.5 -100.5t-72.5 -91.5q-13 -17 -46.5 -61t-66.5 -87.5t-67 -87.5q-39 -51 -99 -129t-81 -106q-28 -37 -141 -182
q-143 -183 -166 -183q-19 0 -40.5 33t-21.5 55q0 15 90 134q49 68 111 147q15 19 73 95t101 132q97 125 227 303q422 570 480 682zM1006 436q24 0 61 -37q37 -40 31 -61q-32 -99 -88 -240q-65 -157 -78 -170q-40 0 -88 25q-39 17 -39 49q0 9 49 100h-23q-18 0 -43.5 -1
t-49.5 -2t-45.5 -2t-35.5 -2l-14 -1q-14 0 -47 39q-33 36 -33 57q0 11 58 91q47 68 75 112q48 74 146 252q18 35 22 35q24 -3 62 -23q39 -20 39 -39q0 -42 -117 -253q-44 -84 -90 -148l-13 -18q85 11 164 16q10 13 17 35q13 27 36.5 89.5t28.5 74.5q9 22 15 22zM391 1327
q11 0 64 -41q49 -43 49 -57q0 -10 -60 -178q-23 -59 -59 -181q-57 -198 -70 -297q-9 -11 -41.5 -7.5t-60.5 16.5q-43 24 -43 69q0 66 61 240q57 171 103 252q-24 -30 -105 -94q-87 -66 -127 -66q-23 0 -48 19t-37.5 40t-4.5 27q255 129 342 219q5 5 12 15.5t13 17t12 6.5z
" />
    <glyph glyph-name="onehalf" unicode="&#xbd;" horiz-adv-x="1224" 
d="M694 438q-3 43 35 107q33 59 93.5 101t123.5 42q67 0 152 -70q86 -71 86 -137q0 -110 -119 -229q-124 -124 -260 -189q125 25 252 25q63 0 71 -15t-15 -59q-5 -10 -7 -16q-24 -53 -55 -53q-2 0 -12.5 0.5t-32 1.5t-45.5 2q-110 4 -154 4q-26 0 -51 -1t-37 -1.5t-23 -0.5
t-16.5 1.5t-9.5 5.5q-29 29 -43 69t-4 50q35 13 172 119q128 101 186 180q38 54 52 107.5t5 84.5t-30 31q-33 0 -73.5 -32.5t-64.5 -80.5q-20 -36 -30.5 -71.5t-12.5 -51.5t-6 -16q-17 0 -67 33q-57 36 -60 59zM391 1327q11 0 64 -41q49 -43 49 -57q0 -10 -60 -178
q-23 -59 -59 -181q-57 -198 -70 -297q-9 -11 -41.5 -7.5t-60.5 16.5q-43 24 -43 69q0 66 61 240q57 171 103 252q-24 -30 -105 -94q-87 -66 -127 -66q-23 0 -48 19t-37.5 40t-4.5 27q255 129 342 219q5 5 12 15.5t13 17t12 6.5zM1049 1425q4 -1 10.5 -2.5t23.5 -10t30 -20
t23.5 -33t10.5 -48.5q0 -41 -82 -156q-61 -84 -86 -117q-11 -14 -54.5 -69t-76.5 -97q-28 -36 -79.5 -100.5t-72.5 -91.5q-13 -17 -46.5 -61t-66.5 -87.5t-67 -87.5q-39 -51 -99 -129t-81 -106q-28 -37 -141 -182q-143 -183 -166 -183q-19 0 -40.5 33t-21.5 55q0 15 90 134
q49 68 111 147q15 19 73 95t101 132q97 125 227 303q422 570 480 682z" />
    <glyph glyph-name="threequarters" unicode="&#xbe;" horiz-adv-x="1230" 
d="M715 479q0 -18 65 -53q68 -35 68 -6q0 57 55 115q54 57 133 57q26 0 28.5 -44t-22.5 -91q-30 -60 -87.5 -96.5t-114.5 -36.5q-12 -17 4 -56q14 -34 28 -45q5 -3 39 -5.5t39 -6.5q23 -16 23 -47q0 -59 -55 -111q-58 -55 -140 -43q-16 3 -28 96q-15 93 -23 93
q-13 0 -63 -62q-52 -61 -52 -84q0 -28 103 -84q101 -55 149 -55q87 0 174 66q84 69 84 165q0 73 -114 125q22 5 50.5 20.5t60.5 41.5t53.5 69t21.5 93q0 52 -78 124q-80 68 -158 68q-101 0 -176 -84q-67 -73 -67 -123zM391 1327q11 0 64 -41q49 -43 49 -57q0 -10 -60 -178
q-23 -59 -59 -181q-57 -198 -70 -297q-9 -11 -41.5 -7.5t-60.5 16.5q-43 24 -43 69q0 66 61 240q57 171 103 252q-24 -30 -105 -94q-87 -66 -127 -66q-23 0 -48 19t-37.5 40t-4.5 27q255 129 342 219q5 5 12 15.5t13 17t12 6.5zM1049 1425q4 -1 10.5 -2.5t23.5 -10t30 -20
t23.5 -33t10.5 -48.5q0 -41 -82 -156q-61 -84 -86 -117q-11 -14 -54.5 -69t-76.5 -97q-28 -36 -79.5 -100.5t-72.5 -91.5q-13 -17 -46.5 -61t-66.5 -87.5t-67 -87.5q-39 -51 -99 -129t-81 -106q-28 -37 -141 -182q-143 -183 -166 -183q-19 0 -40.5 33t-21.5 55q0 15 90 134
q49 68 111 147q15 19 73 95t101 132q97 125 227 303q422 570 480 682z" />
    <glyph glyph-name="questiondown" unicode="&#xbf;" horiz-adv-x="763" 
d="M481 -29q20 11 54.5 12t66.5 -12q60 -31 60 -90q0 -37 -25 -92.5t-62 -95.5q-68 -72 -136.5 -102.5t-164.5 -30.5q-107 0 -223 116q-119 116 -119 185q0 190 146 336t330 170q9 51 43 120q36 74 57 95q76 79 100 51q-23 -96 -35 -174q-3 -14 -10 -67.5t-10 -67.5
q-7 -23 -12 -23q-180 -9 -310 -160q-131 -149 -131 -331q0 -78 28.5 -112t86.5 -34q123 0 195 90q71 89 71 217zM686 913q10 -23 10 -55q0 -97 -24 -131q-15 -21 -88 -12q-92 9 -95 65q-3 79 82 127q30 18 69.5 18.5t45.5 -12.5z" />
    <glyph glyph-name="Agrave" unicode="&#xc0;" horiz-adv-x="1206" 
d="M33 -119q41 81 360 533q-9 -3 -35.5 -11t-49 -14.5t-32.5 -9.5q-14 -5 -43 -12q-50 -11 -71 -9q-58 3 -105 62q-47 56 -47 88q0 30 55.5 50t145.5 20q130 0 262 -33l16 4l29 37q165 227 356 461q187 233 234 270q65 0 123 -49q57 -48 57 -97q0 -19 -16 -65
q-3 -8 -23 -64.5t-37 -105.5q-43 -127 -90 -311v-2q10 2 43 2q13 0 54 -23q36 -20 36 -37q0 -6 -6 -9.5t-21 -6.5t-30.5 -5t-45.5 -5.5t-54 -6.5q-75 -314 -88 -485q-6 -60 -9 -63q-10 -8 -36.5 -7t-64 18t-58.5 42q-1 1 -9 35.5t-26.5 89t-44.5 98.5q-83 141 -203 191
q-70 -113 -303 -521q-52 -94 -119 -94q-47 0 -104 45zM682 635l-45 -66q40 4 135 19q104 13 182 22q63 315 111 490q-63 -56 -162 -174q-108 -129 -221 -291zM895 223q17 156 41 289q-32 -3 -221 -29l-60 -10q78 -49 146.5 -122.5t93.5 -127.5zM1053 1659q22 35 70 51.5
t73 9.5q2 1 4 -2t2.5 -10t1 -15.5t0.5 -21t0.5 -24.5t1 -27.5t2.5 -28.5q4 -25 21 -54.5t34.5 -50t33 -37t16.5 -17.5q5 -6 -3 -14.5t-20 -8.5q-26 0 -100 23q-67 21 -109 63q-81 81 -28 164z" />
    <glyph glyph-name="Aacute" unicode="&#xc1;" horiz-adv-x="1206" 
d="M33 -119q41 81 360 533q-9 -3 -35.5 -11t-49 -14.5t-32.5 -9.5q-14 -5 -43 -12q-50 -11 -71 -9q-58 3 -105 62q-47 56 -47 88q0 30 55.5 50t145.5 20q130 0 262 -33l16 4l29 37q165 227 356 461q187 233 234 270q65 0 123 -49q57 -48 57 -97q0 -19 -16 -65
q-3 -8 -23 -64.5t-37 -105.5q-43 -127 -90 -311v-2q10 2 43 2q13 0 54 -23q36 -20 36 -37q0 -6 -6 -9.5t-21 -6.5t-30.5 -5t-45.5 -5.5t-54 -6.5q-75 -314 -88 -485q-6 -60 -9 -63q-10 -8 -36.5 -7t-64 18t-58.5 42q-1 1 -9 35.5t-26.5 89t-44.5 98.5q-83 141 -203 191
q-70 -113 -303 -521q-52 -94 -119 -94q-47 0 -104 45zM682 635l-45 -66q40 4 135 19q104 13 182 22q63 315 111 490q-63 -56 -162 -174q-108 -129 -221 -291zM895 223q17 156 41 289q-32 -3 -221 -29l-60 -10q78 -49 146.5 -122.5t93.5 -127.5zM1454 1606q-3 -80 -137 -144
q-107 -52 -189 -43q-28 3 -32 15q-10 14 10 28q56 40 74 54q50 43 77 83q48 72 60 107q5 5 38.5 -9t66 -40t32.5 -51z" />
    <glyph glyph-name="Acircumflex" unicode="&#xc2;" horiz-adv-x="1206" 
d="M33 -119q41 81 360 533q-9 -3 -35.5 -11t-49 -14.5t-32.5 -9.5q-14 -5 -43 -12q-50 -11 -71 -9q-58 3 -105 62q-47 56 -47 88q0 30 55.5 50t145.5 20q130 0 262 -33l16 4l29 37q165 227 356 461q187 233 234 270q65 0 123 -49q57 -48 57 -97q0 -19 -16 -65
q-3 -8 -23 -64.5t-37 -105.5q-43 -127 -90 -311v-2q10 2 43 2q13 0 54 -23q36 -20 36 -37q0 -6 -6 -9.5t-21 -6.5t-30.5 -5t-45.5 -5.5t-54 -6.5q-75 -314 -88 -485q-6 -60 -9 -63q-10 -8 -36.5 -7t-64 18t-58.5 42q-1 1 -9 35.5t-26.5 89t-44.5 98.5q-83 141 -203 191
q-70 -113 -303 -521q-52 -94 -119 -94q-47 0 -104 45zM682 635l-45 -66q40 4 135 19q104 13 182 22q63 315 111 490q-63 -56 -162 -174q-108 -129 -221 -291zM895 223q17 156 41 289q-32 -3 -221 -29l-60 -10q78 -49 146.5 -122.5t93.5 -127.5zM1075 1550q93 94 137 152
q40 3 107 -16q60 -18 80 -44q4 -2 7.5 -10.5t6.5 -24t5.5 -29t6 -36.5t5.5 -35q8 -39 18.5 -73.5t16 -49t3.5 -16.5q-4 -6 -25.5 0.5t-35.5 17.5q-26 19 -55 82q-29 61 -41 99q-86 -102 -127 -139t-86 -50q-38 -7 -77 -0.5t-66.5 22.5t-18.5 27q3 4 26 23t56 47.5t57 52.5z
" />
    <glyph glyph-name="Atilde" unicode="&#xc3;" horiz-adv-x="1206" 
d="M33 -119q41 81 360 533q-9 -3 -35.5 -11t-49 -14.5t-32.5 -9.5q-14 -5 -43 -12q-50 -11 -71 -9q-58 3 -105 62q-47 56 -47 88q0 30 55.5 50t145.5 20q130 0 262 -33l16 4l29 37q165 227 356 461q187 233 234 270q65 0 123 -49q57 -48 57 -97q0 -19 -16 -65
q-3 -8 -23 -64.5t-37 -105.5q-43 -127 -90 -311v-2q10 2 43 2q13 0 54 -23q36 -20 36 -37q0 -6 -6 -9.5t-21 -6.5t-30.5 -5t-45.5 -5.5t-54 -6.5q-75 -314 -88 -485q-6 -60 -9 -63q-10 -8 -36.5 -7t-64 18t-58.5 42q-1 1 -9 35.5t-26.5 89t-44.5 98.5q-83 141 -203 191
q-70 -113 -303 -521q-52 -94 -119 -94q-47 0 -104 45zM682 635l-45 -66q40 4 135 19q104 13 182 22q63 315 111 490q-63 -56 -162 -174q-108 -129 -221 -291zM895 223q17 156 41 289q-32 -3 -221 -29l-60 -10q78 -49 146.5 -122.5t93.5 -127.5zM903 1427q21 49 88 101
q64 49 119 49q48 0 135 -33q39 -18 58 -24q63 -24 114 -9q31 12 57.5 25t38.5 20t13 7q8 0 -15 -52q-34 -61 -112 -102q-48 -25 -94 -25q-50 0 -123 33q-76 33 -105 33q-78 0 -172 -64q-17 0 -2 41z" />
    <glyph glyph-name="Adieresis" unicode="&#xc4;" horiz-adv-x="1206" 
d="M33 -119q41 81 360 533q-9 -3 -35.5 -11t-49 -14.5t-32.5 -9.5q-14 -5 -43 -12q-50 -11 -71 -9q-58 3 -105 62q-47 56 -47 88q0 30 55.5 50t145.5 20q130 0 262 -33l16 4l29 37q165 227 356 461q187 233 234 270q65 0 123 -49q57 -48 57 -97q0 -19 -16 -65
q-3 -8 -23 -64.5t-37 -105.5q-43 -127 -90 -311v-2q10 2 43 2q13 0 54 -23q36 -20 36 -37q0 -6 -6 -9.5t-21 -6.5t-30.5 -5t-45.5 -5.5t-54 -6.5q-75 -314 -88 -485q-6 -60 -9 -63q-10 -8 -36.5 -7t-64 18t-58.5 42q-1 1 -9 35.5t-26.5 89t-44.5 98.5q-83 141 -203 191
q-70 -113 -303 -521q-52 -94 -119 -94q-47 0 -104 45zM682 635l-45 -66q40 4 135 19q104 13 182 22q63 315 111 490q-63 -56 -162 -174q-108 -129 -221 -291zM895 223q17 156 41 289q-32 -3 -221 -29l-60 -10q78 -49 146.5 -122.5t93.5 -127.5zM989 1427q-8 36 -8 54
q0 97 14 135q28 48 84 39q95 -9 101 -74q2 -41 -22.5 -83.5t-61.5 -61.5q-29 -18 -65.5 -20t-41.5 11zM1292 1427q-10 27 -10 54q0 128 10 141q14 19 82 10q46 -5 78 -23t33 -44q2 -39 -22.5 -74.5t-65.5 -54.5q-28 -18 -64 -20t-41 11z" />
    <glyph glyph-name="Aring" unicode="&#xc5;" horiz-adv-x="1206" 
d="M33 -119q41 81 360 533q-9 -3 -35.5 -11t-49 -14.5t-32.5 -9.5q-14 -5 -43 -12q-50 -11 -71 -9q-58 3 -105 62q-47 56 -47 88q0 30 55.5 50t145.5 20q130 0 262 -33l16 4l29 37q165 227 356 461q187 233 234 270q65 0 123 -49q57 -48 57 -97q0 -19 -16 -65
q-3 -8 -23 -64.5t-37 -105.5q-43 -127 -90 -311v-2q10 2 43 2q13 0 54 -23q36 -20 36 -37q0 -6 -6 -9.5t-21 -6.5t-30.5 -5t-45.5 -5.5t-54 -6.5q-75 -314 -88 -485q-6 -60 -9 -63q-10 -8 -36.5 -7t-64 18t-58.5 42q-1 1 -9 35.5t-26.5 89t-44.5 98.5q-83 141 -203 191
q-70 -113 -303 -521q-52 -94 -119 -94q-47 0 -104 45zM682 635l-45 -66q40 4 135 19q104 13 182 22q63 315 111 490q-63 -56 -162 -174q-108 -129 -221 -291zM895 223q17 156 41 289q-32 -3 -221 -29l-60 -10q78 -49 146.5 -122.5t93.5 -127.5zM1120 1718q35 50 127 56
q81 9 84 -13q0 -7 -49 -59q12 6 23 6q53 0 104 -45t51 -80q0 -90 -74 -158q-73 -67 -153 -67q-46 0 -113 55q-69 54 -69 100q0 108 69 205zM1303 1657q-6 3 -17 6.5t-19.5 5t-9.5 2.5l-12 -18q-94 -138 -82 -205q22 -19 66 -4q37 11 69.5 59t32.5 92q0 40 -28 62z" />
    <glyph glyph-name="AE" unicode="&#xc6;" horiz-adv-x="1908" 
d="M170 -119q41 81 360 533q-5 -2 -53.5 -16.5t-62.5 -18.5q-14 -5 -43 -12q-50 -11 -72 -9q-57 3 -104 62q-48 57 -48 88q0 30 55 50t146 20q110 0 256 -31q5 0 25 4l26 35q157 216 357 461q189 235 233 270q43 0 89 -27.5t73 -66.5q246 13 373 26q206 15 297 31
q9 -2 2 -47.5t-25 -75.5q-20 -36 -36 -45t-66 -14q-142 -17 -344 -25q-16 -1 -88 -4.5t-127 -5.5q-59 -150 -129 -420q424 51 467 51q18 0 -12 -58q-33 -61 -60 -77q-29 -14 -115 -18q-14 -1 -71.5 -3t-73.5 -3l-166 -13q-61 -260 -78 -416q36 -4 184 -4q125 0 252 27
q139 31 168 35q10 3 -5 -38t-50 -87t-72 -55q-87 -24 -286 -21q-246 3 -316 31q-42 15 -51 43q-1 1 -9 35.5t-26.5 89t-44.5 98.5q-83 141 -203 191q-70 -113 -303 -521q-52 -94 -119 -94q-47 0 -104 45zM819 635q-37 -51 -41 -60l236 35q4 1 17 2.5t29.5 3.5t33.5 5
q61 300 108 479q-63 -56 -162 -174q-108 -129 -221 -291zM1032 223q17 150 41 285q-62 -5 -221 -25l-59 -10q78 -48 146 -121.5t93 -128.5z" />
    <glyph glyph-name="Ccedilla" unicode="&#xc7;" horiz-adv-x="913" 
d="M508 1468q39 0 100 -20q66 -21 66 -37q-112 -54 -209 -127q-115 -90 -178.5 -201.5t-63.5 -212.5q0 -54 21 -94q68 140 158 251t180 169q171 113 290 113q32 0 102.5 -33.5t133.5 -87.5q70 -61 70 -125q0 -102 -101 -215q-98 -110 -260 -189q-160 -77 -313 -77
q-79 0 -150 26q-69 -172 -69 -340q0 -132 30 -172q27 -41 129 -41q84 0 183 45q110 50 174 95q154 108 207 147q13 10 24 10q10 0 10 -8q0 -3 -10 -20q-140 -177 -274 -291q-136 -115 -219 -115q-55 0 -158 53q-14 -25 -14 -55q0 -11 63 -51q64 -40 76 -80q35 -95 -74 -172
q-63 -44 -143 -53q-85 -9 -107 10q-73 27 -73 72q0 30 59 86q49 46 49 12q0 -127 35 -127q45 0 85 41.5t40 81.5q0 29 -74 67q-76 40 -76 50q0 38 64 96q28 28 55 43q-82 48 -145 117q-70 70 -70 180q0 209 82 413q-104 98 -104 205q0 277 235 484q89 77 164 77zM455 791
q-28 -40 -72 -119q30 -6 63 -6q114 -5 253 62t235.5 174.5t91.5 205.5q0 33 -10 46t-39 13q-108 0 -252 -100q-149 -103 -270 -276z" />
    <glyph glyph-name="Egrave" unicode="&#xc8;" 
d="M635 811q132 72 213 205q71 118 53 188q-29 16 -131 -10q-117 -28 -262 -133q-254 -181 -254 -371q0 -44 29.5 -92t64.5 -76l33 -24q89 28 143 28q36 0 70 -49q33 -50 33 -84q0 -22 -21 -50t-35 -28q-47 0 -90 19l-14 6q-93 -15 -197 -82q-58 -36 -98.5 -88t-34.5 -74
q48 -48 162 -45q76 3 182 43q101 38 189 94q102 65 221 170q17 17 20 0q0 -7 -6 -22q-20 -50 -123 -162q-107 -117 -219 -188q-71 -47 -166 -68q-91 -17 -151 -2q-80 25 -144 107q-67 85 -75 143q-5 31 25 84t83 102q39 35 86.5 66t77.5 45l25 10q-94 48 -158 127
q-66 78 -66 139q0 81 54 193.5t153 208.5q113 107 246 172q131 61 223 61q58 0 162 -78q102 -77 111 -122q22 -91 -80 -222q-109 -140 -256 -188q-42 -14 -84 -20t-65 -5.5t-27 4.5q-19 13 -13 29q0 1 11.5 2t39.5 10t60 27zM829 1659q22 35 70.5 51.5t73.5 9.5q2 1 4 -2
t2.5 -10t1 -15.5t0.5 -21t0.5 -24.5t1 -27.5t2.5 -28.5q4 -25 21 -54.5t34.5 -50t33 -37t16.5 -17.5q5 -6 -3 -14.5t-20 -8.5q-26 0 -100 23q-67 21 -109 63q-81 82 -29 164z" />
    <glyph glyph-name="Eacute" unicode="&#xc9;" 
d="M635 811q132 72 213 205q71 118 53 188q-29 16 -131 -10q-117 -28 -262 -133q-254 -181 -254 -371q0 -44 29.5 -92t64.5 -76l33 -24q89 28 143 28q36 0 70 -49q33 -50 33 -84q0 -22 -21 -50t-35 -28q-47 0 -90 19l-14 6q-93 -15 -197 -82q-58 -36 -98.5 -88t-34.5 -74
q48 -48 162 -45q76 3 182 43q101 38 189 94q102 65 221 170q17 17 20 0q0 -7 -6 -22q-20 -50 -123 -162q-107 -117 -219 -188q-71 -47 -166 -68q-91 -17 -151 -2q-80 25 -144 107q-67 85 -75 143q-5 31 25 84t83 102q39 35 86.5 66t77.5 45l25 10q-94 48 -158 127
q-66 78 -66 139q0 81 54 193.5t153 208.5q113 107 246 172q131 61 223 61q58 0 162 -78q102 -77 111 -122q22 -91 -80 -222q-109 -140 -256 -188q-42 -14 -84 -20t-65 -5.5t-27 4.5q-19 13 -13 29q0 1 11.5 2t39.5 10t60 27zM1100 1606q-3 -80 -137 -144q-107 -52 -189 -43
q-29 3 -33 15q-10 13 11 28q44 31 73 54q52 46 78 83q48 72 60 107q5 5 38.5 -9t66 -40t32.5 -51z" />
    <glyph glyph-name="Ecircumflex" unicode="&#xca;" 
d="M635 811q132 72 213 205q71 118 53 188q-29 16 -131 -10q-117 -28 -262 -133q-254 -181 -254 -371q0 -44 29.5 -92t64.5 -76l33 -24q89 28 143 28q36 0 70 -49q33 -50 33 -84q0 -22 -21 -50t-35 -28q-47 0 -90 19l-14 6q-93 -15 -197 -82q-58 -36 -98.5 -88t-34.5 -74
q48 -48 162 -45q76 3 182 43q101 38 189 94q102 65 221 170q17 17 20 0q0 -7 -6 -22q-20 -50 -123 -162q-107 -117 -219 -188q-71 -47 -166 -68q-91 -17 -151 -2q-80 25 -144 107q-67 85 -75 143q-5 31 25 84t83 102q39 35 86.5 66t77.5 45l25 10q-94 48 -158 127
q-66 78 -66 139q0 81 54 193.5t153 208.5q113 107 246 172q131 61 223 61q58 0 162 -78q102 -77 111 -122q22 -91 -80 -222q-109 -140 -256 -188q-42 -14 -84 -20t-65 -5.5t-27 4.5q-19 13 -13 29q0 1 11.5 2t39.5 10t60 27zM666 1628q93 94 137 152q36 2 106 -17
q61 -18 80 -43q4 -2 7.5 -10.5t6.5 -24t5.5 -29t6 -36.5t5.5 -35q8 -39 19 -73.5t16 -49t4 -16.5q-4 -6 -26 0.5t-36 17.5q-26 19 -55 82q-29 60 -41 99q-86 -102 -127 -139t-86 -50q-38 -7 -77 -0.5t-66.5 22.5t-18.5 27q3 4 26 23t56.5 47.5t57.5 52.5z" />
    <glyph glyph-name="Edieresis" unicode="&#xcb;" 
d="M635 811q132 72 213 205q71 118 53 188q-29 16 -131 -10q-117 -28 -262 -133q-254 -181 -254 -371q0 -44 29.5 -92t64.5 -76l33 -24q89 28 143 28q36 0 70 -49q33 -50 33 -84q0 -22 -21 -50t-35 -28q-47 0 -90 19l-14 6q-93 -15 -197 -82q-58 -36 -98.5 -88t-34.5 -74
q48 -48 162 -45q76 3 182 43q101 38 189 94q102 65 221 170q17 17 20 0q0 -7 -6 -22q-20 -50 -123 -162q-107 -117 -219 -188q-71 -47 -166 -68q-91 -17 -151 -2q-80 25 -144 107q-67 85 -75 143q-5 31 25 84t83 102q39 35 86.5 66t77.5 45l25 10q-94 48 -158 127
q-66 78 -66 139q0 81 54 193.5t153 208.5q113 107 246 172q131 61 223 61q58 0 162 -78q102 -77 111 -122q22 -91 -80 -222q-109 -140 -256 -188q-42 -14 -84 -20t-65 -5.5t-27 4.5q-19 13 -13 29q0 1 11.5 2t39.5 10t60 27zM610 1454q-8 36 -8 53q0 97 14 135q28 48 84 39
q95 -9 101 -73q2 -42 -22.5 -84.5t-61.5 -61.5q-29 -18 -66 -19.5t-41 11.5zM913 1454q-10 27 -10 53q0 129 10 142q16 22 82 10q46 -5 78 -23.5t33 -44.5q2 -39 -22.5 -74.5t-65.5 -54.5q-28 -18 -64 -19.5t-41 11.5z" />
    <glyph glyph-name="Igrave" unicode="&#xcc;" horiz-adv-x="622" 
d="M6 39q-23 50 -20 90q1 3 8 10q44 -12 223 -22q86 -4 105 -2q-5 0 -5 4q-79 40 -79 119q0 54 88 311q100 291 225 530q-94 -10 -182 2q-105 9 -136 60q-12 18 -21.5 51t-10 53.5t3.5 24.5q2 0 22.5 -5t53 -13t55.5 -13q159 -30 297 -27q58 64 123 93q50 21 106 -23
q50 -39 47 -80q-2 -22 -56 -51.5t-124 -42.5h-2q-129 -233 -235 -602q-27 -99 -51.5 -193t-36 -142t-13.5 -54q116 5 207 22q15 0 6 -55q-6 -40 -31 -59q-47 -31 -157 -45q-195 -25 -301 -11q-78 9 -109 70zM494 1624q22 35 70.5 52t72.5 10q2 1 4 -2t2.5 -10t1 -16t0.5 -21
t0.5 -24.5t1 -28t2.5 -28.5q4 -25 21 -54.5t34.5 -50t33 -37t16.5 -17.5q5 -6 -3 -14.5t-20 -8.5q-26 0 -100 23q-67 21 -109 63q-81 81 -28 164z" />
    <glyph glyph-name="Iacute" unicode="&#xcd;" horiz-adv-x="622" 
d="M6 39q-23 50 -20 90q1 3 8 10q44 -12 223 -22q86 -4 105 -2q-5 0 -5 4q-79 40 -79 119q0 54 88 311q100 291 225 530q-94 -10 -182 2q-105 9 -136 60q-12 18 -21.5 51t-10 53.5t3.5 24.5q2 0 22.5 -5t53 -13t55.5 -13q159 -30 297 -27q58 64 123 93q50 21 106 -23
q50 -39 47 -80q-2 -22 -56 -51.5t-124 -42.5h-2q-129 -233 -235 -602q-27 -99 -51.5 -193t-36 -142t-13.5 -54q116 5 207 22q15 0 6 -55q-6 -40 -31 -59q-47 -31 -157 -45q-195 -25 -301 -11q-78 9 -109 70zM981 1606q-3 -80 -137 -144q-107 -52 -189 -43q-28 3 -32 15
q-10 14 10 28q56 40 74 54q50 43 77 83q48 72 60 107q5 5 38.5 -9t66 -40t32.5 -51z" />
    <glyph glyph-name="Icircumflex" unicode="&#xce;" horiz-adv-x="622" 
d="M6 39q-23 50 -20 90q1 3 8 10q44 -12 223 -22q86 -4 105 -2q-5 0 -5 4q-79 40 -79 119q0 54 88 311q100 291 225 530q-94 -10 -182 2q-105 9 -136 60q-12 18 -21.5 51t-10 53.5t3.5 24.5q2 0 22.5 -5t53 -13t55.5 -13q159 -30 297 -27q58 64 123 93q50 21 106 -23
q50 -39 47 -80q-2 -22 -56 -51.5t-124 -42.5h-2q-129 -233 -235 -602q-27 -99 -51.5 -193t-36 -142t-13.5 -54q116 5 207 22q15 0 6 -55q-6 -40 -31 -59q-47 -31 -157 -45q-195 -25 -301 -11q-78 9 -109 70zM528 1542q97 97 138 152q36 2 106 -17q61 -18 80 -43
q4 -2 7.5 -10.5t6.5 -24t5.5 -29t6 -36.5t5.5 -35q8 -39 19 -73.5t16 -49t4 -16.5q-4 -6 -26 0.5t-36 17.5q-26 19 -55 82q-29 61 -41 99q-86 -102 -127 -139t-86 -50q-38 -7 -77 -0.5t-66.5 22.5t-18.5 27q3 4 26 23t56 47.5t57 52.5z" />
    <glyph glyph-name="Idieresis" unicode="&#xcf;" horiz-adv-x="622" 
d="M6 39q-23 50 -20 90q1 3 8 10q44 -12 223 -22q86 -4 105 -2q-5 0 -5 4q-79 40 -79 119q0 54 88 311q100 291 225 530q-94 -10 -182 2q-105 9 -136 60q-12 18 -21.5 51t-10 53.5t3.5 24.5q2 0 22.5 -5t53 -13t55.5 -13q159 -30 297 -27q58 64 123 93q50 21 106 -23
q50 -39 47 -80q-2 -22 -56 -51.5t-124 -42.5h-2q-129 -233 -235 -602q-27 -99 -51.5 -193t-36 -142t-13.5 -54q116 5 207 22q15 0 6 -55q-6 -40 -31 -59q-47 -31 -157 -45q-195 -25 -301 -11q-78 9 -109 70zM463 1427q-8 36 -8 54q0 97 14 135q28 48 84 39q94 -9 100 -74
q2 -41 -22.5 -83.5t-61.5 -61.5q-29 -18 -65 -20t-41 11zM766 1427q-10 27 -10 54q0 128 10 141q14 19 82 10q46 -5 77.5 -23t32.5 -44q2 -39 -22.5 -74.5t-65.5 -54.5q-28 -18 -63.5 -20t-40.5 11z" />
    <glyph glyph-name="Eth" unicode="&#xd0;" horiz-adv-x="1200" 
d="M74 893q100 189 311 309t438 123q157 3 258 -61q95 -74 176 -174q80 -103 86 -144q34 -227 -149 -540q-153 -261 -363 -400q-207 -137 -391 -137q-152 0 -254 111q-38 42 -57 88.5t-18 74t12 27.5q2 0 12 -18.5t28.5 -45t45.5 -53t72 -45t100 -18.5q240 0 467 239
q222 236 307 523q26 87 31.5 177t-4.5 111q-10 33 -17 45q-13 21 -60 49t-104 40q-47 18 -182 6q-135 -15 -233 -64q-144 -70 -220.5 -144t-123.5 -192q-34 -91 -19 -170q-20 -8 -76 13q-58 18 -81 51q-64 85 8 219zM324 614q18 7 116 7q83 248 162 434q45 -3 94 -33
q49 -34 49 -92q0 -22 -38 -113q-27 -66 -72 -170l-12 -26q152 3 176 0q-4 -30 -35 -67.5t-62 -51.5q-40 -19 -135 -19q-62 -163 -98 -288q-11 -38 -22.5 -82t-17 -64t-7.5 -22q-28 4 -60 32t-40 52q-14 44 32 225q17 75 41 147q-125 0 -125 4q0 20 21 72q18 49 33 55z" />
    <glyph glyph-name="Ntilde" unicode="&#xd1;" horiz-adv-x="1183" 
d="M1071 -436q-118 89 -164 252q-63 199 27 532q60 220 196 529q-1 -1 -31.5 -30t-47.5 -46q-68 -68 -146 -172q-115 -150 -174.5 -272.5t-93.5 -293.5v17l-10 -105q-55 2 -90 24.5t-41 63.5q-7 41 36 213q46 184 89 324q152 502 159 535q21 93 2 104q-5 3 -17.5 2.5
t-42.5 -17.5t-64.5 -41t-83 -68t-99.5 -99q-129 -141 -186 -307q-62 -171 -62 -281q0 -34 7.5 -65.5t12.5 -44.5t3 -13q-28 -5 -76.5 9.5t-73.5 39.5q-47 47 -47 131q0 176 113 377q56 102 142.5 203t170.5 166q168 127 254 127q31 0 135 -72q98 -73 101 -117
q1 -34 -19.5 -101t-77.5 -220q-31 -80 -88 -244l-28 -84q102 181 256 361q152 179 239 254q46 -3 88 -45q39 -39 39 -70q0 -19 -12 -43q-25 -37 -39 -70q-93 -171 -180 -403q-119 -314 -119 -619q0 -74 23 -174q21 -89 55 -129q11 -13 -4 -22t-31 4zM868 1448q20 47 88 100
q64 49 119 49q51 0 135 -32q48 -22 58 -25q62 -23 114 -8q31 12 57.5 25t38.5 19.5t13 6.5q5 0 0.5 -13.5t-14.5 -37.5q-34 -60 -113 -102q-48 -25 -94 -25q-50 0 -123 33q-74 32 -105 32q-80 0 -172 -63q-17 0 -2 41z" />
    <glyph glyph-name="Ograve" unicode="&#xd2;" horiz-adv-x="1024" 
d="M774 1389q85 0 144 -103q10 -19 15 -32.5t4.5 -20.5t-5.5 -8q-118 26 -241 -37t-220 -197q-219 -301 -231 -678q-9 -245 69 -280q2 -1 13.5 -3.5t15.5 -3.5t16 -2.5t20 -1t21.5 2.5t25 5.5t27.5 10.5t33 16q66 37 135 115q116 131 191 309q74 173 96 330q21 175 -4 207
q-63 3 -158 -74q-117 -95 -182 -233q-77 -165 -65 -303q3 -38 -11 -35q-4 0 -8 4q-57 57 -57 198q0 210 121 390q114 169 229 178q55 3 147 -51q95 -58 138 -129q50 -80 -2 -299q-24 -110 -95 -263q-108 -224 -249 -348q-142 -127 -246 -127q-89 0 -193 64q-110 68 -131 110
q-45 83 -45 246q0 307 144 586q109 214 253 334q144 123 285 123zM817 1651q22 35 70.5 51.5t73.5 9.5q2 1 4 -2t2.5 -10t1 -15.5t0.5 -21t0.5 -24.5t1 -27.5t2.5 -28.5q4 -25 21 -55t34 -50t32.5 -37t16.5 -18q5 -6 -2.5 -14t-19.5 -8q-30 0 -101 22q-64 20 -108 64
q-81 81 -29 164z" />
    <glyph glyph-name="Oacute" unicode="&#xd3;" horiz-adv-x="1024" 
d="M774 1389q85 0 144 -103q10 -19 15 -32.5t4.5 -20.5t-5.5 -8q-118 26 -241 -37t-220 -197q-219 -301 -231 -678q-9 -245 69 -280q2 -1 13.5 -3.5t15.5 -3.5t16 -2.5t20 -1t21.5 2.5t25 5.5t27.5 10.5t33 16q66 37 135 115q116 131 191 309q74 173 96 330q21 175 -4 207
q-63 3 -158 -74q-117 -95 -182 -233q-77 -165 -65 -303q3 -38 -11 -35q-4 0 -8 4q-57 57 -57 198q0 210 121 390q114 169 229 178q55 3 147 -51q95 -58 138 -129q50 -80 -2 -299q-24 -110 -95 -263q-108 -224 -249 -348q-142 -127 -246 -127q-89 0 -193 64q-110 68 -131 110
q-45 83 -45 246q0 307 144 586q109 214 253 334q144 123 285 123zM1204 1626q-3 -79 -137 -143q-107 -52 -188 -43q-29 3 -33 14q-11 14 10 29q72 51 74 53q50 44 78 84q47 70 59 106q5 5 38.5 -9t66 -40t32.5 -51z" />
    <glyph glyph-name="Ocircumflex" unicode="&#xd4;" horiz-adv-x="1024" 
d="M774 1389q85 0 144 -103q10 -19 15 -32.5t4.5 -20.5t-5.5 -8q-118 26 -241 -37t-220 -197q-219 -301 -231 -678q-9 -245 69 -280q2 -1 13.5 -3.5t15.5 -3.5t16 -2.5t20 -1t21.5 2.5t25 5.5t27.5 10.5t33 16q66 37 135 115q116 131 191 309q74 173 96 330q21 175 -4 207
q-63 3 -158 -74q-117 -95 -182 -233q-77 -165 -65 -303q3 -38 -11 -35q-4 0 -8 4q-57 57 -57 198q0 210 121 390q114 169 229 178q55 3 147 -51q95 -58 138 -129q50 -80 -2 -299q-24 -110 -95 -263q-108 -224 -249 -348q-142 -127 -246 -127q-89 0 -193 64q-110 68 -131 110
q-45 83 -45 246q0 307 144 586q109 214 253 334q144 123 285 123zM711 1645q96 96 137 151q39 3 106 -16q61 -18 80 -43q4 -2 7.5 -10.5t6.5 -24t5.5 -29t6 -36.5t5.5 -35q8 -39 19 -74t16.5 -49.5t3.5 -16.5q-4 -6 -26 1t-36 18q-26 19 -55 82q-30 62 -41 98
q-85 -101 -126 -138t-87 -50q-38 -7 -77 -0.5t-66.5 22.5t-18.5 27q3 4 26 23t56.5 47.5t57.5 52.5z" />
    <glyph glyph-name="Otilde" unicode="&#xd5;" horiz-adv-x="1024" 
d="M774 1389q85 0 144 -103q10 -19 15 -32.5t4.5 -20.5t-5.5 -8q-118 26 -241 -37t-220 -197q-219 -301 -231 -678q-9 -245 69 -280q2 -1 13.5 -3.5t15.5 -3.5t16 -2.5t20 -1t21.5 2.5t25 5.5t27.5 10.5t33 16q66 37 135 115q116 131 191 309q74 173 96 330q21 175 -4 207
q-63 3 -158 -74q-117 -95 -182 -233q-77 -165 -65 -303q3 -38 -11 -35q-4 0 -8 4q-57 57 -57 198q0 210 121 390q114 169 229 178q55 3 147 -51q95 -58 138 -129q50 -80 -2 -299q-24 -110 -95 -263q-108 -224 -249 -348q-142 -127 -246 -127q-89 0 -193 64q-110 68 -131 110
q-45 83 -45 246q0 307 144 586q109 214 253 334q144 123 285 123zM600 1475q20 47 88 100q64 49 119 49q48 0 135 -33q42 -19 57 -24q62 -23 115 -8q31 12 57.5 25t38.5 19.5t13 6.5q7 0 -15 -51q-35 -62 -112 -103q-46 -24 -95 -24q-51 0 -122 32q-76 33 -105 33
q-80 0 -172 -63q-17 0 -2 41z" />
    <glyph glyph-name="Odieresis" unicode="&#xd6;" horiz-adv-x="1024" 
d="M774 1389q85 0 144 -103q10 -19 15 -32.5t4.5 -20.5t-5.5 -8q-118 26 -241 -37t-220 -197q-219 -301 -231 -678q-9 -245 69 -280q2 -1 13.5 -3.5t15.5 -3.5t16 -2.5t20 -1t21.5 2.5t25 5.5t27.5 10.5t33 16q66 37 135 115q116 131 191 309q74 173 96 330q21 175 -4 207
q-63 3 -158 -74q-117 -95 -182 -233q-77 -165 -65 -303q3 -38 -11 -35q-4 0 -8 4q-57 57 -57 198q0 210 121 390q114 169 229 178q55 3 147 -51q95 -58 138 -129q50 -80 -2 -299q-24 -110 -95 -263q-108 -224 -249 -348q-142 -127 -246 -127q-89 0 -193 64q-110 68 -131 110
q-45 83 -45 246q0 307 144 586q109 214 253 334q144 123 285 123zM707 1479q-9 40 -9 53q0 94 15 135q28 48 84 39q94 -9 100 -74q2 -41 -22.5 -83.5t-61.5 -61.5q-29 -18 -65.5 -19.5t-40.5 11.5zM1010 1479q-11 29 -11 53q0 126 11 141q16 22 82 10q46 -5 77.5 -23
t32.5 -44q2 -39 -22.5 -74.5t-65.5 -54.5q-28 -18 -63.5 -19.5t-40.5 11.5z" />
    <glyph glyph-name="multiply" unicode="&#xd7;" horiz-adv-x="1024" 
d="M831 948q31 0 54.5 -21t23.5 -57q0 -25 -86 -125q-83 -96 -198 -208l32 -72q72 -166 115 -225q10 -14 -16 -17q-60 -9 -97 10q-29 16 -120 209q-4 4 -4 9l-19 -17q-248 -217 -301 -217q-36 0 -68 30t-26 50q0 2 16 12.5t46.5 31t56.5 40.5q135 108 235 201
q-69 165 -80 184q-20 43 -40 81.5t-30 56t-10 18.5q0 22 37 22q85 0 119 -70q91 -194 96 -206q94 89 158 162t81.5 96t24.5 22z" />
    <glyph glyph-name="Oslash" unicode="&#xd8;" horiz-adv-x="1150" 
d="M901 1389q71 0 127 -80q70 126 98 170q52 82 86 82q46 0 105 -62q-21 -39 -250 -426q73 -49 113 -110q50 -80 -2 -299q-24 -110 -95 -263q-108 -224 -249 -348q-142 -127 -246 -127q-66 0 -150 41q-33 -65 -106 -223q-33 0 -57.5 15t-24.5 40q0 24 96 221q-63 48 -82 80
q-45 83 -45 246q0 309 143 586q108 212 254 334q144 123 285 123zM387 104l197 381l401 746q-211 -3 -387 -240q-219 -301 -231 -678q-6 -129 20 -209zM1030 1012l-291 -504l-270 -485q130 -15 274 149q116 131 191 309q74 173 96 330q21 163 0 201z" />
    <glyph glyph-name="Ugrave" unicode="&#xd9;" horiz-adv-x="1224" 
d="M180 305q-28 -5 -76 9.5t-73 39.5q-47 47 -47 131q0 178 112 377q56 102 143 203t171 166q168 127 254 127q31 0 135 -72q97 -72 100 -117q5 -45 -72 -264q-6 -18 -47 -135t-57 -166q-88 -262 -118 -380.5t-3 -119.5q28 -1 76 51.5t117 159.5q163 255 319 641
q52 124 66 185q32 -5 75 -34.5t50 -53.5q15 -44 -15 -133l-28 -70q-27 -71 -66.5 -178.5t-73.5 -210.5q-110 -337 -110 -567q0 -35 3 -69t8 -61.5t12 -53.5t14.5 -46t15 -37.5t14 -29.5t11 -20.5t6.5 -12.5t0 -4q-15 -26 -64 26q-164 182 -164 385q0 187 101 512
q-101 -235 -189 -383q-22 -38 -30.5 -51t-23.5 -30.5t-36 -34.5q-33 -26 -61 -23q-40 6 -101 64q-64 55 -82 96q-15 35 19 184q31 154 76 295q90 293 147 457q5 16 13 43t10 35q21 93 2 104q-5 3 -17.5 2.5t-42.5 -17.5t-64.5 -41t-83 -68t-99.5 -99q-130 -143 -187 -307
q-61 -168 -61 -281q0 -34 7 -65.5t12 -44.5t3 -13zM915 1556q22 35 71 52t73 10q2 1 4 -2t2.5 -10t1 -15.5t0.5 -21t0.5 -24.5t1 -27.5t2.5 -28.5q4 -25 21 -55t34.5 -50t33 -37t16.5 -18q5 -6 -3 -14t-20 -8q-29 0 -100 22q-65 20 -109 64q-81 81 -29 163z" />
    <glyph glyph-name="Uacute" unicode="&#xda;" horiz-adv-x="1224" 
d="M180 305q-28 -5 -76 9.5t-73 39.5q-47 47 -47 131q0 178 112 377q56 102 143 203t171 166q168 127 254 127q31 0 135 -72q97 -72 100 -117q5 -45 -72 -264q-6 -18 -47 -135t-57 -166q-88 -262 -118 -380.5t-3 -119.5q28 -1 76 51.5t117 159.5q163 255 319 641
q52 124 66 185q32 -5 75 -34.5t50 -53.5q15 -44 -15 -133l-28 -70q-27 -71 -66.5 -178.5t-73.5 -210.5q-110 -337 -110 -567q0 -35 3 -69t8 -61.5t12 -53.5t14.5 -46t15 -37.5t14 -29.5t11 -20.5t6.5 -12.5t0 -4q-15 -26 -64 26q-164 182 -164 385q0 187 101 512
q-101 -235 -189 -383q-22 -38 -30.5 -51t-23.5 -30.5t-36 -34.5q-33 -26 -61 -23q-40 6 -101 64q-64 55 -82 96q-15 35 19 184q31 154 76 295q90 293 147 457q5 16 13 43t10 35q21 93 2 104q-5 3 -17.5 2.5t-42.5 -17.5t-64.5 -41t-83 -68t-99.5 -99q-130 -143 -187 -307
q-61 -168 -61 -281q0 -34 7 -65.5t12 -44.5t3 -13zM1391 1507q-3 -78 -138 -143q-107 -52 -188 -43q-29 3 -33 14q-11 14 10 29q72 51 74 53q50 44 78 84q46 69 59 107q5 5 38.5 -9t66.5 -40.5t33 -51.5z" />
    <glyph glyph-name="Ucircumflex" unicode="&#xdb;" horiz-adv-x="1224" 
d="M180 305q-28 -5 -76 9.5t-73 39.5q-47 47 -47 131q0 178 112 377q56 102 143 203t171 166q168 127 254 127q31 0 135 -72q97 -72 100 -117q5 -45 -72 -264q-6 -18 -47 -135t-57 -166q-88 -262 -118 -380.5t-3 -119.5q28 -1 76 51.5t117 159.5q163 255 319 641
q52 124 66 185q32 -5 75 -34.5t50 -53.5q15 -44 -15 -133l-28 -70q-27 -71 -66.5 -178.5t-73.5 -210.5q-110 -337 -110 -567q0 -35 3 -69t8 -61.5t12 -53.5t14.5 -46t15 -37.5t14 -29.5t11 -20.5t6.5 -12.5t0 -4q-15 -26 -64 26q-164 182 -164 385q0 187 101 512
q-101 -235 -189 -383q-22 -38 -30.5 -51t-23.5 -30.5t-36 -34.5q-33 -26 -61 -23q-40 6 -101 64q-64 55 -82 96q-15 35 19 184q31 154 76 295q90 293 147 457q5 16 13 43t10 35q21 93 2 104q-5 3 -17.5 2.5t-42.5 -17.5t-64.5 -41t-83 -68t-99.5 -99q-130 -143 -187 -307
q-61 -168 -61 -281q0 -34 7 -65.5t12 -44.5t3 -13zM983 1526q96 96 137 151q40 3 107 -16q61 -18 80 -43q4 -2 7.5 -10.5t6.5 -24t5 -29.5t5.5 -36t5.5 -35q8 -39 19 -74t16.5 -49.5t3.5 -16.5q-4 -6 -25.5 1t-35.5 18q-26 19 -55 82q-30 62 -41 98q-85 -101 -126 -138
t-87 -50q-38 -7 -77 -0.5t-66.5 22.5t-18.5 27q3 4 26 23t56 47.5t57 52.5z" />
    <glyph glyph-name="Udieresis" unicode="&#xdc;" horiz-adv-x="1224" 
d="M180 305q-28 -5 -76 9.5t-73 39.5q-47 47 -47 131q0 178 112 377q56 102 143 203t171 166q168 127 254 127q31 0 135 -72q97 -72 100 -117q5 -45 -72 -264q-6 -18 -47 -135t-57 -166q-88 -262 -118 -380.5t-3 -119.5q28 -1 76 51.5t117 159.5q163 255 319 641
q52 124 66 185q32 -5 75 -34.5t50 -53.5q15 -44 -15 -133l-28 -70q-27 -71 -66.5 -178.5t-73.5 -210.5q-110 -337 -110 -567q0 -35 3 -69t8 -61.5t12 -53.5t14.5 -46t15 -37.5t14 -29.5t11 -20.5t6.5 -12.5t0 -4q-15 -26 -64 26q-164 182 -164 385q0 187 101 512
q-101 -235 -189 -383q-22 -38 -30.5 -51t-23.5 -30.5t-36 -34.5q-33 -26 -61 -23q-40 6 -101 64q-64 55 -82 96q-15 35 19 184q31 154 76 295q90 293 147 457q5 16 13 43t10 35q21 93 2 104q-5 3 -17.5 2.5t-42.5 -17.5t-64.5 -41t-83 -68t-99.5 -99q-130 -143 -187 -307
q-61 -168 -61 -281q0 -34 7 -65.5t12 -44.5t3 -13zM913 1368q-8 36 -8 53q0 95 15 135q28 48 84 39q94 -9 100 -73q2 -42 -22.5 -84.5t-61.5 -61.5q-29 -18 -66 -19.5t-41 11.5zM1217 1368q-11 33 -11 53q0 127 11 142q15 22 81 10q46 -5 78 -23.5t33 -44.5
q2 -39 -22.5 -74.5t-65.5 -54.5q-28 -18 -63.5 -19.5t-40.5 11.5z" />
    <glyph glyph-name="Yacute" unicode="&#xdd;" horiz-adv-x="1216" 
d="M229 305q-28 -5 -76 9.5t-73 39.5q-47 47 -47 131q0 178 112 377q56 102 143 203t171 166q168 127 254 127q31 0 135 -72q97 -72 100 -117q0 -39 -12 -86q-8 -34 -37 -125q-10 -32 -27 -79t-26 -72q-6 -18 -16 -46t-13 -36q-36 -101 -57 -166t-35 -117.5t-13 -76.5
t15 -25q61 -3 201 192q149 209 235 424q52 124 66 185q32 -5 72 -32.5t47 -51.5q18 -46 -13 -137q-14 -45 -116 -328q-183 -506 -367 -744q-135 -166 -252 -198q-61 -15 -115 -15q-51 -3 -127 48q-75 53 -114 110q-6 10 4 16.5t18 0.5q58 -27 115 -27q217 0 367 205
q163 220 315 616q-76 -154 -164 -272q-99 -135 -145 -135q-31 0 -99 59q-69 60 -84 100q-13 36 -4 103q8 54 54 211q6 22 57 186q20 64 55 180q20 66 27 99q21 93 2 104q-5 3 -17.5 2.5t-42.5 -17.5t-64.5 -41t-83 -68t-99.5 -99q-130 -143 -187 -307q-61 -168 -61 -281
q0 -34 7 -65.5t12 -44.5t3 -13zM1436 1511q-3 -78 -138 -143q-107 -52 -188 -43q-29 3 -33 14q-11 14 10 29q72 51 74 53q50 44 78 84q46 69 59 107q5 5 38.5 -9t66.5 -40.5t33 -51.5z" />
    <glyph glyph-name="Thorn" unicode="&#xde;" horiz-adv-x="1128" 
d="M1128 459q-114 -132 -307 -217q-195 -86 -360 -101q-37 -116 -41 -178l-4 -24q-26 -3 -70 22q-47 27 -53 62q-8 36 14 135q-22 10 -31 24q-24 30 -30 72q-3 8 2 8q47 -8 82 -8l6 16q67 248 229 674l-16 -6q-136 -58 -225 -152.5t-119 -183.5q-37 -103 -21 -170
q-32 -4 -83 17.5t-72 46.5q-15 17 -20.5 45.5t4 77t38.5 104.5q133 250 443 367q43 15 143 40q45 112 113 267q5 3 35 -3t55 -18q68 -35 65 -90q-3 -40 -47 -141q73 -6 129 -25q81 -28 193 -129q112 -100 118 -149q21 -162 -170 -383zM797 1001l-4 -12q-179 -400 -293 -727
q280 44 481 270q175 199 145 381q-29 43 -110 70q-88 27 -219 18z" />
    <glyph glyph-name="germandbls" unicode="&#xdf;" horiz-adv-x="712" 
d="M-152 -406q0 42 99 371l258 817q82 255 241 346q160 92 238 89q54 -3 131 -80q79 -79 76 -162q-3 -117 -209 -305q-101 -96 -174 -150q50 -95 80 -213q26 -91 26 -166q0 -61 -96 -123q-104 -67 -217 -67q-45 0 -72 59q-26 56 -22 82q9 4 34 1t78 -6.5t87 -0.5q67 9 67 47
q0 55 -39 146q-18 44 -41.5 86.5t-38 65t-14.5 26.5q0 6 58 60q27 24 44 40q80 76 125 123q135 141 135 276q0 61 -30 99.5t-90 38.5q-31 0 -93 -103q-61 -100 -116 -250l-279 -790q-105 -302 -121 -461q-29 0 -79 29q-46 27 -46 75z" />
    <glyph glyph-name="agrave" unicode="&#xe0;" horiz-adv-x="774" 
d="M211 647q98 131 209 131q70 0 164 -98l24 65q2 7 28.5 3t55.5 -17q64 -30 64 -82q0 -11 -27 -78q-3 -8 -12 -26t-21 -41.5t-18 -36.5q-107 -219 -123 -299q-15 -87 4 -92q6 -2 30.5 12t65.5 47t84 76q90 90 119 141q7 3 10 -6q0 -14 -27 -74.5t-61 -115.5
q-42 -66 -92 -121q-59 -62 -100 -62q-58 0 -137 70q-48 42 -45 131q3 40 12 94q-163 -303 -201 -303q-41 0 -83.5 24t-67.5 60q-45 66 -11 244q41 204 156 354zM520 541l37 77q-40 19 -61 19q-82 0 -185 -145t-133 -328q-15 -86 8 -86q7 0 37.5 33t78.5 95t97 134
q83 124 121 201zM401 1178q19 22 56.5 38t67 21t34.5 0q4 -13 2.5 -19t-6 -42t-4.5 -78q3 -95 57 -203q3 -6 -8 -13.5t-22 -4.5q-64 12 -138 98q-44 51 -55.5 105.5t16.5 97.5z" />
    <glyph glyph-name="aacute" unicode="&#xe1;" horiz-adv-x="784" 
d="M211 647q98 131 209 131q70 0 164 -98l24 65q2 7 28.5 3t55.5 -17q64 -30 64 -82q0 -11 -27 -78q-3 -8 -12 -26t-21 -41.5t-18 -36.5q-107 -219 -123 -299q-15 -87 4 -92q6 -2 30.5 12t65.5 47t84 76q90 90 119 141q7 3 10 -6q0 -14 -27 -74.5t-61 -115.5
q-42 -66 -92 -121q-59 -62 -100 -62q-58 0 -137 70q-48 42 -45 131q3 40 12 94q-163 -303 -201 -303q-41 0 -83.5 24t-67.5 60q-45 66 -11 244q41 204 156 354zM520 541l37 77q-40 19 -61 19q-82 0 -185 -145t-133 -328q-15 -86 8 -86q7 0 37.5 33t78.5 95t97 134
q83 124 121 201zM778 1120q0 -71 -116 -159q-119 -86 -191 -89q-24 -3 -33 15q-10 13 11 28q85 82 131 170q17 32 30 63t19 47t8 19q5 7 39.5 -4t68 -36t33.5 -54z" />
    <glyph glyph-name="acircumflex" unicode="&#xe2;" horiz-adv-x="774" 
d="M211 647q98 131 209 131q70 0 164 -98l24 65q2 7 28.5 3t55.5 -17q64 -30 64 -82q0 -11 -27 -78q-3 -8 -12 -26t-21 -41.5t-18 -36.5q-107 -219 -123 -299q-15 -87 4 -92q6 -2 30.5 12t65.5 47t84 76q90 90 119 141q7 3 10 -6q0 -14 -27 -74.5t-61 -115.5
q-42 -66 -92 -121q-59 -62 -100 -62q-58 0 -137 70q-48 42 -45 131q3 40 12 94q-163 -303 -201 -303q-41 0 -83.5 24t-67.5 60q-45 66 -11 244q41 204 156 354zM520 541l37 77q-40 19 -61 19q-82 0 -185 -145t-133 -328q-15 -86 8 -86q7 0 37.5 33t78.5 95t97 134
q83 124 121 201zM401 1063q85 79 152 168q30 2 92 -21q55 -24 76 -51q21 -30 12 -141q-12 -118 -35 -160q-4 -6 -23.5 9.5t-27.5 29.5q-1 9 -0.5 12.5t1.5 28t1 53.5q-3 79 -16 92q-76 -96 -127 -147q-43 -40 -90 -55q-31 -9 -74.5 3.5t-71.5 30.5t-20 23q2 2 28 22.5
t62.5 50.5t60.5 52z" />
    <glyph glyph-name="atilde" unicode="&#xe3;" horiz-adv-x="774" 
d="M211 647q98 131 209 131q70 0 164 -98l24 65q2 7 28.5 3t55.5 -17q64 -30 64 -82q0 -11 -27 -78q-3 -8 -12 -26t-21 -41.5t-18 -36.5q-107 -219 -123 -299q-15 -87 4 -92q6 -2 30.5 12t65.5 47t84 76q90 90 119 141q7 3 10 -6q0 -14 -27 -74.5t-61 -115.5
q-42 -66 -92 -121q-59 -62 -100 -62q-58 0 -137 70q-48 42 -45 131q3 40 12 94q-163 -303 -201 -303q-41 0 -83.5 24t-67.5 60q-45 66 -11 244q41 204 156 354zM520 541l37 77q-40 19 -61 19q-82 0 -185 -145t-133 -328q-15 -86 8 -86q7 0 37.5 33t78.5 95t97 134
q83 124 121 201zM178 911q21 49 88 101q64 49 119 49q48 0 135 -33q39 -18 58 -24q63 -24 114 -9q31 12 57.5 25t38.5 20t13 7q8 0 -15 -52q-38 -63 -112 -102q-48 -25 -94 -25q-50 0 -123 33q-76 33 -105 33q-78 0 -172 -64q-17 0 -2 41z" />
    <glyph glyph-name="adieresis" unicode="&#xe4;" horiz-adv-x="774" 
d="M211 647q98 131 209 131q70 0 164 -98l24 65q2 7 28.5 3t55.5 -17q64 -30 64 -82q0 -11 -27 -78q-3 -8 -12 -26t-21 -41.5t-18 -36.5q-107 -219 -123 -299q-15 -87 4 -92q6 -2 30.5 12t65.5 47t84 76q90 90 119 141q7 3 10 -6q0 -14 -27 -74.5t-61 -115.5
q-42 -66 -92 -121q-59 -62 -100 -62q-58 0 -137 70q-48 42 -45 131q3 40 12 94q-163 -303 -201 -303q-41 0 -83.5 24t-67.5 60q-45 66 -11 244q41 204 156 354zM520 541l37 77q-40 19 -61 19q-82 0 -185 -145t-133 -328q-15 -86 8 -86q7 0 37.5 33t78.5 95t97 134
q83 124 121 201zM295 891q-8 31 -8 47q0 91 14 123q21 43 76 37q87 -9 90 -68q2 -38 -20 -77t-56 -56q-25 -17 -58 -18t-38 12zM569 891q-8 31 -8 47q0 121 8 129q13 19 76 10q42 -5 70.5 -21.5t29.5 -39.5q2 -35 -20 -68.5t-59 -50.5q-25 -17 -58.5 -18t-38.5 12z" />
    <glyph glyph-name="aring" unicode="&#xe5;" horiz-adv-x="774" 
d="M211 647q98 131 209 131q70 0 164 -98l24 65q2 7 28.5 3t55.5 -17q64 -30 64 -82q0 -11 -27 -78q-3 -8 -12 -26t-21 -41.5t-18 -36.5q-107 -219 -123 -299q-15 -87 4 -92q6 -2 30.5 12t65.5 47t84 76q90 90 119 141q7 3 10 -6q0 -14 -27 -74.5t-61 -115.5
q-42 -66 -92 -121q-59 -62 -100 -62q-58 0 -137 70q-48 42 -45 131q3 40 12 94q-163 -303 -201 -303q-41 0 -83.5 24t-67.5 60q-45 66 -11 244q41 204 156 354zM520 541l37 77q-40 19 -61 19q-82 0 -185 -145t-133 -328q-15 -86 8 -86q7 0 37.5 33t78.5 95t97 134
q83 124 121 201zM401 1198q34 49 127 55q81 9 84 -12q0 -7 -49 -59q12 6 23 6q53 0 104 -45t51 -80q0 -91 -73 -158t-154 -67q-46 0 -113 55q-69 54 -69 100q0 108 69 205zM584 1137q-6 3 -17 6.5t-19 5t-9 2.5l-13 -18q-94 -138 -82 -205q22 -19 66 -4q37 11 69.5 59
t32.5 92q0 40 -28 62z" />
    <glyph glyph-name="ae" unicode="&#xe6;" horiz-adv-x="1009" 
d="M444 295q-65 -126 -131 -225q-71 -105 -96 -105q-41 0 -83.5 24t-67.5 60q-45 66 -11 244q41 204 156 354q98 131 209 131q34 0 87 -33.5t93 -76.5l25 30q88 104 178 101q50 -3 121 -56q70 -52 92 -94q26 -40 3 -111.5t-85 -131.5q-123 -114 -346 -160q-15 -58 -15 -99
q-3 -62 23 -75q37 -17 127.5 19.5t194.5 111.5q119 87 188 162q4 4 9 2t5 -7q-7 -30 -49 -98t-92 -121q-93 -100 -180.5 -147t-147.5 -39q-45 6 -102 43t-82 82q-44 77 -23 215zM520 541l37 77q-40 19 -61 19q-82 0 -185 -145t-133 -328q-15 -86 8 -86q7 0 37.5 33t78.5 95
t97 134q83 124 121 201zM729 541q-67 -85 -119 -219q45 21 86 49q128 90 168 174q55 110 21 110q-26 0 -71 -32.5t-85 -81.5z" />
    <glyph glyph-name="ccedilla" unicode="&#xe7;" horiz-adv-x="632" 
d="M567 481q-29 -48 -102 -90q-71 -41 -125 -41q-39 0 -49 23q-3 10 6 16q81 52 141 148q45 75 33 110q-3 8 -12 8q-39 0 -119 -80q-85 -85 -136.5 -191.5t-51.5 -197.5q0 -56 15.5 -77t53.5 -21q111 0 271 115q46 33 86.5 68t67.5 62t34 32q10 7 14 -5q0 -19 -42.5 -87.5
t-98.5 -131.5q-69 -81 -148 -123.5t-141 -42.5q-25 0 -31 2q-12 -27 -12 -53q0 -11 64 -51q63 -40 75 -80q35 -96 -73 -172q-62 -44 -144 -53q-84 -9 -106 10q-74 27 -74 72q0 29 60 86q49 46 49 12q0 -127 34 -127q45 0 85 41.5t40 81.5q0 31 -73 68q-76 40 -76 49
q0 39 63 96q7 8 41 35q-74 23 -127 94q-49 64 -43 174q6 218 158 408q103 127 211 127q55 0 119 -52q63 -51 84 -92q40 -72 -21 -170z" />
    <glyph glyph-name="egrave" unicode="&#xe8;" horiz-adv-x="618" 
d="M547 406q-123 -114 -346 -160q-15 -58 -15 -99q-3 -62 23 -75q37 -17 127 19.5t194 111.5q122 89 189 162q1 3 4.5 3t6.5 -2.5t3 -5.5q-7 -30 -49 -98t-92 -121q-93 -100 -180.5 -147t-147.5 -39q-45 6 -102 43t-82 82q-52 88 -14 268q41 198 172 350q88 104 178 101
q50 -3 121 -56q70 -52 92 -94q26 -40 3 -111.5t-85 -131.5zM342 541q-67 -85 -119 -219q45 21 86 49q128 90 168 174q55 110 21 110q-26 0 -71 -32.5t-85 -81.5zM381 1178q19 22 56.5 38t67 21t34.5 0q4 -13 2 -19t-6.5 -42t-4.5 -78q3 -93 58 -203q3 -6 -8.5 -13.5
t-22.5 -4.5q-63 12 -137 98q-44 51 -55.5 105.5t16.5 97.5z" />
    <glyph glyph-name="eacute" unicode="&#xe9;" horiz-adv-x="618" 
d="M547 406q-123 -114 -346 -160q-15 -58 -15 -99q-3 -62 23 -75q37 -17 127 19.5t194 111.5q122 89 189 162q1 3 4.5 3t6.5 -2.5t3 -5.5q-7 -30 -49 -98t-92 -121q-93 -100 -180.5 -147t-147.5 -39q-45 6 -102 43t-82 82q-52 88 -14 268q41 198 172 350q88 104 178 101
q50 -3 121 -56q70 -52 92 -94q26 -40 3 -111.5t-85 -131.5zM342 541q-67 -85 -119 -219q45 21 86 49q128 90 168 174q55 110 21 110q-26 0 -71 -32.5t-85 -81.5zM776 1120q0 -70 -117 -159q-119 -86 -190 -89q-24 -3 -33 15q-10 14 10 28q87 84 132 170q17 32 30 63t19 47
t8 19q5 7 39.5 -4t68 -36t33.5 -54z" />
    <glyph glyph-name="ecircumflex" unicode="&#xea;" horiz-adv-x="618" 
d="M547 406q-123 -114 -346 -160q-15 -58 -15 -99q-3 -62 23 -75q37 -17 127 19.5t194 111.5q122 89 189 162q1 3 4.5 3t6.5 -2.5t3 -5.5q-7 -30 -49 -98t-92 -121q-93 -100 -180.5 -147t-147.5 -39q-45 6 -102 43t-82 82q-52 88 -14 268q41 198 172 350q88 104 178 101
q50 -3 121 -56q70 -52 92 -94q26 -40 3 -111.5t-85 -131.5zM342 541q-67 -85 -119 -219q45 21 86 49q128 90 168 174q55 110 21 110q-26 0 -71 -32.5t-85 -81.5zM403 1063q85 79 152 168q30 2 92 -21q55 -24 76 -51q21 -30 12 -141q-12 -118 -35 -160q-4 -6 -23.5 9.5
t-27.5 29.5q-1 9 -0.5 12.5t1.5 28t1 53.5q-3 79 -16 92q-76 -96 -127 -147q-43 -40 -90 -55q-31 -9 -74.5 3.5t-71.5 30.5t-20 23q2 2 28 22.5t62.5 50.5t60.5 52z" />
    <glyph glyph-name="edieresis" unicode="&#xeb;" horiz-adv-x="618" 
d="M313 895q-8 31 -8 45q0 92 14 117q21 41 72 35q83 -6 86 -64q2 -36 -18.5 -73t-52.5 -54q-26 -13 -56.5 -15t-36.5 9zM575 895q-8 31 -8 45q0 115 8 123q13 19 72 10q40 -5 67.5 -21t28.5 -38q2 -33 -19 -64.5t-56 -48.5q-26 -13 -56.5 -15t-36.5 9zM547 406
q-123 -114 -346 -160q-15 -58 -15 -99q-3 -62 23 -75q37 -17 127 19.5t194 111.5q122 89 189 162q1 3 4.5 3t6.5 -2.5t3 -5.5q-7 -30 -49 -98t-92 -121q-93 -100 -180.5 -147t-147.5 -39q-45 6 -102 43t-82 82q-52 88 -14 268q41 198 172 350q88 104 178 101q50 -3 121 -56
q70 -52 92 -94q26 -40 3 -111.5t-85 -131.5zM342 541q-67 -85 -119 -219q45 21 86 49q128 90 168 174q55 110 21 110q-26 0 -71 -32.5t-85 -81.5z" />
    <glyph glyph-name="igrave" unicode="&#xec;" horiz-adv-x="391" 
d="M6 156q0 130 141 471l72 147q17 6 54 -2t59 -29q30 -26 35 -43.5t-7 -54.5q-5 -15 -21 -48t-45.5 -91.5t-51.5 -104.5q-99 -205 -99 -288q0 -37 15 -37q20 0 75.5 43.5t112.5 101.5q85 92 109 131q4 4 8 2t2 -8q-25 -97 -88 -190q-124 -183 -193 -183q-44 0 -106 45
q-72 47 -72 138zM266 1178q19 22 56.5 38t67 21t34.5 0q4 -13 2.5 -19t-6 -42t-4.5 -78q3 -95 57 -203q3 -6 -8.5 -13.5t-22.5 -4.5q-63 12 -137 98q-44 51 -55.5 105.5t16.5 97.5z" />
    <glyph glyph-name="iacute" unicode="&#xed;" horiz-adv-x="391" 
d="M6 156q0 130 141 471l72 147q17 6 54 -2t59 -29q30 -26 35 -43.5t-7 -54.5q-5 -15 -21 -48t-45.5 -91.5t-51.5 -104.5q-99 -205 -99 -288q0 -37 15 -37q20 0 75.5 43.5t112.5 101.5q85 92 109 131q4 4 8 2t2 -8q-25 -97 -88 -190q-124 -183 -193 -183q-44 0 -106 45
q-72 47 -72 138zM618 1124q0 -71 -116 -159q-118 -85 -191 -88q-24 -3 -32 14q-11 14 10 29q85 82 131 170q17 32 30 63t19 47t8 19q5 7 39.5 -4t68 -36.5t33.5 -54.5z" />
    <glyph glyph-name="icircumflex" unicode="&#xee;" horiz-adv-x="391" 
d="M6 156q0 130 141 471l72 147q17 6 54 -2t59 -29q30 -26 35 -43.5t-7 -54.5q-5 -15 -21 -48t-45.5 -91.5t-51.5 -104.5q-99 -205 -99 -288q0 -37 15 -37q20 0 75.5 43.5t112.5 101.5q85 92 109 131q4 4 8 2t2 -8q-25 -97 -88 -190q-124 -183 -193 -183q-44 0 -106 45
q-72 47 -72 138zM272 1063q85 79 152 168q30 2 92 -21q55 -24 76 -51q21 -30 12 -141q-12 -118 -35 -160q-4 -6 -23.5 9.5t-27.5 29.5q-1 9 -0.5 12.5t1.5 28t1 53.5q-3 79 -16 92q-76 -96 -127 -147q-43 -40 -90 -55q-31 -9 -74.5 3.5t-71.5 30.5t-20 23q2 2 28 22.5
t62.5 50.5t60.5 52z" />
    <glyph glyph-name="idieresis" unicode="&#xef;" horiz-adv-x="391" 
d="M6 156q0 130 141 471l72 147q17 6 54 -2t59 -29q30 -26 35 -43.5t-7 -54.5q-5 -15 -21 -48t-45.5 -91.5t-51.5 -104.5q-99 -205 -99 -288q0 -37 15 -37q20 0 75.5 43.5t112.5 101.5q85 92 109 131q4 4 8 2t2 -8q-25 -97 -88 -190q-124 -183 -193 -183q-44 0 -106 45
q-72 47 -72 138zM158 891q-8 31 -8 47q0 91 14 123q21 43 76 37q87 -9 90 -68q2 -38 -20 -77t-56 -56q-25 -17 -58 -18t-38 12zM432 891q-8 31 -8 47q0 121 8 129q13 19 76 10q42 -5 70.5 -21.5t29.5 -39.5q1 -35 -21 -68.5t-59 -50.5q-25 -17 -58 -18t-38 12z" />
    <glyph glyph-name="eth" unicode="&#xf0;" horiz-adv-x="694" 
d="M401 1008q30 12 197 59q0 2 -3 17.5t-7 29.5q-21 70 -72 115q-14 14 -17 20.5t4 9.5t27 3q82 0 140 -64q41 -48 61 -102q30 5 79.5 17t79.5 18t38 2q-16 -92 -51 -109q-35 -18 -125 -41q2 -12 2 -55q0 -359 -170 -664q-85 -155 -169.5 -238t-148.5 -83q-62 0 -143 75
q-86 77 -92 136q-8 64 20 198q27 124 86 240q53 101 119.5 150t124.5 51q40 3 104 -43q66 -48 86 -80q3 8 6 25t5 30t2 14q18 159 20 211q-26 -7 -80 -22q-102 -27 -102 -25q-15 19 -23 55q-9 42 2 50zM203 45q81 0 194 186q111 185 164 394q-2 0 -14.5 9.5t-35.5 19.5
t-50 10q-34 0 -89.5 -51t-103.5 -136q-42 -73 -75 -168q-37 -101 -37 -159q0 -105 47 -105z" />
    <glyph glyph-name="ntilde" unicode="&#xf1;" horiz-adv-x="800" 
d="M109 524q55 156 79 213q2 5 22 5.5t49.5 -7t49.5 -24.5q37 -30 37 -60q0 -23 -45 -121q-32 -62 -43 -92l-111 -260q224 308 304 404q25 30 78 96.5t59 73.5q23 27 26 28q48 0 80 -16q56 -30 56 -76q0 -7 -2.5 -15.5t-10 -24t-14 -27t-21.5 -39.5t-26 -47
q-40 -71 -68 -138q-78 -176 -78 -276q0 -51 19 -51q7 0 31 13.5t67 47t86 76.5q31 34 59.5 67.5t44 53.5t19.5 24q4 6 8 3t2 -9q-22 -93 -108 -221q-109 -160 -191 -160q-37 0 -102 41q-80 53 -80 146q0 74 41 208q25 78 41 117q-33 -33 -160 -194q-201 -254 -219 -295
q-12 -27 -102 35q-26 18 -17 49q65 229 140 452zM211 911q21 49 88 101q64 49 119 49q48 0 135 -33q42 -19 57 -24q64 -24 115 -9q31 12 57.5 25t38.5 20t13 7q8 0 -15 -52q-34 -61 -112 -102q-48 -25 -95 -25q-50 0 -123 33q-76 33 -104 33q-78 0 -172 -64q-17 0 -2 41z
" />
    <glyph glyph-name="ograve" unicode="&#xf2;" horiz-adv-x="671" 
d="M465 510q-7 13 29.5 37t78.5 37.5t50 -0.5q4 -4 30 -60q27 -58 60 -67q63 -15 123 24q6 4 9 2t1 -10q0 -13 -8 -24q-95 -108 -215 -84q-27 -101 -119 -228q-132 -178 -250 -178q-37 0 -96 39q-68 46 -88 80q-53 84 -7 258q55 205 183 346q115 121 252 121q68 0 131 -72
q49 -55 43 -78q-4 -7 -13 -4q-107 34 -213 -31q-120 -73 -194 -219q-74 -145 -74 -254q0 -60 17 -77q9 -6 21 -7t31 10t39.5 28.5t45.5 48.5t49 71q83 139 92 227q3 31 -8 64zM430 1178q19 22 56.5 38t67 21t34.5 0q4 -13 2.5 -19t-6 -42t-4.5 -78q3 -95 57 -203
q3 -6 -8.5 -13.5t-22.5 -4.5q-63 12 -137 98q-44 51 -55.5 105.5t16.5 97.5z" />
    <glyph glyph-name="oacute" unicode="&#xf3;" horiz-adv-x="671" 
d="M465 510q-7 13 29.5 37t78.5 37.5t50 -0.5q4 -4 30 -60q27 -58 60 -67q63 -15 123 24q6 4 9 2t1 -10q0 -13 -8 -24q-95 -108 -215 -84q-27 -101 -119 -228q-132 -178 -250 -178q-37 0 -96 39q-68 46 -88 80q-53 84 -7 258q55 205 183 346q115 121 252 121q68 0 131 -72
q49 -55 43 -78q-4 -7 -13 -4q-107 34 -213 -31q-120 -73 -194 -219q-74 -145 -74 -254q0 -60 17 -77q9 -6 21 -7t31 10t39.5 28.5t45.5 48.5t49 71q83 139 92 227q3 31 -8 64zM831 1120q0 -71 -116 -159q-119 -86 -191 -89q-23 -3 -32 15q-10 14 10 28q85 82 131 170
q17 32 30 63t19 47t8 19q5 7 39.5 -4t68 -36t33.5 -54z" />
    <glyph glyph-name="ocircumflex" unicode="&#xf4;" horiz-adv-x="671" 
d="M465 510q-7 13 29.5 37t78.5 37.5t50 -0.5q4 -4 30 -60q27 -58 60 -67q63 -15 123 24q6 4 9 2t1 -10q0 -13 -8 -24q-95 -108 -215 -84q-27 -101 -119 -228q-132 -178 -250 -178q-37 0 -96 39q-68 46 -88 80q-53 84 -7 258q55 205 183 346q115 121 252 121q68 0 131 -72
q49 -55 43 -78q-4 -7 -13 -4q-107 34 -213 -31q-120 -73 -194 -219q-74 -145 -74 -254q0 -60 17 -77q9 -6 21 -7t31 10t39.5 28.5t45.5 48.5t49 71q83 139 92 227q3 31 -8 64zM498 1063q82 76 151 168q30 2 92 -21q55 -24 76 -51q21 -30 12 -141q-12 -120 -34 -160
q-4 -6 -24 9.5t-28 29.5q-1 9 -0.5 12.5t1.5 28t1 53.5q-3 79 -16 92q-76 -96 -127 -147q-43 -40 -90 -55q-31 -9 -74.5 3.5t-71.5 30.5t-20 23q2 2 28.5 22.5t63 50.5t60.5 52z" />
    <glyph glyph-name="otilde" unicode="&#xf5;" horiz-adv-x="671" 
d="M465 510q-7 13 29.5 37t78.5 37.5t50 -0.5q4 -4 30 -60q27 -58 60 -67q63 -15 123 24q6 4 9 2t1 -10q0 -13 -8 -24q-95 -108 -215 -84q-27 -101 -119 -228q-132 -178 -250 -178q-37 0 -96 39q-68 46 -88 80q-53 84 -7 258q55 205 183 346q115 121 252 121q68 0 131 -72
q49 -55 43 -78q-4 -7 -13 -4q-107 34 -213 -31q-120 -73 -194 -219q-74 -145 -74 -254q0 -60 17 -77q9 -6 21 -7t31 10t39.5 28.5t45.5 48.5t49 71q83 139 92 227q3 31 -8 64zM250 924q20 47 88 100q64 49 119 49q48 0 135 -33q42 -19 57 -24q62 -23 115 -8q31 12 57 25
t38 19.5t13 6.5q5 0 0.5 -13.5t-14.5 -37.5q-34 -61 -113 -103q-47 -24 -94 -24q-52 0 -123 32q-76 33 -104 33q-80 0 -172 -63q-17 0 -2 41z" />
    <glyph glyph-name="odieresis" unicode="&#xf6;" horiz-adv-x="671" 
d="M465 510q-7 13 29.5 37t78.5 37.5t50 -0.5q4 -4 30 -60q27 -58 60 -67q63 -15 123 24q6 4 9 2t1 -10q0 -13 -8 -24q-95 -108 -215 -84q-27 -101 -119 -228q-132 -178 -250 -178q-37 0 -96 39q-68 46 -88 80q-53 84 -7 258q55 205 183 346q115 121 252 121q68 0 131 -72
q49 -55 43 -78q-4 -7 -13 -4q-107 34 -213 -31q-120 -73 -194 -219q-74 -145 -74 -254q0 -60 17 -77q9 -6 21 -7t31 10t39.5 28.5t45.5 48.5t49 71q83 139 92 227q3 31 -8 64zM354 891q-8 31 -8 47q0 91 14 123q21 43 76 37q87 -9 90 -68q2 -38 -19.5 -77t-55.5 -56
q-25 -17 -58.5 -18t-38.5 12zM629 891q-8 31 -8 47q0 121 8 129q13 19 76 10q42 -5 70.5 -21.5t29.5 -39.5q1 -35 -21 -68.5t-59 -50.5q-25 -17 -58 -18t-38 12z" />
    <glyph glyph-name="divide" unicode="&#xf7;" horiz-adv-x="999" 
d="M485 803q-10 23 -10 55q0 135 10 152q15 21 88 12q48 -5 79 -25t32 -49q1 -41 -22.5 -80t-61.5 -59q-30 -18 -69.5 -18.5t-45.5 12.5zM324 145q-11 0 -21 41t-10 80q0 60 12 78q15 27 80 21q108 -9 111 -58q3 -92 -66 -129q-62 -33 -106 -33zM104 600q9 37 23 43
q15 6 190 6q557 0 557 -14q0 -18 -16.5 -51t-32.5 -43q-32 -19 -456 -19q-273 0 -273 15q0 27 8 63z" />
    <glyph glyph-name="oslash" unicode="&#xf8;" horiz-adv-x="729" 
d="M109 -213q-74 0 -74 55q0 24 82 187q-37 30 -47 49q-48 75 -27 223q35 224 180 381q115 121 275 121q16 0 22 -2q24 40 74 117t100 77q36 0 64 -28q8 -11 26 -29q-13 -26 -69.5 -101t-79.5 -112q50 -61 35 -76q-3 -3 -11 0q-26 7 -67 10l-53 -88q70 30 84 13q4 -4 30 -60
q27 -58 60 -67q63 -15 123 24q6 4 9 2t1 -10q0 -13 -8 -24q-95 -108 -215 -84q-38 -150 -91 -228q-126 -184 -264 -184q-21 0 -65 20q-84 -155 -94 -186zM168 135l149 293l99 184q-117 -77 -187 -213q-61 -119 -61 -264zM469 449l-217 -390q79 24 143 131q63 105 78 256v13
q0 -6 -4 -10z" />
    <glyph glyph-name="ugrave" unicode="&#xf9;" horiz-adv-x="778" 
d="M209 754q35 0 98 -29q56 -27 53 -55q-1 -8 -12.5 -32t-39.5 -79t-50 -102q-29 -56 -78 -183q-43 -116 -43 -163q42 9 197 239q158 239 213 371l26 59q91 12 132 -32q39 -41 14 -95q-71 -138 -144 -321q-57 -146 -57 -211q0 -18 1.5 -28.5t6 -16t11 -6t18 5t25 14.5
t34.5 25q62 46 105 92q100 108 123 145q10 13 10 0v-6q-3 -26 -37 -96q-33 -67 -72 -125q-35 -52 -90 -107q-53 -53 -98 -53q-55 0 -102 41q-80 68 -80 150q0 84 35 184q-99 -182 -175 -289q-64 -88 -104 -88q-18 0 -54.5 20.5t-56.5 43.5q-29 32 -20 114q12 156 86 357
q95 256 125 256zM342 1178q19 22 56.5 38t67 21t34.5 0q4 -13 2.5 -19t-6 -42t-4.5 -78q3 -95 57 -203q3 -6 -8.5 -13.5t-22.5 -4.5q-63 12 -137 98q-44 51 -55.5 105.5t16.5 97.5z" />
    <glyph glyph-name="uacute" unicode="&#xfa;" horiz-adv-x="778" 
d="M209 754q35 0 98 -29q56 -27 53 -55q-1 -8 -12.5 -32t-39.5 -79t-50 -102q-29 -56 -78 -183q-43 -116 -43 -163q42 9 197 239q158 239 213 371l26 59q91 12 132 -32q39 -41 14 -95q-71 -138 -144 -321q-57 -146 -57 -211q0 -18 1.5 -28.5t6 -16t11 -6t18 5t25 14.5
t34.5 25q62 46 105 92q100 108 123 145q10 13 10 0v-6q-3 -26 -37 -96q-33 -67 -72 -125q-35 -52 -90 -107q-53 -53 -98 -53q-55 0 -102 41q-80 68 -80 150q0 84 35 184q-99 -182 -175 -289q-64 -88 -104 -88q-18 0 -54.5 20.5t-56.5 43.5q-29 32 -20 114q12 156 86 357
q95 256 125 256zM803 1120q0 -70 -117 -159q-119 -86 -190 -89q-24 -3 -33 15q-10 14 10 28q85 82 131 170q17 32 30.5 63t19.5 47t8 19q5 7 39.5 -4t68 -36t33.5 -54z" />
    <glyph glyph-name="ucircumflex" unicode="&#xfb;" horiz-adv-x="778" 
d="M209 754q35 0 98 -29q56 -27 53 -55q-1 -8 -12.5 -32t-39.5 -79t-50 -102q-29 -56 -78 -183q-43 -116 -43 -163q42 9 197 239q158 239 213 371l26 59q91 12 132 -32q39 -41 14 -95q-71 -138 -144 -321q-57 -146 -57 -211q0 -18 1.5 -28.5t6 -16t11 -6t18 5t25 14.5
t34.5 25q62 46 105 92q100 108 123 145q10 13 10 0v-6q-3 -26 -37 -96q-33 -67 -72 -125q-35 -52 -90 -107q-53 -53 -98 -53q-55 0 -102 41q-80 68 -80 150q0 84 35 184q-99 -182 -175 -289q-64 -88 -104 -88q-18 0 -54.5 20.5t-56.5 43.5q-29 32 -20 114q12 156 86 357
q95 256 125 256zM453 1063q82 76 151 168q30 2 92 -21q55 -24 76 -51q21 -30 12 -141q-12 -120 -34 -160q-4 -6 -24 9.5t-28 29.5q-1 9 -0.5 12.5t1.5 28t1 53.5q-3 79 -16 92q-76 -96 -127 -147q-43 -40 -90 -55q-31 -9 -74.5 3.5t-71.5 30.5t-20 23q2 2 28.5 22.5t63 50.5
t60.5 52z" />
    <glyph glyph-name="udieresis" unicode="&#xfc;" horiz-adv-x="778" 
d="M209 754q35 0 98 -29q56 -27 53 -55q-1 -8 -12.5 -32t-39.5 -79t-50 -102q-29 -56 -78 -183q-43 -116 -43 -163q42 9 197 239q158 239 213 371l26 59q91 12 132 -32q39 -41 14 -95q-71 -138 -144 -321q-57 -146 -57 -211q0 -18 1.5 -28.5t6 -16t11 -6t18 5t25 14.5
t34.5 25q62 46 105 92q100 108 123 145q10 13 10 0v-6q-3 -26 -37 -96q-33 -67 -72 -125q-35 -52 -90 -107q-53 -53 -98 -53q-55 0 -102 41q-80 68 -80 150q0 84 35 184q-99 -182 -175 -289q-64 -88 -104 -88q-18 0 -54.5 20.5t-56.5 43.5q-29 32 -20 114q12 156 86 357
q95 256 125 256zM313 891q-8 31 -8 47q0 91 14 123q21 43 76 37q87 -9 90 -68q2 -38 -19.5 -77t-55.5 -56q-25 -17 -58.5 -18t-38.5 12zM588 891q-8 31 -8 47q0 121 8 129q13 19 76 10q42 -5 70.5 -21.5t29.5 -39.5q1 -35 -21 -68.5t-59 -50.5q-25 -17 -58 -18t-38 12z" />
    <glyph glyph-name="yacute" unicode="&#xfd;" horiz-adv-x="694" 
d="M676 -92q0 -17 -47 -35q-49 -15 -70 -6q-88 49 -164 31q-125 -261 -200 -377q-71 -114 -172 -199q-104 -88 -181 -88q-60 0 -139 76q-79 79 -82 119q-5 40 33.5 103.5t109.5 129.5q81 76 232 162q150 86 260 115q119 234 199 477q-75 -124 -191 -264q-62 -75 -117 -127
q-62 -56 -79 -56q-21 0 -54.5 19t-56.5 45q-18 21 -18 65q0 3 9 25.5t32 81t45 117.5q41 108 75 219q33 123 39 178q51 10 104.5 -16t59.5 -64q10 -69 -90 -285q-68 -142 -107 -221q42 11 142 121q95 104 178 235q34 53 64 126t42 122l13 43q75 3 121 -37q35 -35 26 -90
q-10 -53 -55 -182q-121 -328 -211 -506q70 6 162 -16q88 -21 88 -41zM-219 -604q78 0 199 121q119 117 233 336q-100 -39 -212 -137.5t-200 -237.5q-12 -22 -20 -50.5t0 -31.5zM725 1120q0 -70 -117 -159q-119 -86 -190 -89q-24 -3 -33 15q-10 14 10 28q85 82 131 170
q17 32 30.5 63t19.5 47t8 19q5 7 39.5 -4t68 -36t33.5 -54z" />
    <glyph glyph-name="thorn" unicode="&#xfe;" horiz-adv-x="716" 
d="M207 827q148 449 158 506q1 3 22.5 4t50.5 -3.5t45 -14.5q40 -21 37 -64q-6 -88 -147 -454q-148 -383 -252 -623l297 465q92 148 108 148q50 6 101 -27q26 -13 44.5 -40t18.5 -50q0 -34 -37 -146t-78 -196q-63 -131 -94 -166q89 22 178 67q103 50 146 93q4 4 8.5 3.5
t7 -4t0.5 -6.5q-29 -70 -145 -161q-67 -55 -156 -92q-120 -53 -125 -54q-60 -48 -76 -45q-31 6 -51 39q-21 41 -16 84q38 26 68.5 72t76.5 151q40 93 58 160q20 73 20 98q-9 -9 -180 -256q-149 -216 -217 -354q-43 -84 -103 -250q-62 -170 -69 -180q-12 -17 -40.5 -15
t-53.5 21q-38 28 -48 55q0 3 86 230q71 190 93 250q122 323 264 755z" />
    <glyph glyph-name="ydieresis" unicode="&#xff;" horiz-adv-x="694" 
d="M676 -92q0 -17 -47 -35q-49 -15 -70 -6q-88 49 -164 31q-125 -261 -200 -377q-71 -114 -172 -199q-104 -88 -181 -88q-60 0 -139 76q-79 79 -82 119q-5 40 33.5 103.5t109.5 129.5q81 76 232 162q150 86 260 115q119 234 199 477q-75 -124 -191 -264q-62 -75 -117 -127
q-62 -56 -79 -56q-21 0 -54.5 19t-56.5 45q-18 21 -18 65q0 3 9 25.5t32 81t45 117.5q41 108 75 219q33 123 39 178q51 10 104.5 -16t59.5 -64q10 -69 -90 -285q-68 -142 -107 -221q42 11 142 121q95 104 178 235q34 53 64 126t42 122l13 43q75 3 121 -37q35 -35 26 -90
q-10 -53 -55 -182q-121 -328 -211 -506q70 6 162 -16q88 -21 88 -41zM-219 -604q78 0 199 121q119 117 233 336q-100 -39 -212 -137.5t-200 -237.5q-12 -22 -20 -50.5t0 -31.5zM281 891q-9 34 -9 47q0 88 15 123q21 43 75 37q88 -9 91 -68q2 -38 -20 -77t-56 -56
q-25 -17 -58 -18t-38 12zM555 891q-8 31 -8 47q0 121 8 129q13 19 76 10q42 -5 70.5 -21.5t29.5 -39.5q1 -35 -21 -68.5t-59 -50.5q-25 -17 -58 -18t-38 12z" />
    <glyph glyph-name="Amacron" unicode="&#x100;" horiz-adv-x="1206" 
d="M33 -119q41 81 360 533q-9 -3 -35.5 -11t-49 -14.5t-32.5 -9.5q-14 -5 -43 -12q-50 -11 -71 -9q-58 3 -105 62q-47 56 -47 88q0 30 55.5 50t145.5 20q130 0 262 -33l16 4l29 37q165 227 356 461q187 233 234 270q65 0 123 -49q57 -48 57 -97q0 -19 -16 -65
q-3 -8 -23 -64.5t-37 -105.5q-43 -127 -90 -311v-2q10 2 43 2q13 0 54 -23q36 -20 36 -37q0 -6 -6 -9.5t-21 -6.5t-30.5 -5t-45.5 -5.5t-54 -6.5q-75 -314 -88 -485q-6 -60 -9 -63q-10 -8 -36.5 -7t-64 18t-58.5 42q-1 1 -9 35.5t-26.5 89t-44.5 98.5q-83 141 -203 191
q-70 -113 -303 -521q-52 -94 -119 -94q-47 0 -104 45zM682 635l-45 -66q40 4 135 19q104 13 182 22q63 315 111 490q-63 -56 -162 -174q-108 -129 -221 -291zM895 223q17 156 41 289q-32 -3 -221 -29l-60 -10q78 -49 146.5 -122.5t93.5 -127.5zM948 1561q2 0 16 -1t42.5 -2
t60.5 -2q48 -3 184 -8h318q20 0 -49 -69q-27 -27 -47 -39q-51 -23 -322 -23q-210 0 -240 35q-15 15 4 64q17 45 33 45z" />
    <glyph glyph-name="amacron" unicode="&#x101;" horiz-adv-x="774" 
d="M211 647q98 131 209 131q70 0 164 -98l24 65q2 7 28.5 3t55.5 -17q64 -30 64 -82q0 -11 -27 -78q-3 -8 -12 -26t-21 -41.5t-18 -36.5q-107 -219 -123 -299q-15 -87 4 -92q6 -2 30.5 12t65.5 47t84 76q90 90 119 141q7 3 10 -6q0 -14 -27 -74.5t-61 -115.5
q-42 -66 -92 -121q-59 -62 -100 -62q-58 0 -137 70q-48 42 -45 131q3 40 12 94q-163 -303 -201 -303q-41 0 -83.5 24t-67.5 60q-45 66 -11 244q41 204 156 354zM520 541l37 77q-40 19 -61 19q-82 0 -185 -145t-133 -328q-15 -86 8 -86q7 0 37.5 33t78.5 95t97 134
q83 124 121 201zM250 1010q41 0 98 -2q30 -1 84 -3.5t76 -3.5h256q24 0 -47 -65q-29 -26 -47 -37q-49 -22 -260 -22q-168 0 -195 30q-15 15 4 60q15 43 31 43z" />
    <glyph glyph-name="Abreve" unicode="&#x102;" horiz-adv-x="1206" 
d="M33 -119q41 81 360 533q-9 -3 -35.5 -11t-49 -14.5t-32.5 -9.5q-14 -5 -43 -12q-50 -11 -71 -9q-58 3 -105 62q-47 56 -47 88q0 30 55.5 50t145.5 20q130 0 262 -33l16 4l29 37q165 227 356 461q187 233 234 270q65 0 123 -49q57 -48 57 -97q0 -19 -16 -65
q-3 -8 -23 -64.5t-37 -105.5q-43 -127 -90 -311v-2q10 2 43 2q13 0 54 -23q36 -20 36 -37q0 -6 -6 -9.5t-21 -6.5t-30.5 -5t-45.5 -5.5t-54 -6.5q-75 -314 -88 -485q-6 -60 -9 -63q-10 -8 -36.5 -7t-64 18t-58.5 42q-1 1 -9 35.5t-26.5 89t-44.5 98.5q-83 141 -203 191
q-70 -113 -303 -521q-52 -94 -119 -94q-47 0 -104 45zM682 635l-45 -66q40 4 135 19q104 13 182 22q63 315 111 490q-63 -56 -162 -174q-108 -129 -221 -291zM895 223q17 156 41 289q-32 -3 -221 -29l-60 -10q78 -49 146.5 -122.5t93.5 -127.5zM1063 1628q27 74 104 92
q58 15 74 -4q4 -4 2 -6q-28 -59 -34 -111t4.5 -79t29.5 -29q108 -12 193 90q26 32 44.5 65.5t25 49.5t7.5 16q8 0 19.5 -29t11.5 -51q0 -57 -74 -143t-161 -86q-61 0 -130 28t-96 60q-20 23 -26 64t6 73z" />
    <glyph glyph-name="abreve" unicode="&#x103;" horiz-adv-x="784" 
d="M211 647q98 131 209 131q70 0 164 -98l24 65q2 7 28.5 3t55.5 -17q64 -30 64 -82q0 -11 -27 -78q-3 -8 -12 -26t-21 -41.5t-18 -36.5q-107 -219 -123 -299q-15 -87 4 -92q6 -2 30.5 12t65.5 47t84 76q90 90 119 141q7 3 10 -6q0 -14 -27 -74.5t-61 -115.5
q-42 -66 -92 -121q-59 -62 -100 -62q-58 0 -137 70q-48 42 -45 131q3 40 12 94q-163 -303 -201 -303q-41 0 -83.5 24t-67.5 60q-45 66 -11 244q41 204 156 354zM520 541l37 77q-40 19 -61 19q-82 0 -185 -145t-133 -328q-15 -86 8 -86q7 0 37.5 33t78.5 95t97 134
q83 124 121 201zM338 1116q24 65 108 86q58 15 74 -4q4 -4 2 -6q-33 -72 -41 -130.5t2 -87t29 -30.5q44 -5 102 25t101 84q26 32 45.5 64t27.5 46.5t9 14.5q20 0 20 -78q0 -56 -78 -152t-166 -96q-49 0 -124 37q-80 35 -101 65q-20 31 -22 81.5t12 80.5z" />
    <glyph glyph-name="Aogonek" unicode="&#x104;" horiz-adv-x="1206" 
d="M33 -119q41 81 360 533q-9 -3 -35.5 -11t-49 -14.5t-32.5 -9.5q-14 -5 -43 -12q-50 -11 -71 -9q-58 3 -105 62q-47 56 -47 88q0 30 55.5 50t145.5 20q130 0 262 -33l16 4l29 37q165 227 356 461q187 233 234 270q65 0 123 -49q57 -48 57 -97q0 -19 -16 -65
q-3 -8 -23 -64.5t-37 -105.5q-43 -127 -90 -311v-2q10 2 43 2q13 0 54 -23q36 -20 36 -37q0 -6 -6 -9.5t-21 -6.5t-30.5 -5t-45.5 -5.5t-54 -6.5q-75 -314 -88 -485q-6 -60 -9 -63q-9 -15 -63 0q-32 -45 -43 -62q-59 -87 -68 -155q-12 -66 11 -66q14 -1 33 6t38 18.5
t38.5 26.5t36.5 29.5t30.5 27t20.5 19.5t7 6q5 0 -1 -23.5t-15 -46.5q-31 -73 -76 -126q-33 -39 -65 -39q-48 0 -123 57q-81 59 -78 108q3 94 139 209q20 20 49 35q-12 7 -30 29q-1 1 -9 35.5t-26.5 89t-44.5 98.5q-83 141 -203 191q-70 -113 -303 -521q-52 -94 -119 -94
q-47 0 -104 45zM682 635l-45 -66q40 4 135 19q104 13 182 22q63 315 111 490q-63 -56 -162 -174q-108 -129 -221 -291zM895 223q17 156 41 289q-32 -3 -221 -29l-60 -10q78 -49 146.5 -122.5t93.5 -127.5z" />
    <glyph glyph-name="aogonek" unicode="&#x105;" horiz-adv-x="774" 
d="M211 647q98 131 209 131q70 0 164 -98l24 65q2 7 28.5 3t55.5 -17q64 -30 64 -82q0 -11 -27 -78q-3 -8 -12 -26t-21 -41.5t-18 -36.5q-107 -219 -123 -299q-15 -87 4 -92q6 -2 30.5 12t65.5 47t84 76q90 90 119 141q7 3 10 -6q0 -14 -27 -74.5t-61 -115.5
q-42 -66 -92 -121q-59 -62 -100 -62q-26 0 -76 27q-43 -54 -68 -92q-58 -85 -67 -156q-12 -65 10 -65q19 0 47.5 13.5t55 33.5t50.5 39.5t38.5 33t13.5 13.5q5 0 -1 -23t-16 -47q-33 -77 -75 -127q-33 -39 -66 -39q-47 0 -123 58q-81 59 -78 108q3 93 140 209q46 36 100 66
l-22 18q-48 42 -45 131q3 40 12 94q-163 -303 -201 -303q-41 0 -83.5 24t-67.5 60q-45 66 -11 244q41 204 156 354zM520 541l37 77q-40 19 -61 19q-82 0 -185 -145t-133 -328q-15 -86 8 -86q7 0 37.5 33t78.5 95t97 134q83 124 121 201z" />
    <glyph glyph-name="Cacute" unicode="&#x106;" horiz-adv-x="913" 
d="M508 1468q39 0 100 -20q66 -21 66 -37q-112 -54 -209 -127q-115 -90 -178.5 -201.5t-63.5 -212.5q0 -54 21 -94q68 140 158 251t180 169q171 113 290 113q32 0 102.5 -33.5t133.5 -87.5q70 -61 70 -125q0 -102 -101 -215q-98 -110 -260 -189q-160 -77 -313 -77
q-79 0 -150 26q-69 -172 -69 -340q0 -132 30 -172q27 -41 129 -41q84 0 183 45q110 50 174 95q154 108 207 147q13 10 24 10q10 0 10 -8q0 -3 -10 -20q-140 -177 -274 -291q-136 -115 -219 -115q-63 0 -166 59q-94 54 -172 132q-70 70 -70 180q0 209 82 413
q-104 98 -104 205q0 277 235 484q89 77 164 77zM455 791q-28 -40 -72 -119q30 -6 63 -6q114 -5 253 62t235.5 174.5t91.5 205.5q0 33 -10 46t-39 13q-108 0 -252 -100q-149 -103 -270 -276zM1264 1554q-3 -78 -138 -143q-107 -52 -188 -43q-29 3 -33 14q-11 14 10 29
q72 51 74 53q50 44 78 84q46 69 59 107q5 5 38.5 -9t66.5 -40.5t33 -51.5z" />
    <glyph glyph-name="cacute" unicode="&#x107;" horiz-adv-x="632" 
d="M573 481q-29 -48 -102 -90q-71 -41 -125 -41q-39 0 -49 23q-3 10 6 16q81 52 141 148q45 75 33 110q-3 8 -12 8q-39 0 -119 -80q-85 -85 -136.5 -191.5t-51.5 -197.5q0 -56 15.5 -77t53.5 -21q111 0 271 115q46 33 86.5 68t67.5 62t34 32q10 7 14 -5q0 -19 -42.5 -87.5
t-98.5 -131.5q-69 -81 -148 -123.5t-141 -42.5q-52 0 -108 29.5t-96 81.5q-49 64 -43 174q6 219 157 408q103 127 211 127q55 0 119 -52q63 -51 84 -92q40 -72 -21 -170zM770 1120q0 -70 -117 -159q-119 -86 -190 -89q-24 -3 -33 15q-10 14 10 28q85 82 131 170
q17 32 30.5 63t19.5 47t8 19q5 7 39.5 -4t68 -36t33.5 -54z" />
    <glyph glyph-name="Ccircumflex" unicode="&#x108;" horiz-adv-x="913" 
d="M508 1468q39 0 100 -20q66 -21 66 -37q-112 -54 -209 -127q-115 -90 -178.5 -201.5t-63.5 -212.5q0 -54 21 -94q68 140 158 251t180 169q171 113 290 113q32 0 102.5 -33.5t133.5 -87.5q70 -61 70 -125q0 -102 -101 -215q-98 -110 -260 -189q-160 -77 -313 -77
q-79 0 -150 26q-69 -172 -69 -340q0 -132 30 -172q27 -41 129 -41q84 0 183 45q110 50 174 95q154 108 207 147q13 10 24 10q10 0 10 -8q0 -3 -10 -20q-140 -177 -274 -291q-136 -115 -219 -115q-63 0 -166 59q-94 54 -172 132q-70 70 -70 180q0 209 82 413
q-104 98 -104 205q0 277 235 484q89 77 164 77zM455 791q-28 -40 -72 -119q30 -6 63 -6q114 -5 253 62t235.5 174.5t91.5 205.5q0 33 -10 46t-39 13q-108 0 -252 -100q-149 -103 -270 -276zM856 1647q96 96 137 151q40 3 107 -16q61 -18 80 -43q4 -2 7.5 -10.5t6.5 -24
t5 -29.5t5.5 -36t5.5 -35q8 -39 19 -74t16.5 -49.5t3.5 -16.5q-4 -6 -25.5 1t-35.5 18q-26 19 -55 82q-30 62 -41 98q-85 -101 -126 -138t-87 -50q-38 -7 -77 -0.5t-66.5 22.5t-18.5 27q3 4 26 23t56 47.5t57 52.5z" />
    <glyph glyph-name="ccircumflex" unicode="&#x109;" horiz-adv-x="632" 
d="M573 481q-29 -48 -102 -90q-71 -41 -125 -41q-39 0 -49 23q-3 10 6 16q81 52 141 148q45 75 33 110q-3 8 -12 8q-39 0 -119 -80q-85 -85 -136.5 -191.5t-51.5 -197.5q0 -56 15.5 -77t53.5 -21q111 0 271 115q46 33 86.5 68t67.5 62t34 32q10 7 14 -5q0 -19 -42.5 -87.5
t-98.5 -131.5q-69 -81 -148 -123.5t-141 -42.5q-52 0 -108 29.5t-96 81.5q-49 64 -43 174q6 219 157 408q103 127 211 127q55 0 119 -52q63 -51 84 -92q40 -72 -21 -170zM377 1063q82 76 151 168q31 2 93 -21q53 -23 75 -51q22 -31 13 -141q-12 -118 -35 -160
q-4 -6 -23.5 9.5t-27.5 29.5q-1 9 -0.5 12.5t1.5 28t1 53.5q-3 78 -17 92q-76 -96 -127 -147q-43 -40 -90 -55q-31 -9 -74.5 3.5t-71.5 30.5t-20 23q2 2 28.5 22.5t63 50.5t60.5 52z" />
    <glyph glyph-name="Cdotaccent" unicode="&#x10a;" horiz-adv-x="913" 
d="M508 1468q39 0 100 -20q66 -21 66 -37q-112 -54 -209 -127q-115 -90 -178.5 -201.5t-63.5 -212.5q0 -54 21 -94q68 140 158 251t180 169q171 113 290 113q32 0 102.5 -33.5t133.5 -87.5q70 -61 70 -125q0 -102 -101 -215q-98 -110 -260 -189q-160 -77 -313 -77
q-79 0 -150 26q-69 -172 -69 -340q0 -132 30 -172q27 -41 129 -41q84 0 183 45q110 50 174 95q154 108 207 147q13 10 24 10q10 0 10 -8q0 -3 -10 -20q-140 -177 -274 -291q-136 -115 -219 -115q-63 0 -166 59q-94 54 -172 132q-70 70 -70 180q0 209 82 413
q-104 98 -104 205q0 277 235 484q89 77 164 77zM455 791q-28 -40 -72 -119q30 -6 63 -6q114 -5 253 62t235.5 174.5t91.5 205.5q0 33 -10 46t-39 13q-108 0 -252 -100q-149 -103 -270 -276zM950 1630q41 44 101 25q33 -10 59.5 -45t24.5 -56q-9 -40 -74 -90
q-107 -73 -131 -73q-10 0 -22.5 9t-12.5 15q0 148 55 215z" />
    <glyph glyph-name="cdotaccent" unicode="&#x10b;" horiz-adv-x="632" 
d="M573 481q-29 -48 -102 -90q-71 -41 -125 -41q-39 0 -49 23q-3 10 6 16q81 52 141 148q45 75 33 110q-3 8 -12 8q-39 0 -119 -80q-85 -85 -136.5 -191.5t-51.5 -197.5q0 -56 15.5 -77t53.5 -21q111 0 271 115q46 33 86.5 68t67.5 62t34 32q10 7 14 -5q0 -19 -42.5 -87.5
t-98.5 -131.5q-69 -81 -148 -123.5t-141 -42.5q-52 0 -108 29.5t-96 81.5q-49 64 -43 174q6 219 157 408q103 127 211 127q55 0 119 -52q63 -51 84 -92q40 -72 -21 -170zM504 1104q40 43 100 24q33 -10 59.5 -44.5t24.5 -55.5q-9 -40 -74 -90q-109 -74 -131 -74
q-10 0 -22 9.5t-12 15.5q0 148 55 215z" />
    <glyph glyph-name="Ccaron" unicode="&#x10c;" horiz-adv-x="913" 
d="M508 1468q39 0 100 -20q66 -21 66 -37q-112 -54 -209 -127q-115 -90 -178.5 -201.5t-63.5 -212.5q0 -54 21 -94q68 140 158 251t180 169q171 113 290 113q32 0 102.5 -33.5t133.5 -87.5q70 -61 70 -125q0 -102 -101 -215q-98 -110 -260 -189q-160 -77 -313 -77
q-79 0 -150 26q-69 -172 -69 -340q0 -132 30 -172q27 -41 129 -41q84 0 183 45q110 50 174 95q154 108 207 147q13 10 24 10q10 0 10 -8q0 -3 -10 -20q-140 -177 -274 -291q-136 -115 -219 -115q-63 0 -166 59q-94 54 -172 132q-70 70 -70 180q0 209 82 413
q-104 98 -104 205q0 277 235 484q89 77 164 77zM455 791q-28 -40 -72 -119q30 -6 63 -6q114 -5 253 62t235.5 174.5t91.5 205.5q0 33 -10 46t-39 13q-108 0 -252 -100q-149 -103 -270 -276zM743 1708q-1 3 2 5.5t9 4.5q47 18 110 -8l23 -10q30 -18 53 -82q14 -45 25 -105
q95 74 180 127q44 29 99.5 55.5t66.5 26.5q4 0 -1.5 -14.5t-14.5 -31.5t-15 -25q-4 -5 -22.5 -19t-44.5 -34.5t-44 -36.5l-141 -129q-34 -31 -50 -38.5t-48 -7.5q-33 0 -75 18.5t-58 43.5q0 29 -11 104q-11 54 -43 156z" />
    <glyph glyph-name="ccaron" unicode="&#x10d;" horiz-adv-x="632" 
d="M573 481q-29 -48 -102 -90q-71 -41 -125 -41q-39 0 -49 23q-3 10 6 16q81 52 141 148q45 75 33 110q-3 8 -12 8q-39 0 -119 -80q-85 -85 -136.5 -191.5t-51.5 -197.5q0 -56 15.5 -77t53.5 -21q111 0 271 115q46 33 86.5 68t67.5 62t34 32q10 7 14 -5q0 -19 -42.5 -87.5
t-98.5 -131.5q-69 -81 -148 -123.5t-141 -42.5q-52 0 -108 29.5t-96 81.5q-49 64 -43 174q6 219 157 408q103 127 211 127q55 0 119 -52q63 -51 84 -92q40 -72 -21 -170zM338 1196q-2 11 24.5 17t62.5 0.5t56 -21.5q28 -22 37 -105q6 -79 4 -96q127 96 176 127
q125 82 158 82q4 0 -1.5 -14.5t-14.5 -32t-15 -25.5l-98 -86q-44 -39 -141 -133q-59 -53 -111 -53q-82 0 -117 53q9 52 0 160q0 13 -20 127z" />
    <glyph glyph-name="Dcaron" unicode="&#x10e;" horiz-adv-x="1200" 
d="M354 336q85 324 248 719q45 -3 94 -33q49 -34 49 -92q0 -22 -38 -113q-27 -66 -72 -170q-115 -275 -166 -452q-11 -38 -22.5 -82t-17 -64t-7.5 -22q-28 4 -60 32t-40 52q-14 44 32 225zM74 893q100 189 311 309t438 123q157 3 258 -61q95 -74 176 -174q80 -103 86 -144
q34 -227 -149 -540q-153 -261 -363 -400q-207 -137 -391 -137q-152 0 -254 111q-38 42 -57 88.5t-18 74t12 27.5q2 0 12 -18.5t28.5 -45t45.5 -53t72 -45t100 -18.5q240 0 467 239q222 236 307 523q26 87 31.5 177t-4.5 111q-10 33 -17 45q-13 21 -60 49t-104 40
q-47 18 -182 6q-135 -15 -233 -64q-144 -70 -220.5 -144t-123.5 -192q-34 -91 -19 -170q-20 -8 -76 13q-58 18 -81 51q-64 85 8 219zM825 1722q-2 11 25 17t63 0.5t56 -21.5q28 -22 37 -104q6 -79 4 -96q127 96 176 127q124 81 157 81q4 0 -1.5 -14.5t-14 -31.5t-14.5 -25
l-99 -86q-44 -39 -141 -133q-60 -54 -110 -54q-82 0 -117 54q9 52 0 159q0 7 -21 127z" />
    <glyph glyph-name="dcaron" unicode="&#x10f;" horiz-adv-x="776" 
d="M209 647q98 131 209 131q66 0 162 -96q136 325 186 528q2 7 25 3t53 -17q66 -31 57 -117q-2 -33 -33 -127q-23 -72 -67 -174q-17 -38 -38.5 -89.5t-43.5 -100.5q-13 -30 -41 -94q-111 -254 -125 -326q-15 -87 4 -92q6 -2 30.5 12t65.5 47t84 76q90 90 119 141q7 3 10 -6
q0 -14 -27 -74.5t-61 -115.5q-42 -66 -92 -121q-59 -62 -100 -62q-58 0 -137 70q-49 43 -46 131q2 30 13 94q-156 -295 -197 -295t-83.5 24t-67.5 60q-45 66 -11 244q41 200 152 346zM518 541q23 46 35 77q-36 19 -59 19q-82 0 -185 -145q-99 -141 -129 -320q-15 -86 8 -86
q7 0 37 31.5t78 93t96 131.5q74 107 119 199zM1161 1196q20 -62 -51 -158q-70 -86 -162 -135q-36 -16 -45 -4q-3 8 -1 13.5t9.5 16t8.5 11.5q55 87 73 174q5 27 8.5 61.5t5.5 54.5t5 23q6 2 34.5 4t66.5 -14t48 -47z" />
    <glyph glyph-name="Dcroat" unicode="&#x110;" horiz-adv-x="1200" 
d="M74 893q100 189 311 309t438 123q157 3 258 -61q95 -74 176 -174q80 -103 86 -144q34 -227 -149 -540q-153 -261 -363 -400q-207 -137 -391 -137q-152 0 -254 111q-38 42 -57 88.5t-18 74t12 27.5q2 0 12 -18.5t28.5 -45t45.5 -53t72 -45t100 -18.5q240 0 467 239
q222 236 307 523q26 87 31.5 177t-4.5 111q-10 33 -17 45q-13 21 -60 49t-104 40q-47 18 -182 6q-135 -15 -233 -64q-144 -70 -220.5 -144t-123.5 -192q-34 -91 -19 -170q-20 -8 -76 13q-58 18 -81 51q-64 85 8 219zM315 600q6 0 25.5 -1t48 -2.5t43.5 -2.5q78 234 170 461
q45 -3 94 -33q49 -34 49 -92q0 -22 -38 -113q-27 -66 -72 -170l-25 -57q45 0 97.5 0.5t86.5 1t35 0.5q22 0 -33 -53l-14 -13q-29 -26 -47 -37q-43 -19 -174 -22q-53 -135 -92 -272q-11 -38 -22.5 -82t-17 -64t-7.5 -22q-28 4 -60 32t-40 52q-14 44 32 225l37 133
q-90 6 -110 29q-14 14 4 59q15 43 30 43z" />
    <glyph glyph-name="dslash" unicode="&#x111;" horiz-adv-x="776" 
d="M547 952q20 57 39 64q15 6 123 6q31 88 57 188q2 7 25 3t53 -17q66 -31 57 -117l-10 -57q173 3 194 0q-6 -35 -40 -77.5t-70 -59.5q-46 -18 -139 -21q-36 -94 -158 -370q-111 -254 -125 -326q-15 -87 4 -92q6 -2 30.5 12t65.5 47t84 76q90 90 119 141q7 3 10 -6
q0 -14 -27 -74.5t-61 -115.5q-42 -66 -92 -121q-59 -62 -100 -62q-58 0 -137 70q-49 43 -46 131q2 30 13 94q-156 -295 -197 -295t-83.5 24t-67.5 60q-45 66 -11 244q41 200 152 346q98 131 209 131q66 0 162 -96q14 30 71 182q-127 0 -127 4q0 20 23 84zM518 541
q23 46 35 77q-36 19 -59 19q-82 0 -185 -145q-99 -141 -129 -320q-15 -86 8 -86q7 0 37 31.5t78 93t96 131.5q74 107 119 199z" />
    <glyph glyph-name="Emacron" unicode="&#x112;" 
d="M635 811q132 72 213 205q71 118 53 188q-29 16 -131 -10q-117 -28 -262 -133q-254 -181 -254 -371q0 -44 29.5 -92t64.5 -76l33 -24q89 28 143 28q36 0 70 -49q33 -50 33 -84q0 -22 -21 -50t-35 -28q-47 0 -90 19l-14 6q-93 -15 -197 -82q-58 -36 -98.5 -88t-34.5 -74
q48 -48 162 -45q76 3 182 43q101 38 189 94q102 65 221 170q17 17 20 0q0 -7 -6 -22q-20 -50 -123 -162q-107 -117 -219 -188q-71 -47 -166 -68q-91 -17 -151 -2q-80 25 -144 107q-67 85 -75 143q-5 31 25 84t83 102q39 35 86.5 66t77.5 45l25 10q-94 48 -158 127
q-66 78 -66 139q0 81 54 193.5t153 208.5q113 107 246 172q131 61 223 61q58 0 162 -78q102 -77 111 -122q22 -91 -80 -222q-109 -140 -256 -188q-42 -14 -84 -20t-65 -5.5t-27 4.5q-19 13 -13 29q0 1 11.5 2t39.5 10t60 27zM559 1583q2 0 16 -0.5t43 -1.5t60 -2
q48 -3 184 -8h318q20 0 -50 -70q-27 -27 -47 -39q-49 -22 -321 -22q-210 0 -240 35q-15 15 4 63q17 45 33 45z" />
    <glyph glyph-name="emacron" unicode="&#x113;" horiz-adv-x="618" 
d="M270 1012q5 0 32.5 -4.5t81 -9.5t118.5 -7q35 -2 266 -2q21 0 -23 -53q-25 -32 -45 -39q-77 -25 -274 -25q-163 0 -188 25q-11 8 -2 61q9 51 34 54zM547 406q-123 -114 -346 -160q-15 -58 -15 -99q-3 -62 23 -75q37 -17 127 19.5t194 111.5q122 89 189 162q1 3 4.5 3
t6.5 -2.5t3 -5.5q-7 -30 -49 -98t-92 -121q-93 -100 -180.5 -147t-147.5 -39q-45 6 -102 43t-82 82q-52 88 -14 268q41 198 172 350q88 104 178 101q50 -3 121 -56q70 -52 92 -94q26 -40 3 -111.5t-85 -131.5zM342 541q-67 -85 -119 -219q45 21 86 49q128 90 168 174
q55 110 21 110q-26 0 -71 -32.5t-85 -81.5z" />
    <glyph glyph-name="Ebreve" unicode="&#x114;" 
d="M635 811q132 72 213 205q71 118 53 188q-29 16 -131 -10q-117 -28 -262 -133q-254 -181 -254 -371q0 -44 29.5 -92t64.5 -76l33 -24q89 28 143 28q36 0 70 -49q33 -50 33 -84q0 -22 -21 -50t-35 -28q-47 0 -90 19l-14 6q-93 -15 -197 -82q-58 -36 -98.5 -88t-34.5 -74
q48 -48 162 -45q76 3 182 43q101 38 189 94q102 65 221 170q17 17 20 0q0 -7 -6 -22q-20 -50 -123 -162q-107 -117 -219 -188q-71 -47 -166 -68q-91 -17 -151 -2q-80 25 -144 107q-67 85 -75 143q-5 31 25 84t83 102q39 35 86.5 66t77.5 45l25 10q-94 48 -158 127
q-66 78 -66 139q0 81 54 193.5t153 208.5q113 107 246 172q131 61 223 61q58 0 162 -78q102 -77 111 -122q22 -91 -80 -222q-109 -140 -256 -188q-42 -14 -84 -20t-65 -5.5t-27 4.5q-19 13 -13 29q0 1 11.5 2t39.5 10t60 27zM692 1628q27 74 105 92q57 15 73 -4q4 -4 2 -6
q-28 -59 -34 -111t4.5 -79t29.5 -29q108 -12 193 90q26 32 44.5 65.5t25.5 49.5t8 16q8 0 19.5 -29t11.5 -51q0 -57 -74 -143t-162 -86q-61 0 -129.5 28t-95.5 60q-20 23 -26.5 64t5.5 73z" />
    <glyph glyph-name="ebreve" unicode="&#x115;" horiz-adv-x="618" 
d="M547 406q-123 -114 -346 -160q-15 -58 -15 -99q-3 -62 23 -75q37 -17 127 19.5t194 111.5q122 89 189 162q1 3 4.5 3t6.5 -2.5t3 -5.5q-7 -30 -49 -98t-92 -121q-93 -100 -180.5 -147t-147.5 -39q-45 6 -102 43t-82 82q-52 88 -14 268q41 198 172 350q88 104 178 101
q50 -3 121 -56q70 -52 92 -94q26 -40 3 -111.5t-85 -131.5zM342 541q-67 -85 -119 -219q45 21 86 49q128 90 168 174q55 110 21 110q-26 0 -71 -32.5t-85 -81.5zM340 1116q24 64 109 86q57 15 73 -4q4 -4 2 -6q-33 -72 -41 -130.5t2 -87t29 -30.5q44 -5 102 25t101 84
q26 32 45.5 64t27.5 46.5t9 14.5q20 0 20 -78q0 -56 -78 -152t-166 -96q-49 0 -124 37q-80 35 -101 65q-20 31 -22 81.5t12 80.5z" />
    <glyph glyph-name="Edotaccent" unicode="&#x116;" 
d="M635 811q132 72 213 205q71 118 53 188q-29 16 -131 -10q-117 -28 -262 -133q-254 -181 -254 -371q0 -44 29.5 -92t64.5 -76l33 -24q89 28 143 28q36 0 70 -49q33 -50 33 -84q0 -22 -21 -50t-35 -28q-47 0 -90 19l-14 6q-93 -15 -197 -82q-58 -36 -98.5 -88t-34.5 -74
q48 -48 162 -45q76 3 182 43q101 38 189 94q102 65 221 170q17 17 20 0q0 -7 -6 -22q-20 -50 -123 -162q-107 -117 -219 -188q-71 -47 -166 -68q-91 -17 -151 -2q-80 25 -144 107q-67 85 -75 143q-5 31 25 84t83 102q39 35 86.5 66t77.5 45l25 10q-94 48 -158 127
q-66 78 -66 139q0 81 54 193.5t153 208.5q113 107 246 172q131 61 223 61q58 0 162 -78q102 -77 111 -122q22 -91 -80 -222q-109 -140 -256 -188q-42 -14 -84 -20t-65 -5.5t-27 4.5q-19 13 -13 29q0 1 11.5 2t39.5 10t60 27zM858 1706q40 43 100 25q33 -10 59.5 -45
t24.5 -56q-9 -41 -73 -90q-109 -74 -131 -74q-10 0 -22.5 9.5t-12.5 15.5q0 148 55 215z" />
    <glyph glyph-name="edotaccent" unicode="&#x117;" horiz-adv-x="618" 
d="M547 406q-123 -114 -346 -160q-15 -58 -15 -99q-3 -62 23 -75q37 -17 127 19.5t194 111.5q122 89 189 162q1 3 4.5 3t6.5 -2.5t3 -5.5q-7 -30 -49 -98t-92 -121q-93 -100 -180.5 -147t-147.5 -39q-45 6 -102 43t-82 82q-52 88 -14 268q41 198 172 350q88 104 178 101
q50 -3 121 -56q70 -52 92 -94q26 -40 3 -111.5t-85 -131.5zM342 541q-67 -85 -119 -219q45 21 86 49q128 90 168 174q55 110 21 110q-26 0 -71 -32.5t-85 -81.5zM549 1104q40 43 100 24q33 -10 59.5 -44.5t24.5 -55.5q-9 -40 -74 -90q-109 -74 -131 -74q-10 0 -22 9.5
t-12 15.5q0 148 55 215z" />
    <glyph glyph-name="Eogonek" unicode="&#x118;" 
d="M635 811q132 72 213 205q71 118 53 188q-29 16 -131 -10q-117 -28 -262 -133q-254 -181 -254 -371q0 -44 29.5 -92t64.5 -76l33 -24q89 28 143 28q36 0 70 -49q33 -50 33 -84q0 -22 -21 -50t-35 -28q-47 0 -90 19l-14 6q-93 -15 -197 -82q-58 -36 -98.5 -88t-34.5 -74
q48 -48 162 -45q76 3 182 43q101 38 189 94q102 65 221 170q17 17 20 0q0 -7 -6 -22q-20 -50 -123 -162q-107 -117 -219 -188l-28 -17l-43 -61q-59 -86 -68 -156q-12 -65 10 -65q19 0 47.5 13.5t55 33.5t50.5 39.5t38.5 33t13.5 13.5q5 0 -1 -23.5t-15 -46.5
q-32 -75 -76 -127q-33 -39 -66 -39q-47 0 -123 58q-80 59 -77 108q3 79 88 164q-79 -9 -123 2q-80 25 -144 107q-67 85 -75 143q-5 31 25 84t83 102q39 35 86.5 66t77.5 45l25 10q-94 48 -158 127q-66 78 -66 139q0 81 54 193.5t153 208.5q113 107 246 172q131 61 223 61
q58 0 162 -78q102 -77 111 -122q22 -91 -80 -222q-109 -140 -256 -188q-42 -14 -84 -20t-65 -5.5t-27 4.5q-19 13 -13 29q0 1 11.5 2t39.5 10t60 27z" />
    <glyph glyph-name="eogonek" unicode="&#x119;" horiz-adv-x="618" 
d="M541 406q-123 -114 -346 -160q-15 -58 -15 -99q-3 -62 23 -75q37 -17 127 19.5t194 111.5q122 89 189 162q1 3 4.5 3t6.5 -2.5t3 -5.5q-7 -30 -49 -98t-92 -121q-148 -160 -281 -184l-41 -59q-58 -85 -67 -156q-12 -66 10 -66q19 -2 47.5 12t55 34t50.5 41t38 34l14 13
q5 0 -1 -23t-16 -47q-32 -75 -76 -127q-33 -39 -65 -39q-48 0 -123 57q-81 59 -78 109q3 93 140 209l22 18q-104 43 -141 113q-53 89 -15 268q41 198 172 350q88 104 179 101q49 -3 120 -56q72 -54 93 -94q26 -40 3 -111.5t-85 -131.5zM336 541q-67 -85 -119 -219
q45 21 86 49q128 90 168 174q55 110 21 110q-26 0 -71 -32.5t-85 -81.5z" />
    <glyph glyph-name="Ecaron" unicode="&#x11a;" 
d="M635 811q132 72 213 205q71 118 53 188q-29 16 -131 -10q-117 -28 -262 -133q-254 -181 -254 -371q0 -44 29.5 -92t64.5 -76l33 -24q89 28 143 28q36 0 70 -49q33 -50 33 -84q0 -22 -21 -50t-35 -28q-47 0 -90 19l-14 6q-93 -15 -197 -82q-58 -36 -98.5 -88t-34.5 -74
q48 -48 162 -45q76 3 182 43q101 38 189 94q102 65 221 170q17 17 20 0q0 -7 -6 -22q-20 -50 -123 -162q-107 -117 -219 -188q-71 -47 -166 -68q-91 -17 -151 -2q-80 25 -144 107q-67 85 -75 143q-5 31 25 84t83 102q39 35 86.5 66t77.5 45l25 10q-94 48 -158 127
q-66 78 -66 139q0 81 54 193.5t153 208.5q113 107 246 172q131 61 223 61q58 0 162 -78q102 -77 111 -122q22 -91 -80 -222q-109 -140 -256 -188q-42 -14 -84 -20t-65 -5.5t-27 4.5q-19 13 -13 29q0 1 11.5 2t39.5 10t60 27zM680 1749q-3 7 10 10q48 18 111 -8l22 -10
q31 -19 54 -82q12 -37 24 -105q95 74 180 127q44 29 99.5 55.5t66.5 26.5q4 0 -1.5 -14.5t-14 -31.5t-14.5 -25q-4 -5 -22.5 -19t-44.5 -34.5t-44 -36.5l-141 -129q-34 -31 -50.5 -38.5t-48.5 -7.5q-33 0 -75 18.5t-58 43.5q0 36 -10 104q-11 54 -43 156z" />
    <glyph glyph-name="ecaron" unicode="&#x11b;" horiz-adv-x="618" 
d="M547 406q-123 -114 -346 -160q-15 -58 -15 -99q-3 -62 23 -75q37 -17 127 19.5t194 111.5q122 89 189 162q1 3 4.5 3t6.5 -2.5t3 -5.5q-7 -30 -49 -98t-92 -121q-93 -100 -180.5 -147t-147.5 -39q-45 6 -102 43t-82 82q-52 88 -14 268q41 198 172 350q88 104 178 101
q50 -3 121 -56q70 -52 92 -94q26 -40 3 -111.5t-85 -131.5zM342 541q-67 -85 -119 -219q45 21 86 49q128 90 168 174q55 110 21 110q-26 0 -71 -32.5t-85 -81.5zM397 1196q-2 11 25 17t63 0.5t56 -21.5q28 -22 37 -105q6 -79 4 -96q127 96 176 127q125 82 157 82
q4 0 -1.5 -14.5t-14 -32t-14.5 -25.5l-99 -86q-44 -39 -141 -133q-59 -53 -110 -53q-82 0 -117 53q9 52 0 160q0 7 -21 127z" />
    <glyph glyph-name="Gcircumflex" unicode="&#x11c;" horiz-adv-x="1021" 
d="M522 1468q39 0 103 -20q66 -22 63 -37q-112 -54 -209 -127q-114 -90 -177.5 -201.5t-63.5 -212.5q0 -55 20 -94q80 170 209 305q217 228 420 228q47 0 135 -52q89 -53 145 -120q76 -94 -63 -267q-111 -136 -261.5 -212t-324.5 -76q-78 0 -149 26q-73 -180 -70 -352
q3 -128 49 -174q9 -9 35.5 -19.5t76 -15.5t105.5 16q70 24 125 73t127 145q-58 -7 -94 -7q-150 -3 -186 25q-12 10 -32 38t-33.5 53.5t-8.5 27.5q-1 0 2.5 -1t11.5 -2.5t20.5 -3.5t31 -3t40.5 -1.5t51.5 1t62 4t74 7.5t85.5 13q45 7 88 19t66.5 20t29.5 8q5 0 14 -35
q9 -38 9 -53q0 -41 -22.5 -59t-82.5 -31q-11 -3 -55 -10q18 -121 4 -144q-51 -92 -160 -157q-109 -62 -196 -62q-64 0 -158 54q-90 53 -164 127q-70 70 -70 180q0 209 82 413q-104 98 -104 205q0 277 235 484q89 77 164 77zM469 791q-28 -40 -72 -119q30 -6 64 -6
q247 0 442 186q85 82 118.5 170t6.5 139q-54 25 -178 -33q-212 -95 -381 -337zM899 1542q94 94 137 152q37 3 107 -17q61 -18 80 -43q4 -2 7.5 -10.5t6.5 -24t5 -29.5t5.5 -36t5.5 -35q8 -39 19 -73.5t16 -49t4 -16.5q-4 -6 -25.5 0.5t-35.5 17.5q-26 19 -55 82
q-29 61 -41 99q-86 -102 -127 -139t-86 -50q-38 -7 -77 -0.5t-66.5 22.5t-18.5 27q3 4 26 23t56 47.5t57 52.5z" />
    <glyph glyph-name="gcircumflex" unicode="&#x11d;" horiz-adv-x="581" 
d="M498 635q21 -3 53 -35q35 -35 35 -68q0 -35 -21 -59q-25 -32 -104 -111q-18 -18 -244 -231q54 15 98 -16q64 -48 97 -158l2 -4v-6q95 14 192 14q15 0 6 -24q-6 -21 -18 -21q-71 0 -170 -22q21 -199 -113 -402q-95 -141 -215 -209q-121 -65 -200 -65q-83 0 -172 77
q-89 80 -89 136q0 74 91.5 179.5t244.5 188.5q170 91 359 133q3 35 -6 70q-4 14 -20.5 16t-39 -5t-44.5 -16t-43 -17t-30 -9q-52 0 -86 58q-28 51 -28 77q-3 2 38.5 42t92.5 88.5t63 66.5q-30 -21 -77.5 -20.5t-73.5 24.5q-24 21 -43 61t-19 74q0 66 40.5 138.5t107.5 126.5
q128 96 264 96q46 0 79 -17.5t51 -40t42 -65.5q17 -30 3 -39q-3 -2 -7 0q-76 29 -127 29q-44 0 -109.5 -26.5t-109.5 -63.5q-55 -47 -90 -109t-27 -88q9 -22 74 8q66 31 123 76q124 95 170 168zM227 -352q65 96 92 217q-139 -47 -233 -117q-107 -78 -184.5 -160t-100.5 -129
q-18 -41 -18 -59q0 -27 90 -6q166 41 297 184q38 44 57 70zM358 1063q85 79 152 168q30 2 92 -21q55 -24 76 -51q21 -30 12 -141q-12 -118 -35 -160q-4 -6 -23.5 9.5t-27.5 29.5q-1 9 -0.5 12.5t1.5 28t1 53.5q-3 79 -16 92q-76 -96 -127 -147q-43 -40 -90 -55
q-31 -9 -74.5 3.5t-71.5 30.5t-20 23q2 2 28 22.5t62.5 50.5t60.5 52z" />
    <glyph glyph-name="Gbreve" unicode="&#x11e;" horiz-adv-x="1021" 
d="M522 1468q39 0 103 -20q66 -22 63 -37q-112 -54 -209 -127q-114 -90 -177.5 -201.5t-63.5 -212.5q0 -55 20 -94q80 170 209 305q217 228 420 228q47 0 135 -52q89 -53 145 -120q76 -94 -63 -267q-111 -136 -261.5 -212t-324.5 -76q-78 0 -149 26q-73 -180 -70 -352
q3 -128 49 -174q9 -9 35.5 -19.5t76 -15.5t105.5 16q70 24 125 73t127 145q-58 -7 -94 -7q-150 -3 -186 25q-12 10 -32 38t-33.5 53.5t-8.5 27.5q-1 0 2.5 -1t11.5 -2.5t20.5 -3.5t31 -3t40.5 -1.5t51.5 1t62 4t74 7.5t85.5 13q45 7 88 19t66.5 20t29.5 8q5 0 14 -35
q9 -38 9 -53q0 -41 -22.5 -59t-82.5 -31q-11 -3 -55 -10q18 -121 4 -144q-51 -92 -160 -157q-109 -62 -196 -62q-64 0 -158 54q-90 53 -164 127q-70 70 -70 180q0 209 82 413q-104 98 -104 205q0 277 235 484q89 77 164 77zM469 791q-28 -40 -72 -119q30 -6 64 -6
q247 0 442 186q85 82 118.5 170t6.5 139q-54 25 -178 -33q-212 -95 -381 -337zM815 1577q27 74 105 92q57 15 73 -4q4 -4 2 -6q-28 -59 -34 -111t4.5 -79t29.5 -29q108 -12 193 90q26 32 44.5 65.5t25.5 49.5t8 16q8 0 19 -28.5t11 -51.5q0 -58 -73 -143q-74 -86 -162 -86
q-61 0 -129.5 28t-95.5 60q-20 23 -26.5 64t5.5 73z" />
    <glyph glyph-name="gbreve" unicode="&#x11f;" horiz-adv-x="581" 
d="M485 514q23 -12 41 -41q42 -60 21 -100q0 -7 -23.5 -24t-70.5 -47.5t-78 -53.5q-78 -58 -162 -139q92 12 135 -17q26 -19 56 -60t40 -77v-4q78 10 162 10q15 0 6 -24q-6 -21 -18 -21q-53 0 -141 -16q15 -176 -131 -396q-94 -140 -222 -215q-127 -71 -204 -71
q-83 0 -172 77q-89 80 -89 136q0 74 91.5 179.5t244.5 188.5q169 91 375 135q3 37 -4 64q-11 27 -51 28t-82 -13t-82.5 -29t-46.5 -15q-27 0 -47 33q-19 32 -19 76q0 14 54 74q49 54 114 110q-40 -9 -71 2q-25 11 -60 51q-39 42 -39 78q0 157 164 289q116 94 248 94
q67 0 104 -16q24 -10 52 -51q30 -51 32 -72q1 -6 1.5 -10.5t-0.5 -8t-2 -5.5t-3.5 -2t-5.5 1q-52 16 -135 13q-109 -3 -223 -105q-47 -41 -77 -92.5t-30 -79.5q14 -18 135 35q70 31 115 63q5 3 44 31t54 37zM227 -352q78 116 107 221q-147 -48 -248 -121
q-107 -78 -184.5 -160t-100.5 -129q-18 -41 -18 -59q0 -27 90 -6q166 41 297 184q38 44 57 70zM319 1116q24 64 109 86q58 15 74 -4q4 -4 2 -6q-33 -72 -41 -130.5t2 -87t29 -30.5q44 -5 101.5 25t100.5 84q26 32 45.5 64t27.5 46.5t9 14.5q21 0 21 -78q0 -56 -78 -152
t-166 -96q-50 0 -125 37q-78 34 -100 65q-20 31 -22.5 81.5t11.5 80.5z" />
    <glyph glyph-name="Gdotaccent" unicode="&#x120;" horiz-adv-x="1021" 
d="M522 1468q39 0 103 -20q66 -22 63 -37q-112 -54 -209 -127q-114 -90 -177.5 -201.5t-63.5 -212.5q0 -55 20 -94q80 170 209 305q217 228 420 228q47 0 135 -52q89 -53 145 -120q76 -94 -63 -267q-111 -136 -261.5 -212t-324.5 -76q-78 0 -149 26q-73 -180 -70 -352
q3 -128 49 -174q9 -9 35.5 -19.5t76 -15.5t105.5 16q70 24 125 73t127 145q-58 -7 -94 -7q-150 -3 -186 25q-12 10 -32 38t-33.5 53.5t-8.5 27.5q-1 0 2.5 -1t11.5 -2.5t20.5 -3.5t31 -3t40.5 -1.5t51.5 1t62 4t74 7.5t85.5 13q45 7 88 19t66.5 20t29.5 8q5 0 14 -35
q9 -38 9 -53q0 -41 -22.5 -59t-82.5 -31q-11 -3 -55 -10q18 -121 4 -144q-51 -92 -160 -157q-109 -62 -196 -62q-64 0 -158 54q-90 53 -164 127q-70 70 -70 180q0 209 82 413q-104 98 -104 205q0 277 235 484q89 77 164 77zM469 791q-28 -40 -72 -119q30 -6 64 -6
q247 0 442 186q85 82 118.5 170t6.5 139q-54 25 -178 -33q-212 -95 -381 -337zM954 1638q41 44 101 25q33 -10 59.5 -44.5t24.5 -55.5q-9 -40 -74 -90q-109 -74 -131 -74q-10 0 -22.5 9t-12.5 15q0 148 55 215z" />
    <glyph glyph-name="gdotaccent" unicode="&#x121;" horiz-adv-x="581" 
d="M485 514q23 -12 41 -41q42 -60 21 -100q0 -7 -23.5 -24t-70.5 -47.5t-78 -53.5q-78 -58 -162 -139q92 12 135 -17q26 -19 56 -60t40 -77v-4q78 10 162 10q15 0 6 -24q-6 -21 -18 -21q-53 0 -141 -16q15 -176 -131 -396q-94 -140 -222 -215q-127 -71 -204 -71
q-83 0 -172 77q-89 80 -89 136q0 74 91.5 179.5t244.5 188.5q169 91 375 135q3 37 -4 64q-11 27 -51 28t-82 -13t-82.5 -29t-46.5 -15q-27 0 -47 33q-19 32 -19 76q0 14 54 74q49 54 114 110q-40 -9 -71 2q-25 11 -60 51q-39 42 -39 78q0 157 164 289q116 94 248 94
q67 0 104 -16q24 -10 52 -51q30 -51 32 -72q1 -6 1.5 -10.5t-0.5 -8t-2 -5.5t-3.5 -2t-5.5 1q-52 16 -135 13q-109 -3 -223 -105q-47 -41 -77 -92.5t-30 -79.5q14 -18 135 35q70 31 115 63q5 3 44 31t54 37zM227 -352q78 116 107 221q-147 -48 -248 -121
q-107 -78 -184.5 -160t-100.5 -129q-18 -41 -18 -59q0 -27 90 -6q166 41 297 184q38 44 57 70zM504 1104q40 43 100 24q33 -10 59.5 -44.5t24.5 -55.5q-9 -40 -74 -90q-109 -74 -131 -74q-10 0 -22 9.5t-12 15.5q0 148 55 215z" />
    <glyph glyph-name="uni0122" unicode="&#x122;" horiz-adv-x="1021" 
d="M543 1468q38 0 102 -20q67 -22 64 -37q-112 -54 -209 -127q-115 -90 -178.5 -201.5t-63.5 -212.5q0 -54 21 -94q81 172 208 305q217 228 420 228q47 0 135 -52q91 -54 146 -120q75 -93 -64 -267q-111 -137 -261.5 -212.5t-323.5 -75.5q-79 0 -150 26q-73 -180 -70 -352
q3 -127 50 -174q9 -9 35.5 -19.5t76 -15.5t105.5 16q70 24 125 73t127 145q-58 -7 -95 -7q-150 -3 -186 25q-12 10 -32 38t-33.5 53.5t-8.5 27.5q-1 0 2.5 -1t11.5 -2.5t20.5 -3.5t31 -3t40.5 -1.5t51.5 1t62 4t74 7.5t85.5 13q45 7 88 19t67 20t30 8q5 0 14 -35
q8 -33 8 -53q0 -41 -22.5 -59.5t-81.5 -30.5q-9 -2 -56 -10q18 -121 4 -144q-52 -93 -159 -157q-109 -62 -197 -62q-64 0 -158 54q-87 51 -163 127q-70 70 -70 180q0 209 82 413q-105 99 -105 205q0 276 236 484q89 77 164 77zM489 791q-22 -32 -71 -119q30 -6 63 -6
q248 0 443 186q85 82 118.5 170t6.5 139q-54 25 -179 -33q-212 -95 -381 -337zM274 -158q-3 14 40 16q66 3 106 -28q27 -20 24 -51q0 -73 -96 -166q-95 -92 -158 -92q-28 0 -14 33q74 103 98 288z" />
    <glyph glyph-name="uni0123" unicode="&#x123;" horiz-adv-x="581" 
d="M485 514q23 -12 41 -41q42 -60 21 -100q0 -7 -23.5 -24t-70.5 -47.5t-78 -53.5q-78 -58 -162 -139q92 12 135 -17q26 -19 56 -60t40 -77v-4q78 10 162 10q15 0 6 -24q-6 -21 -18 -21q-53 0 -141 -16q15 -176 -131 -396q-94 -140 -222 -215q-127 -71 -204 -71
q-83 0 -172 77q-89 80 -89 136q0 74 91.5 179.5t244.5 188.5q169 91 375 135q3 37 -4 64q-11 27 -51 28t-82 -13t-82.5 -29t-46.5 -15q-27 0 -47 33q-19 32 -19 76q0 14 54 74q49 54 114 110q-40 -9 -71 2q-25 11 -60 51q-39 42 -39 78q0 157 164 289q116 94 248 94
q67 0 104 -16q24 -10 52 -51q30 -51 32 -72q1 -6 1.5 -10.5t-0.5 -8t-2 -5.5t-3.5 -2t-5.5 1q-52 16 -135 13q-109 -3 -223 -105q-47 -41 -77 -92.5t-30 -79.5q14 -18 135 35q70 31 115 63q5 3 44 31t54 37zM227 -352q78 116 107 221q-147 -48 -248 -121
q-107 -78 -184.5 -160t-100.5 -129q-18 -41 -18 -59q0 -27 90 -6q166 41 297 184q38 44 57 70zM412 924q0 78 123 172q118 85 190 88q24 3 33 -15q10 -14 -10 -28q-87 -84 -138 -183q-17 -32 -30 -63t-19 -47t-8 -19q-5 -7 -39.5 4t-68 36.5t-33.5 54.5z" />
    <glyph glyph-name="Hcircumflex" unicode="&#x124;" horiz-adv-x="1271" 
d="M401 535q5 0 29 -2.5t66 -5.5t86 -5l12 37q179 506 192 576q18 94 2 104q-5 3 -17.5 2.5t-42.5 -17.5t-64.5 -41t-83 -68t-99.5 -99q-129 -141 -186 -307q-62 -171 -62 -281q0 -34 7.5 -65.5t12.5 -44.5t3 -13q-28 -5 -76.5 9.5t-73.5 39.5q-47 47 -47 131q0 176 113 377
q56 102 142.5 203t170.5 166q168 127 254 127q32 0 129 -72q94 -73 97 -117q3 -55 -13 -110q-14 -51 -86 -240l-118 -303h16q176 -4 272 -4l129 373q90 270 97 317q37 -3 92 -39q53 -38 53 -76q0 -46 -64 -213q-57 -138 -122 -313q-8 -15 -15 -41q11 1 84 15q4 1 6 -1.5
t4 -9.5q-3 -13 -12 -32q-12 -24 -38 -53.5t-36 -30.5q-22 -4 -57 -13q-179 -470 -188 -524q-40 8 -77.5 40.5t-37.5 63.5q0 14 84 261l49 143q-136 -4 -184 -4q-31 -2 -113 -2l-59 -158q-67 -188 -72 -238q-37 6 -70 30.5t-43 55.5q-15 40 84 318q-27 4 -41 10q-32 8 -77 94
q-24 50 -11 50zM1034 1542q93 94 137 152q37 3 107 -17q61 -18 80 -43q4 -2 7.5 -10.5t6.5 -24t5.5 -29t6 -36.5t5.5 -35q8 -39 18.5 -73.5t16 -49t3.5 -16.5q-4 -6 -25.5 0.5t-35.5 17.5q-26 19 -55 82q-29 61 -41 99q-86 -102 -127 -139t-86 -50q-38 -7 -77 -0.5
t-66.5 22.5t-18.5 27q3 4 26 23t56 47.5t57 52.5z" />
    <glyph glyph-name="hcircumflex" unicode="&#x125;" horiz-adv-x="749" 
d="M350 1251q60 0 94 -30q50 -44 50 -80q0 -39 -43 -146q-264 -645 -299 -739q33 48 178 229q65 79 188 238q24 35 36.5 46t37.5 11q33 0 72 -26q41 -27 41 -56t-66 -155q-160 -300 -160 -426q0 -62 23 -62q20 0 74.5 45t111.5 107q88 95 123 147q4 11 8 2q4 -8 2 -12
q-3 -28 -37 -94q-36 -70 -71 -125q-120 -176 -193 -176q-44 0 -127 59q-83 62 -45 244q17 87 78 229q-23 -19 -160 -184q-91 -107 -176 -246q-7 -13 -17.5 -34t-16 -31.5t-9.5 -10.5q-34 0 -71 23.5t-37 52.5q0 28 98 301l231 670q61 186 64 192q11 35 18 37zM307 1542
q94 94 137 152q37 3 107 -17q61 -18 80 -43q4 -2 7.5 -10.5t6.5 -24t5.5 -29t6 -36.5t5.5 -35q8 -39 18.5 -73.5t16 -49t3.5 -16.5q-4 -6 -25.5 0.5t-35.5 17.5q-26 19 -55 82q-29 61 -41 99q-86 -102 -127 -139t-86 -50q-38 -7 -77 -0.5t-66.5 22.5t-18.5 27q3 4 26 23
t56 47.5t57 52.5z" />
    <glyph glyph-name="Hbar" unicode="&#x126;" horiz-adv-x="1271" 
d="M401 535q5 0 29 -2.5t66 -5.5t86 -5l12 37l53 150q-141 0 -168 34q-14 17 4 68q15 49 31 49q120 0 186 -2q71 208 86 277q18 94 2 104q-5 3 -17.5 2.5t-42.5 -17.5t-64.5 -41t-83 -68t-99.5 -99q-129 -141 -186 -307q-62 -171 -62 -281q0 -34 7.5 -65.5t12.5 -44.5t3 -13
q-28 -5 -76.5 9.5t-73.5 39.5q-47 47 -47 131q0 176 113 377q56 102 142.5 203t170.5 166q168 127 254 127q32 0 129 -72q94 -73 97 -117q3 -55 -11 -104q-17 -60 -73 -209h147q63 -2 127 -2q1 2 2 7t3 11.5t5 12.5q90 270 97 317q37 -3 92 -39q53 -38 53 -76
q0 -54 -74 -237q31 0 68.5 0.5t62 1t25.5 0.5q23 0 -45 -74q-27 -31 -47 -43q-10 -8 -115 -14l-61 -160q-8 -15 -15 -41q11 1 84 15q4 1 6 -1.5t4 -9.5q-3 -13 -12 -32q-12 -24 -38 -53.5t-36 -30.5q-22 -4 -57 -13q-179 -470 -188 -524q-40 8 -77.5 40.5t-37.5 63.5
q0 14 84 261l49 143q-136 -4 -184 -4q-31 -2 -113 -2l-59 -158q-67 -188 -72 -238q-37 6 -70 30.5t-43 55.5q-15 40 84 318q-27 4 -41 10q-32 8 -77 94q-24 50 -11 50zM1036 512l72 201q-262 -4 -285 -4l-75 -193h16q176 -4 272 -4z" />
    <glyph glyph-name="hbar" unicode="&#x127;" horiz-adv-x="749" 
d="M117 1010q1 0 145 -9l6 21q61 186 64 192q11 35 18 37q60 0 94 -30q50 -44 50 -80q0 -37 -43 -144q36 0 80.5 0.5t74.5 1t31 0.5q24 0 -47 -71q-34 -34 -49 -43q-43 -22 -146 -25l-243 -604q33 48 178 229q65 79 188 238q24 35 36.5 46t37.5 11q33 0 72 -26
q41 -27 41 -56t-66 -155q-160 -300 -160 -426q0 -62 23 -62q20 0 74.5 45t111.5 107q88 95 123 147q4 11 8 2q4 -8 2 -12q-3 -28 -37 -94q-36 -70 -71 -125q-120 -176 -193 -176q-44 0 -127 59q-83 62 -45 244q17 87 78 229q-23 -19 -160 -184q-91 -107 -176 -246
q-7 -13 -17.5 -34t-16 -31.5t-9.5 -10.5q-34 0 -71 23.5t-37 52.5q0 28 98 301l176 508q-108 6 -131 35q-15 15 4 66q15 49 31 49z" />
    <glyph glyph-name="Itilde" unicode="&#x128;" horiz-adv-x="622" 
d="M6 39q-23 50 -20 90q1 3 8 10q44 -12 223 -22q86 -4 105 -2q-5 0 -5 4q-79 40 -79 119q0 54 88 311q100 291 225 530q-94 -10 -182 2q-105 9 -136 60q-12 18 -21.5 51t-10 53.5t3.5 24.5q2 0 22.5 -5t53 -13t55.5 -13q159 -30 297 -27q58 64 123 93q50 21 106 -23
q50 -39 47 -80q-2 -22 -56 -51.5t-124 -42.5h-2q-129 -233 -235 -602q-27 -99 -51.5 -193t-36 -142t-13.5 -54q116 5 207 22q15 0 6 -55q-6 -40 -31 -59q-47 -31 -157 -45q-195 -25 -301 -11q-78 9 -109 70zM373 1438q20 47 88 100q64 49 119 49q48 0 135 -33q42 -19 57 -24
q62 -23 115 -8q31 12 57 25t38 19.5t13 6.5q5 0 0.5 -13.5t-14.5 -37.5q-34 -61 -113 -103q-46 -24 -94 -24q-52 0 -123 32q-76 33 -104 33q-80 0 -172 -63q-17 0 -2 41z" />
    <glyph glyph-name="itilde" unicode="&#x129;" horiz-adv-x="391" 
d="M6 156q0 130 141 471l72 147q17 6 54 -2t59 -29q30 -26 35 -43.5t-7 -54.5q-5 -15 -21 -48t-45.5 -91.5t-51.5 -104.5q-99 -205 -99 -288q0 -37 15 -37q20 0 75.5 43.5t112.5 101.5q85 92 109 131q4 4 8 2t2 -8q-25 -97 -88 -190q-124 -183 -193 -183q-44 0 -106 45
q-72 47 -72 138zM37 911q21 49 88 101q64 49 119 49q48 0 135 -33q42 -19 57 -24q64 -24 115 -9q31 12 57 25t38 20t13 7q5 0 0.5 -14.5t-14.5 -37.5q-34 -60 -113 -102q-48 -25 -94 -25q-50 0 -123 33q-76 33 -104 33q-78 0 -172 -64q-17 0 -2 41z" />
    <glyph glyph-name="Imacron" unicode="&#x12a;" horiz-adv-x="622" 
d="M6 39q-23 50 -20 90q1 3 8 10q44 -12 223 -22q86 -4 105 -2q-5 0 -5 4q-79 40 -79 119q0 54 88 311q100 291 225 530q-94 -10 -182 2q-105 9 -136 60q-12 18 -21.5 51t-10 53.5t3.5 24.5q2 0 22.5 -5t53 -13t55.5 -13q159 -30 297 -27q58 64 123 93q50 21 106 -23
q50 -39 47 -80q-2 -22 -56 -51.5t-124 -42.5h-2q-129 -233 -235 -602q-27 -99 -51.5 -193t-36 -142t-13.5 -54q116 5 207 22q15 0 6 -55q-6 -40 -31 -59q-47 -31 -157 -45q-195 -25 -301 -11q-78 9 -109 70zM434 1589q47 0 113 -2q116 -4 182 -6h291q24 0 -53 -74
q-32 -32 -54 -43q-51 -26 -297 -26q-186 0 -221 35q-16 19 4 67q18 49 35 49z" />
    <glyph glyph-name="imacron" unicode="&#x12b;" horiz-adv-x="391" 
d="M6 156q0 130 141 471l72 147q17 6 54 -2t59 -29q30 -26 35 -43.5t-7 -54.5q-5 -15 -21 -48t-45.5 -91.5t-51.5 -104.5q-99 -205 -99 -288q0 -37 15 -37q20 0 75.5 43.5t112.5 101.5q85 92 109 131q4 4 8 2t2 -8q-25 -97 -88 -190q-124 -183 -193 -183q-44 0 -106 45
q-72 47 -72 138zM150 1010q41 0 98 -2q30 -1 84 -3.5t76 -3.5h256q23 0 -48 -65q-29 -26 -47 -37q-49 -22 -260 -22q-167 0 -194 30q-15 15 4 60q15 43 31 43z" />
    <glyph glyph-name="Ibreve" unicode="&#x12c;" horiz-adv-x="622" 
d="M6 39q-23 50 -20 90q1 3 8 10q44 -12 223 -22q86 -4 105 -2q-5 0 -5 4q-79 40 -79 119q0 54 88 311q100 291 225 530q-94 -10 -182 2q-105 9 -136 60q-12 18 -21.5 51t-10 53.5t3.5 24.5q2 0 22.5 -5t53 -13t55.5 -13q159 -30 297 -27q58 64 123 93q50 21 106 -23
q50 -39 47 -80q-2 -22 -56 -51.5t-124 -42.5h-2q-129 -233 -235 -602q-27 -99 -51.5 -193t-36 -142t-13.5 -54q116 5 207 22q15 0 6 -55q-6 -40 -31 -59q-47 -31 -157 -45q-195 -25 -301 -11q-78 9 -109 70zM457 1628q27 74 104 92q58 15 74 -4q4 -4 2 -6q-28 -59 -34 -111
t4.5 -79t29.5 -29q107 -12 192 90q26 32 44.5 65.5t25.5 49.5t8 16q8 0 19.5 -29t11.5 -51q0 -57 -74 -143t-162 -86q-61 0 -129.5 28t-95.5 60q-20 23 -26 64t6 73z" />
    <glyph glyph-name="ibreve" unicode="&#x12d;" horiz-adv-x="391" 
d="M6 156q0 130 141 471l72 147q17 6 54 -2t59 -29q30 -26 35 -43.5t-7 -54.5q-5 -15 -21 -48t-45.5 -91.5t-51.5 -104.5q-99 -205 -99 -288q0 -37 15 -37q20 0 75.5 43.5t112.5 101.5q85 92 109 131q4 4 8 2t2 -8q-25 -97 -88 -190q-124 -183 -193 -183q-44 0 -106 45
q-72 47 -72 138zM221 1116q24 64 109 86q57 15 73 -4q5 -4 3 -6q-33 -72 -41.5 -130.5t1.5 -87t29 -30.5q44 -5 102 25t101 84q26 32 45.5 64t27.5 46.5t9 14.5q20 0 20 -78q0 -57 -77 -152q-78 -96 -166 -96q-50 0 -125 37q-80 35 -101 65q-20 31 -22 81.5t12 80.5z" />
    <glyph glyph-name="Iogonek" unicode="&#x12e;" horiz-adv-x="622" 
d="M6 39q-23 50 -20 90q1 3 8 10q44 -12 223 -22q86 -4 105 -2q-5 0 -5 4q-79 40 -79 119q0 54 88 311q100 291 225 530q-94 -10 -182 2q-105 9 -136 60q-12 18 -21.5 51t-10 53.5t3.5 24.5q2 0 22.5 -5t53 -13t55.5 -13q159 -30 297 -27q58 64 123 93q50 21 106 -23
q50 -39 47 -80q-2 -22 -56 -51.5t-124 -42.5h-2q-129 -233 -235 -602q-27 -99 -51.5 -193t-36 -142t-13.5 -54q116 5 207 22q15 0 6 -55q-6 -40 -31 -59q-47 -31 -157 -45l-54 -7q-2 -1 -36 -45q-38 -47 -62 -84q-58 -85 -67 -155q-12 -66 10 -66q19 -2 47.5 11.5t55 33.5
t50.5 41t38 34l14 13q5 0 -1 -22.5t-16 -46.5q-32 -75 -76 -127q-33 -39 -65 -39q-48 0 -123 57q-81 59 -78 109q3 93 140 209q45 39 114 73q-121 -6 -192 0q-78 9 -109 70z" />
    <glyph glyph-name="iogonek" unicode="&#x12f;" horiz-adv-x="391" 
d="M8 156q0 128 142 471l71 147q17 6 54 -2t59 -29q30 -26 35 -43.5t-7 -54.5q-5 -15 -21 -48t-45.5 -91.5t-51.5 -104.5q-99 -205 -99 -288q0 -37 15 -37q20 0 75.5 43.5t112.5 101.5q85 92 109 131q4 4 8 2t2 -8q-25 -97 -88 -190q-68 -101 -123 -150q-39 -42 -74 -98
q-58 -85 -67 -156q-12 -65 10 -65q19 0 47.5 13.5t55 33.5t50.5 39.5t38.5 33t13.5 13.5q5 0 -1 -23t-16 -47q-33 -77 -75 -127q-33 -39 -66 -39q-47 0 -123 58q-81 59 -78 108q3 93 140 209l34 27q-41 13 -65 32q-72 47 -72 138zM332 911q-4 1 -5 6.5t0 15t2.5 19t3 22
t1.5 21.5q0 136 14 156q22 29 74 23q47 -5 82.5 -29t36.5 -53q1 -36 -33.5 -86t-69.5 -72q-56 -39 -106 -23z" />
    <glyph glyph-name="Idotaccent" unicode="&#x130;" horiz-adv-x="622" 
d="M6 39q-23 50 -20 90q1 3 8 10q44 -12 223 -22q86 -4 105 -2q-5 0 -5 4q-79 40 -79 119q0 54 88 311q100 291 225 530q-94 -10 -182 2q-105 9 -136 60q-12 18 -21.5 51t-10 53.5t3.5 24.5q2 0 22.5 -5t53 -13t55.5 -13q159 -30 297 -27q58 64 123 93q50 21 106 -23
q50 -39 47 -80q-2 -22 -56 -51.5t-124 -42.5h-2q-129 -233 -235 -602q-27 -99 -51.5 -193t-36 -142t-13.5 -54q116 5 207 22q15 0 6 -55q-6 -40 -31 -59q-47 -31 -157 -45q-195 -25 -301 -11q-78 9 -109 70zM643 1606q40 43 100 24q33 -10 59.5 -44.5t24.5 -55.5
q-9 -41 -73 -90q-109 -74 -131 -74q-10 0 -22.5 9.5t-12.5 15.5q0 148 55 215z" />
    <glyph glyph-name="dotlessi" unicode="&#x131;" horiz-adv-x="391" 
d="M6 156q0 130 141 471l72 147q17 6 54 -2t59 -29q30 -26 35 -43.5t-7 -54.5q-5 -15 -21 -48t-45.5 -91.5t-51.5 -104.5q-99 -205 -99 -288q0 -37 15 -37q20 0 75.5 43.5t112.5 101.5q85 92 109 131q4 4 8 2t2 -8q-25 -97 -88 -190q-124 -183 -193 -183q-44 0 -106 45
q-72 47 -72 138z" />
    <glyph glyph-name="IJ" unicode="&#x132;" horiz-adv-x="1501" 
d="M850 401q3 -5 3.5 -9t0.5 -11.5t-0.5 -22t0.5 -41.5q3 -61 14 -116q27 -126 62 -144q6 -10 42.5 8.5t90 71.5t92.5 123q77 138 248 551l139 330q-136 28 -350 8q-184 -15 -234 -92q-15 -24 33 -33q23 -5 223 -2q54 0 54 -6q0 -22 -99 -74q-103 -53 -155 -53
q-50 -6 -125 78q-74 83 -101 157q-11 -3 -31 -8.5t-28 -7.5h-2q-129 -233 -235 -602q-27 -99 -51.5 -193t-36 -142t-13.5 -54q116 5 207 22q15 0 6 -55q-6 -40 -31 -59q-47 -31 -157 -45q-195 -25 -301 -11q-78 9 -109 70q-23 50 -20 90q1 3 8 10q44 -12 223 -22
q86 -4 105 -2q-5 0 -5 4q-79 40 -79 119q0 54 88 311q100 291 225 530q-94 -10 -182 2q-105 9 -136 60q-12 18 -21.5 51t-10 53.5t3.5 24.5q2 0 22.5 -5t53 -13t55.5 -13q159 -30 297 -27q58 64 123 93q50 21 106 -23q1 -1 7 -5.5t10.5 -9t5.5 -7.5q114 51 284 51
q195 0 424 -49q51 75 78 75q61 0 96 -65q36 -67 33 -98q-1 -17 -36.5 -30.5t-77.5 -15.5q-58 -138 -95 -235l-190 -500q-94 -250 -180 -336q-98 -98 -244 -98q-59 0 -168 90q-113 88 -113 162q0 42 60 117q58 73 94 73z" />
    <glyph glyph-name="ij" unicode="&#x133;" horiz-adv-x="741" 
d="M569 -90q22 -22 19 -53q-1 -10 -7.5 -14t-13.5 1q-72 35 -147 35q-84 -216 -170 -387q-71 -139 -152 -229q-83 -92 -143 -92q-66 0 -158 69q-92 71 -92 119q0 58 53 146t150 182q175 166 371 225q0 1 47 125l30 90q-109 -154 -172 -154q-44 0 -106 45q-72 47 -72 138
q0 130 141 471l72 147q17 6 54 -2t59 -29q30 -26 35 -43.5t-7 -54.5q-5 -15 -21 -48t-45.5 -91.5t-51.5 -104.5q-99 -205 -99 -288q0 -37 15 -37q20 0 75.5 43.5t112.5 101.5q31 33 68 76q93 264 118 326q43 112 74 151q69 0 111 -31q23 -19 29.5 -53t-7.5 -63
q-126 -243 -245 -555l-52 -135q100 0 127 -27zM-104 -684q73 28 167 174q107 166 181 340q-130 -71 -264 -260q-94 -134 -97 -229q0 -28 13 -25zM709 909q-4 1 -5 6.5t0 15t2.5 19t3 22t1.5 21.5q0 136 14 156q22 28 74 22q47 -5 82.5 -28.5t36.5 -52.5q1 -36 -33.5 -86
t-69.5 -72q-56 -39 -106 -23zM330 911q-4 1 -5 6.5t0 15t2.5 19t3 22t1.5 21.5q0 136 14 156q22 29 74 23q47 -5 82.5 -29t36.5 -53q1 -36 -33.5 -86t-69.5 -72q-56 -39 -106 -23z" />
    <glyph glyph-name="Jcircumflex" unicode="&#x134;" horiz-adv-x="878" 
d="M221 401q3 -5 3.5 -9t0.5 -11.5t-0.5 -22t0.5 -41.5q3 -54 15 -116q27 -126 61 -144q6 -10 42.5 8.5t90 71.5t92.5 123q77 138 248 551l139 330q-136 28 -350 8q-183 -15 -233 -92q-15 -24 32 -33q23 -5 224 -2q53 0 53 -6q0 -22 -98 -74q-103 -53 -156 -53
q-60 -6 -145 104q-89 109 -86 164q3 56 110 105t277 49q195 0 424 -49q51 75 77 75q62 0 97 -65t32 -98q-1 -17 -36.5 -30.5t-77.5 -15.5q-50 -117 -94 -235l-191 -500q-92 -248 -180 -336q-98 -98 -244 -98q-59 0 -168 90q-112 87 -112 162q0 43 59 117q58 73 94 73z
M647 1583q94 94 137 152q37 3 107 -17q61 -18 80 -43q4 -2 7.5 -10.5t6.5 -24t5 -29.5t5.5 -36t5.5 -35q8 -39 19 -73.5t16 -49t4 -16.5q-4 -6 -25.5 0.5t-35.5 17.5q-26 19 -55 82q-30 62 -41 98q-85 -101 -126 -138t-87 -50q-38 -7 -77 -0.5t-66.5 22.5t-18.5 27
q3 4 26 23t56 47.5t57 52.5z" />
    <glyph glyph-name="jcircumflex" unicode="&#x135;" horiz-adv-x="350" 
d="M178 -90q22 -22 19 -53q-1 -10 -7.5 -14t-13.5 1q-72 35 -147 35q-84 -216 -170 -387q-69 -134 -154 -229q-83 -92 -141 -92q-66 0 -158 69q-92 71 -92 119q0 58 53 146t150 182q175 166 370 225q0 1 47 125q192 552 207 586q43 112 74 151q69 0 111 -31q23 -19 29.5 -53
t-7.5 -63q-130 -251 -246 -555l-51 -135q100 0 127 -27zM-496 -684q74 29 168 174q107 166 181 340q-132 -72 -265 -260q-93 -133 -96 -229q0 -28 12 -25zM209 1063q82 76 151 168q31 2 93 -21q53 -23 75 -51q22 -31 13 -141q-12 -118 -35 -160q-4 -6 -23.5 9.5t-27.5 29.5
q-1 9 -0.5 12.5t1.5 28t1 53.5q-3 78 -17 92q-76 -96 -127 -147q-43 -40 -90 -55q-31 -9 -74.5 3.5t-71.5 30.5t-20 23q2 2 28.5 22.5t63 50.5t60.5 52z" />
    <glyph glyph-name="uni0136" unicode="&#x136;" horiz-adv-x="1271" 
d="M1262 -72q3 -13 -39 -67q-40 -49 -82 -49q-50 0 -117.5 42.5t-114.5 112.5q-90 136 -125 414l-53 -16q-2 -5 -21.5 -55.5t-35.5 -94.5q-67 -188 -72 -238q-37 6 -70 30.5t-43 55.5q-15 37 74 289q-74 47 -74 92q0 22 52 68q48 45 75 45h19q2 0 2 2q179 506 192 576
q18 94 2 104q-5 3 -17.5 2.5t-42.5 -17.5t-64.5 -41t-83 -68t-99.5 -99q-129 -141 -186 -307q-62 -171 -62 -281q0 -34 7.5 -65.5t12.5 -44.5t3 -13q-28 -5 -76 9.5t-73 39.5q-48 48 -48 131q0 176 113 377q56 102 142.5 203t170.5 166q168 127 254 127q32 0 129 -72
q94 -73 97 -117q3 -55 -13 -110q-14 -51 -86 -240l-125 -319q33 15 90 45q31 16 103 69q66 49 158 138q202 196 284 397q9 23 20.5 53t17 44t9.5 18q20 8 58 -27q46 -43 49 -147q3 -48 -80 -175q-79 -121 -238 -258q-198 -167 -383 -249q40 -243 191 -369q51 -44 179 -100
q20 -9 20 -11zM614 -158q-3 14 40 16q66 3 106 -28q27 -20 24 -51q0 -73 -96 -166q-95 -92 -158 -92q-28 0 -14 33q74 103 98 288z" />
    <glyph glyph-name="uni0137" unicode="&#x137;" horiz-adv-x="696" 
d="M401 1319q41 0 88 -35q48 -36 48 -76q0 -24 -27 -88q-53 -126 -102 -239q-89 -207 -154 -367q69 101 172 207q105 108 137 108t84 -61q50 -59 60 -102q8 -46 -15.5 -107t-77.5 -115q-52 -52 -121.5 -92t-121.5 -53q3 -85 26 -158q21 -78 41 -78q23 0 83 44t116 102
q98 104 129 158q2 4 6 4t8.5 -3.5t3.5 -7.5q-36 -108 -118 -225q-119 -174 -185 -174q-34 0 -87 18t-83 39q-44 35 -75 116t-37 173q-31 -68 -99 -268q-6 -12 -11 -30t-10.5 -23.5t-19.5 -5.5q-77 0 -106 51q28 150 207 663q48 143 106 297.5t95.5 244t39.5 83.5zM319 487
q-58 -58 -100 -137q47 15 84 33q123 63 199 168q70 102 55 117q-3 9 -43 -18t-95.5 -73t-99.5 -90zM53 -158q-2 7 12 12q36 12 90 -4q71 -20 68 -71q0 -73 -96 -166q-95 -92 -158 -92q-28 0 -14 33q74 103 98 288z" />
    <glyph glyph-name="Lacute" unicode="&#x139;" horiz-adv-x="864" 
d="M600 1294q21 27 102 -45q50 -44 50 -108q0 -52 -56 -226q-64 -200 -213 -528q-72 -158 -108 -221q112 14 198 14q128 0 183 -22q44 -20 71 -76q26 -56 23 -100q-1 -5 -2 -7.5t-3 -3.5t-5 0q-39 18 -158 37q-114 15 -219 15q-115 0 -180 -15q-8 -8 -27 -35
q-33 -36 -86 -12q-20 10 -59 55q-42 45 -39 62q3 31 127 57q24 38 65 127q119 265 236 641q77 253 100 391zM1024 1524q-3 -80 -137 -144q-107 -52 -189 -43q-28 3 -32 15q-10 14 10 28q56 40 74 54q48 42 77 84q49 73 60 106q5 5 38.5 -9t66 -40t32.5 -51z" />
    <glyph glyph-name="lacute" unicode="&#x13a;" horiz-adv-x="473" 
d="M698 1233q0 -109 -75 -287q-74 -175 -193 -338q-116 -155 -211 -176q-69 -192 -72 -280q-6 -89 29 -89q26 0 83 36t120 98q160 149 172 170q4 4 10 1t4 -8q-68 -157 -180 -288q-112 -127 -182 -127q-39 0 -94 30q-58 36 -74 60q-29 43 -29 129q0 76 62 280
q68 223 159 447q60 150 126 275.5t106 179.5q34 46 47 51q35 14 100 -33q92 -71 92 -131zM567 1204q-182 -318 -321 -696q145 109 258 414q95 262 63 282zM844 1647q-3 -80 -137 -144q-107 -52 -189 -43q-29 3 -33 15q-10 13 11 28q60 43 73 53q50 44 78 84q48 72 60 107
q5 5 38.5 -9t66 -40t32.5 -51z" />
    <glyph glyph-name="uni013B" unicode="&#x13b;" horiz-adv-x="864" 
d="M600 1294q21 27 102 -45q50 -44 50 -108q0 -52 -56 -226q-64 -200 -213 -528q-72 -158 -108 -221q112 14 198 14q128 0 183 -22q44 -20 71 -76q26 -56 23 -100q-1 -5 -2 -7.5t-3 -3.5t-5 0q-39 18 -158 37q-114 15 -219 15q-115 0 -180 -15q-8 -8 -27 -35
q-33 -36 -86 -12q-20 10 -59 55q-42 45 -39 62q3 31 127 57q24 38 65 127q119 265 236 641q77 253 100 391zM344 -158q-2 7 12 12q36 12 90 -4q71 -20 68 -71q0 -73 -96 -166q-95 -92 -158 -92q-28 0 -14 33q74 103 98 288z" />
    <glyph glyph-name="uni013C" unicode="&#x13c;" horiz-adv-x="473" 
d="M707 1233q0 -107 -76 -287q-74 -175 -193 -338q-116 -155 -211 -176q-68 -189 -71 -280q-6 -89 28 -89q26 0 83 36t120 98q160 149 172 170q4 4 10 1t4 -8q-68 -157 -180 -288q-112 -127 -182 -127q-38 0 -94 30q-58 36 -74 60q-29 43 -29 129q0 76 62 280
q65 213 160 447q60 151 126 276.5t105 178.5q34 46 47 51q35 14 100 -33q93 -72 93 -131zM575 1204q-182 -318 -321 -696q145 109 258 414q95 262 63 282zM20 -158q-3 14 40 16q66 3 106 -28q27 -20 24 -51q0 -73 -96 -166q-95 -92 -157 -92q-29 0 -15 33q74 103 98 288z
" />
    <glyph glyph-name="Lcaron" unicode="&#x13d;" horiz-adv-x="864" 
d="M600 1294q21 27 102 -45q50 -44 50 -108q0 -52 -56 -226q-64 -200 -213 -528q-72 -158 -108 -221q112 14 198 14q128 0 183 -22q44 -20 71 -76q26 -56 23 -100q-1 -5 -2 -7.5t-3 -3.5t-5 0q-39 18 -158 37q-114 15 -219 15q-115 0 -180 -15q-8 -8 -27 -35
q-33 -36 -86 -12q-20 10 -59 55q-42 45 -39 62q3 31 127 57q24 38 65 127q119 265 236 641q77 253 100 391zM1061 1272q20 -62 -51 -158q-70 -86 -162 -135q-36 -16 -45 -4q-3 8 -1.5 13t9 16t8.5 12q56 90 74 174q5 28 8.5 62t5.5 54t4 23q6 2 34.5 4t67 -14t48.5 -47z" />
    <glyph glyph-name="lcaron" unicode="&#x13e;" horiz-adv-x="473" 
d="M698 1233q0 -109 -75 -287q-74 -175 -193 -338q-116 -155 -211 -176q-69 -192 -72 -280q-6 -89 29 -89q26 0 83 36t120 98q160 149 172 170q4 4 10 1t4 -8q-68 -157 -180 -288q-112 -127 -182 -127q-39 0 -94 30q-58 36 -74 60q-29 43 -29 129q0 76 62 280
q68 223 159 447q60 150 126 275.5t106 179.5q34 46 47 51q35 14 100 -33q92 -71 92 -131zM567 1204q-182 -318 -321 -696q145 109 258 414q95 262 63 282zM952 1296q20 -62 -51 -157q-71 -85 -162 -135q-37 -16 -45 -5q-3 8 -1 13.5t9.5 16t8.5 11.5q55 87 73 174
q5 27 8.5 62l5.5 55t5 23q1 3 14 4t33 -1.5t40.5 -8.5t38 -19.5t23.5 -32.5z" />
    <glyph glyph-name="Ldot" unicode="&#x13f;" horiz-adv-x="864" 
d="M600 1294q21 27 102 -45q50 -44 50 -108q0 -52 -56 -226q-64 -200 -213 -528q-72 -158 -108 -221q112 14 198 14q128 0 183 -22q44 -20 71 -76q26 -56 23 -100q-1 -5 -2 -7.5t-3 -3.5t-5 0q-39 18 -158 37q-114 15 -219 15q-115 0 -180 -15q-8 -8 -27 -35
q-33 -36 -86 -12q-20 10 -59 55q-42 45 -39 62q3 31 127 57q24 38 65 127q119 265 236 641q77 253 100 391zM829 461q-16 3 -16 63q0 121 21 148q15 21 88 12q95 -9 98 -63q1 -37 -24.5 -77t-59.5 -61q-56 -39 -107 -22z" />
    <glyph glyph-name="ldot" unicode="&#x140;" horiz-adv-x="473" 
d="M248 516l-6 -20q-92 -250 -95 -344q-6 -89 29 -89q26 0 83 36t120 98q160 149 172 170q4 4 10 1t4 -8q-68 -157 -180 -288q-112 -127 -182 -127q-39 0 -94 30q-58 36 -74 60q-29 43 -29 129q0 76 62 280q68 223 159 447q60 150 126 275.5t106 179.5q34 46 47 51
q35 14 100 -33q92 -71 92 -131q0 -177 -147 -408q-148 -233 -303 -309zM504 922q44 108 62 189.5t1 92.5q-146 -255 -284 -598q140 119 221 316zM281 274q-20 7 -11 68q9 96 25 115q14 20 86 14q82 -9 82 -55q0 -26 -20 -60t-50 -57q-57 -43 -112 -25z" />
    <glyph glyph-name="Lslash" unicode="&#x141;" horiz-adv-x="884" 
d="M600 1294q21 27 102 -45q50 -44 50 -108q0 -52 -56 -226q-43 -137 -98 -264q269 92 346 80q14 -8 3 -45t-37 -80t-40 -45q-166 -37 -350 -96l-37 -78q-72 -158 -108 -221q112 14 198 14q128 0 183 -22q44 -20 71 -76q26 -56 23 -100q-1 -5 -2 -7.5t-3 -3.5t-5 0
q-39 18 -158 37q-114 15 -219 15q-115 0 -180 -15q-8 -8 -27 -35q-33 -36 -86 -12q-20 10 -59 55q-42 45 -39 62q3 31 127 57q24 38 65 127q11 22 25 55q17 41 33 80q-115 -38 -136 -35q-28 3 -80 52q-32 29 -18 32q27 11 299 125q81 231 113 332q77 253 100 391z" />
    <glyph glyph-name="lslash" unicode="&#x142;" horiz-adv-x="473" 
d="M698 1233q0 -109 -75 -287q-74 -175 -193 -338q-116 -155 -211 -176q-69 -192 -72 -280q-6 -89 29 -89q26 0 83 36t120 98q160 149 172 170q4 4 10 1t4 -8q-68 -157 -180 -288q-112 -127 -182 -127q-39 0 -94 30q-58 36 -74 60q-29 43 -29 129q0 76 62 280
q68 223 159 447q60 150 126 275.5t106 179.5q34 46 47 51q35 14 100 -33q92 -71 92 -131zM567 1204q-182 -318 -321 -696q145 109 258 414q95 262 63 282zM354 1464q21 49 88 101q64 49 119 49q48 0 135 -33q48 -22 58 -25q62 -23 114 -8q31 12 57.5 25t38.5 19.5t13 6.5
q5 0 0.5 -13.5t-14.5 -37.5q-38 -62 -113 -102q-48 -25 -94 -25q-50 0 -123 33q-76 33 -105 33q-78 0 -172 -64q-17 0 -2 41z" />
    <glyph glyph-name="Nacute" unicode="&#x143;" horiz-adv-x="1183" 
d="M1071 -436q-118 89 -164 252q-63 199 27 532q60 220 196 529q-1 -1 -31.5 -30t-47.5 -46q-68 -68 -146 -172q-115 -150 -174.5 -272.5t-93.5 -293.5v17l-10 -105q-55 2 -90 24.5t-41 63.5q-7 41 36 213q46 184 89 324q152 502 159 535q21 93 2 104q-5 3 -17.5 2.5
t-42.5 -17.5t-64.5 -41t-83 -68t-99.5 -99q-129 -141 -186 -307q-62 -171 -62 -281q0 -34 7.5 -65.5t12.5 -44.5t3 -13q-28 -5 -76.5 9.5t-73.5 39.5q-47 47 -47 131q0 176 113 377q56 102 142.5 203t170.5 166q168 127 254 127q31 0 135 -72q98 -73 101 -117
q1 -34 -19.5 -101t-77.5 -220q-31 -80 -88 -244l-28 -84q102 181 256 361q152 179 239 254q46 -3 88 -45q39 -39 39 -70q0 -19 -12 -43q-25 -37 -39 -70q-93 -171 -180 -403q-119 -314 -119 -619q0 -74 23 -174q21 -89 55 -129q11 -13 -4 -22t-31 4zM1423 1491
q-3 -79 -137 -143q-107 -52 -188 -43q-29 3 -33 14q-11 14 10 29q72 51 74 53q50 44 78 84q47 70 59 106q5 5 38.5 -9t66 -40t32.5 -51z" />
    <glyph glyph-name="nacute" unicode="&#x144;" horiz-adv-x="800" 
d="M109 524q55 156 79 213q2 5 22 5.5t49.5 -7t49.5 -24.5q37 -30 37 -60q0 -23 -45 -121q-32 -62 -43 -92l-111 -260q224 308 304 404q25 30 78 96.5t59 73.5q23 27 26 28q48 0 80 -16q56 -30 56 -76q0 -7 -2.5 -15.5t-10 -24t-14 -27t-21.5 -39.5t-26 -47
q-40 -71 -68 -138q-78 -176 -78 -276q0 -51 19 -51q7 0 31 13.5t67 47t86 76.5q31 34 59.5 67.5t44 53.5t19.5 24q4 6 8 3t2 -9q-22 -93 -108 -221q-109 -160 -191 -160q-37 0 -102 41q-80 53 -80 146q0 74 41 208q25 78 41 117q-33 -33 -160 -194q-201 -254 -219 -295
q-12 -27 -102 35q-26 18 -17 49q65 229 140 452zM815 1120q0 -70 -117 -159q-119 -86 -190 -89q-24 -3 -33 15q-10 14 10 28q85 82 131 170q17 32 30.5 63t19.5 47t8 19q5 7 39.5 -4t68 -36t33.5 -54z" />
    <glyph glyph-name="uni0145" unicode="&#x145;" horiz-adv-x="1183" 
d="M1071 -436q-118 89 -164 252q-63 199 27 532q60 220 196 529q-1 -1 -31.5 -30t-47.5 -46q-68 -68 -146 -172q-115 -150 -174.5 -272.5t-93.5 -293.5v17l-10 -105q-55 2 -90 24.5t-41 63.5q-7 41 36 213q46 184 89 324q152 502 159 535q21 93 2 104q-5 3 -17.5 2.5
t-42.5 -17.5t-64.5 -41t-83 -68t-99.5 -99q-129 -141 -186 -307q-62 -171 -62 -281q0 -34 7.5 -65.5t12.5 -44.5t3 -13q-28 -5 -76.5 9.5t-73.5 39.5q-47 47 -47 131q0 176 113 377q56 102 142.5 203t170.5 166q168 127 254 127q31 0 135 -72q98 -73 101 -117
q1 -34 -19.5 -101t-77.5 -220q-31 -80 -88 -244l-28 -84q102 181 256 361q152 179 239 254q46 -3 88 -45q39 -39 39 -70q0 -19 -12 -43q-25 -37 -39 -70q-93 -171 -180 -403q-119 -314 -119 -619q0 -74 23 -174q21 -89 55 -129q11 -13 -4 -22t-31 4zM537 -158q-3 14 40 16
q66 3 106 -28q27 -20 24 -51q0 -72 -97 -166q-95 -92 -157 -92q-29 0 -15 33q76 105 99 288z" />
    <glyph glyph-name="uni0146" unicode="&#x146;" horiz-adv-x="800" 
d="M109 524q55 156 79 213q2 5 22 5.5t49.5 -7t49.5 -24.5q37 -30 37 -60q0 -23 -45 -121q-32 -62 -43 -92l-111 -260q224 308 304 404q25 30 78 96.5t59 73.5q23 27 26 28q48 0 80 -16q56 -30 56 -76q0 -7 -2.5 -15.5t-10 -24t-14 -27t-21.5 -39.5t-26 -47
q-40 -71 -68 -138q-78 -176 -78 -276q0 -51 19 -51q7 0 31 13.5t67 47t86 76.5q31 34 59.5 67.5t44 53.5t19.5 24q4 6 8 3t2 -9q-22 -93 -108 -221q-109 -160 -191 -160q-37 0 -102 41q-80 53 -80 146q0 74 41 208q25 78 41 117q-33 -33 -160 -194q-201 -254 -219 -295
q-12 -27 -102 35q-26 18 -17 49q65 229 140 452zM137 -158q-3 14 40 16q66 3 106 -28q27 -20 24 -51q0 -73 -96 -166q-95 -92 -158 -92q-28 0 -14 33q74 103 98 288z" />
    </font>
</defs>
</svg>
